<?xml version="1.0" standalone="no"?>
<!DOCTYPE svg PUBLIC "-//W3C//DTD SVG 20010904//EN"
 "http://www.w3.org/TR/2001/REC-SVG-20010904/DTD/svg10.dtd">
<svg version="1.0" xmlns="http://www.w3.org/2000/svg"
 width="1920.000000pt" height="1920.000000pt" viewBox="0 0 1920.000000 1920.000000"
 preserveAspectRatio="xMidYMid meet">
<metadata>
Created by potrace 1.11, written by Peter Selinger 2001-2013
</metadata>
<g transform="translate(0.000000,1920.000000) scale(0.100000,-0.100000)"
fill="#000000" stroke="none">
<path d="M9457 18674 c-1 -1 -63 -4 -137 -8 -74 -3 -144 -8 -155 -10 -11 -2
-51 -7 -90 -10 -336 -32 -801 -146 -1145 -281 -307 -120 -507 -223 -873 -450
-99 -61 -370 -267 -487 -370 -781 -686 -1294 -1547 -1504 -2525 -14 -63 -28
-131 -31 -150 -3 -19 -10 -60 -15 -90 -5 -30 -12 -73 -14 -95 -3 -22 -8 -56
-11 -75 -6 -38 -10 -82 -22 -230 -14 -186 -7 -696 11 -810 2 -14 7 -54 11 -90
3 -36 12 -103 20 -150 8 -47 16 -102 20 -124 3 -21 7 -41 9 -45 2 -3 7 -24 10
-45 26 -162 120 -492 203 -711 180 -473 449 -937 763 -1314 l50 -60 72 34 c40
18 100 41 133 50 35 11 93 40 139 72 43 30 125 76 180 103 90 43 281 114 337
125 11 2 28 6 37 9 9 3 28 7 42 10 14 2 52 9 85 15 86 15 202 30 372 47 34 3
70 7 80 9 10 2 24 4 31 4 6 1 21 10 32 21 16 16 20 33 20 85 0 114 -16 171
-156 545 -115 309 -127 362 -128 535 -1 150 10 202 61 295 26 48 29 71 18 160
-9 79 -13 116 -20 195 -3 39 -8 81 -10 95 -2 14 -7 95 -10 180 -4 85 -8 169
-8 185 l-2 30 1014 0 1015 0 0 -813 c1 -448 -2 -819 -6 -825 -4 -6 -35 -12
-70 -13 -195 -5 -537 -30 -678 -49 -19 -3 -62 -8 -94 -10 -33 -3 -63 -8 -67
-11 -5 -2 7 -35 26 -72 18 -37 43 -96 55 -132 24 -70 23 -67 35 -123 l8 -39
66 7 c36 3 82 8 101 10 19 2 67 7 105 10 39 3 88 8 110 10 22 3 108 7 190 10
83 3 162 7 178 9 15 2 31 -2 34 -8 4 -6 7 -456 8 -1001 l0 -990 -38 -94 c-44
-107 -100 -223 -128 -263 -11 -15 -16 -29 -11 -32 34 -21 718 -21 741 0 2 2
-19 48 -47 101 -28 54 -68 139 -89 188 l-39 90 0 1005 1 1005 45 -1 c100 -3
365 -16 380 -19 8 -2 60 -6 115 -10 55 -4 108 -9 119 -11 10 -2 44 -6 75 -9
82 -9 133 -15 161 -20 14 -2 43 -7 65 -10 131 -18 445 -76 515 -95 19 -5 49
-12 67 -15 39 -6 83 -22 83 -30 0 -3 -4 -13 -10 -23 -5 -9 -35 -78 -66 -152
-152 -367 -338 -693 -540 -944 l-72 -88 67 -92 c36 -51 80 -123 96 -159 27
-61 48 -82 57 -58 2 5 21 29 43 53 141 152 252 312 418 603 178 312 222 402
314 635 25 63 49 119 54 124 9 10 59 -6 283 -90 92 -35 172 -61 177 -58 16 10
75 16 189 19 104 3 154 -1 245 -19 17 -4 46 -9 65 -12 19 -3 41 -7 48 -9 8 -3
47 6 89 20 153 52 299 32 412 -56 l23 -19 53 74 c80 111 196 290 257 396 83
145 248 475 248 498 0 4 7 20 15 35 28 55 124 324 164 463 41 139 104 403 116
479 3 22 13 83 21 135 8 52 17 118 20 145 3 28 7 64 9 80 26 183 26 740 0 940
-2 17 -7 53 -10 80 -13 110 -43 291 -67 405 -11 52 -22 106 -25 120 -3 14 -21
81 -40 150 -19 69 -36 132 -38 140 -12 53 -128 365 -166 447 -10 24 -19 45
-19 48 0 12 -167 344 -202 402 -21 35 -38 65 -38 68 0 9 -159 255 -231 357
-425 599 -1012 1108 -1660 1440 -376 192 -683 303 -1114 404 -55 13 -337 63
-385 68 -30 4 -66 8 -80 11 -28 4 -102 11 -227 21 -74 5 -450 13 -456 8z m-52
-1401 l0 -998 -130 2 c-118 1 -235 7 -355 17 -25 3 -76 7 -115 10 -38 4 -86 8
-105 11 -19 2 -60 7 -90 10 -30 4 -66 8 -79 10 -13 2 -45 7 -70 11 -25 3 -57
8 -71 10 -140 23 -148 24 -220 39 -14 2 -36 7 -50 9 -24 4 -53 10 -245 52 -44
9 -84 20 -88 24 -4 4 27 87 68 186 227 531 430 852 729 1149 189 187 353 302
546 382 79 33 259 85 270 78 3 -2 5 -452 5 -1002z m475 987 c148 -37 317 -115
464 -214 112 -76 141 -100 266 -226 123 -122 165 -171 265 -305 162 -217 297
-454 423 -735 27 -60 110 -271 114 -289 3 -16 -51 -30 -332 -85 -166 -33 -215
-42 -285 -51 -16 -3 -61 -9 -100 -14 -254 -37 -443 -53 -735 -66 l-166 -7 2
1003 c0 552 2 1005 3 1007 0 2 9 1 19 -2 9 -3 37 -10 62 -16z m1095 -185 c259
-90 707 -317 970 -492 48 -32 95 -62 104 -68 32 -20 357 -264 391 -295 66 -59
232 -225 240 -241 8 -13 -19 -30 -153 -97 -184 -91 -211 -104 -357 -162 -79
-32 -377 -140 -386 -140 -1 0 -7 15 -15 33 -110 276 -221 516 -319 691 -66
120 -191 320 -209 336 -3 3 -20 25 -36 50 -25 38 -177 231 -210 267 -5 6 -43
45 -84 87 -82 84 -85 82 64 31z m-2695 -42 c-36 -37 -72 -74 -80 -83 -44 -45
-187 -231 -261 -340 -147 -217 -276 -451 -379 -686 -23 -55 -51 -117 -60 -139
-10 -22 -33 -76 -50 -120 -17 -44 -33 -81 -34 -83 -3 -3 -253 86 -371 131
-132 52 -192 79 -374 169 l-164 82 124 120 c127 124 203 192 299 268 30 23 57
45 60 48 13 14 196 144 285 202 240 155 465 273 715 375 127 52 324 122 345
123 5 0 -20 -30 -55 -67z m-1509 -1616 c121 -51 272 -111 417 -163 56 -21 102
-42 102 -47 0 -6 -14 -62 -31 -125 -17 -64 -32 -122 -34 -131 -2 -9 -15 -61
-28 -116 -14 -55 -28 -118 -32 -140 -5 -22 -9 -44 -11 -50 -5 -21 -26 -121
-30 -150 -3 -16 -11 -66 -19 -110 -12 -70 -22 -136 -41 -275 -3 -19 -7 -46 -9
-60 -3 -13 -7 -58 -11 -99 -3 -41 -7 -82 -9 -91 -2 -10 -6 -57 -10 -106 -4
-49 -9 -107 -11 -129 -3 -39 -17 -316 -18 -363 0 -15 -7 -24 -20 -27 -47 -9
-1631 0 -1629 10 0 6 4 55 7 110 4 55 8 111 11 125 2 14 6 48 10 75 4 41 25
170 52 330 31 185 166 619 249 803 13 29 24 54 24 56 0 11 114 244 160 326 29
52 58 104 64 115 13 23 20 34 111 175 37 58 101 151 141 206 l74 102 209 -103
c115 -57 255 -124 312 -148z m6236 171 c229 -311 402 -622 555 -998 6 -14 14
-34 19 -45 69 -168 182 -587 214 -795 4 -25 9 -52 10 -60 1 -8 8 -55 14 -105
7 -49 14 -103 16 -120 3 -16 8 -75 11 -131 l6 -100 -823 0 -824 1 -2 25 c0 14
-4 88 -7 166 -4 77 -8 160 -11 185 -2 24 -6 80 -10 124 -3 44 -8 94 -10 110
-2 17 -7 64 -10 105 -4 41 -9 82 -10 90 -2 9 -6 43 -10 75 -4 33 -9 67 -11 77
-1 9 -6 38 -10 65 -3 26 -8 57 -10 68 -9 49 -24 133 -29 165 -19 118 -87 412
-144 622 l-29 106 107 37 c112 38 315 115 391 148 147 64 336 155 445 216 50
28 92 50 95 51 3 0 33 -37 67 -82z m-5222 -503 c119 -29 159 -37 345 -71 88
-17 93 -18 150 -27 67 -12 200 -31 290 -42 25 -3 61 -7 80 -10 50 -7 114 -13
200 -20 41 -3 89 -8 105 -10 38 -5 245 -16 353 -19 45 -2 85 -6 89 -10 6 -6
12 -1611 5 -1632 -5 -17 -2022 -17 -2023 -1 -1 22 3 161 6 212 9 152 17 263
20 285 2 14 6 59 10 100 4 41 8 86 10 100 2 14 7 54 11 90 4 36 8 67 9 70 1 3
5 37 10 75 5 39 9 72 10 75 1 3 5 25 9 50 13 69 15 83 21 110 2 14 7 41 10 60
3 19 8 42 10 50 2 8 7 31 10 50 14 82 107 460 130 528 6 16 9 16 130 -13z
m3774 -42 c22 -73 70 -263 78 -302 2 -14 6 -28 8 -31 2 -4 6 -20 9 -36 3 -16
15 -73 26 -127 19 -93 61 -351 76 -462 3 -27 8 -59 10 -70 2 -10 6 -51 9 -90
3 -38 8 -79 10 -90 2 -12 7 -61 11 -110 3 -50 8 -108 9 -130 2 -22 6 -113 10
-201 l7 -162 -1011 0 c-556 0 -1012 3 -1012 6 -1 4 -2 375 -3 825 -1 540 2
817 9 818 5 0 45 2 89 4 176 7 441 26 576 41 70 8 201 24 240 30 19 2 67 9
105 15 84 12 105 15 215 35 112 21 113 21 203 40 42 8 88 17 102 20 13 2 36 9
50 14 14 5 25 8 25 6 0 -1 21 3 48 10 79 21 79 21 101 -53z m-4571 -2208 c4
-4 7 -19 8 -33 3 -93 16 -325 19 -367 7 -77 16 -186 20 -225 4 -45 13 -125 26
-220 5 -42 11 -91 14 -111 4 -29 16 -107 51 -314 17 -98 100 -454 139 -594 14
-52 24 -100 21 -107 -2 -7 -29 -20 -58 -29 -67 -23 -249 -92 -398 -153 -63
-26 -218 -97 -343 -159 -126 -62 -231 -113 -232 -113 -17 0 -232 312 -327 473
-58 99 -198 375 -249 492 -105 240 -206 576 -264 880 -25 135 -53 345 -61 470
-2 44 -7 86 -9 93 -3 7 4 16 15 20 24 9 1619 6 1628 -3z m4815 5 c18 0 19 -9
13 -162 -4 -90 -8 -181 -10 -203 -3 -22 -7 -78 -11 -125 -3 -47 -8 -98 -10
-115 -3 -16 -7 -53 -9 -81 -4 -46 -21 -178 -31 -244 -13 -86 -19 -126 -20
-130 -1 -3 -5 -27 -10 -55 -4 -27 -9 -59 -11 -70 -2 -11 -7 -33 -9 -50 -3 -16
-15 -73 -26 -125 -11 -52 -22 -102 -24 -111 -23 -109 -100 -397 -109 -406 -2
-2 -50 7 -107 21 -119 29 -276 62 -334 71 -45 6 -78 12 -115 20 -25 5 -272 42
-340 50 -224 28 -453 46 -765 60 -38 1 -72 3 -75 4 -3 1 -5 371 -5 824 l0 822
90 5 c64 4 1697 4 1918 0z m1926 0 l123 0 -6 -92 c-7 -110 -20 -223 -41 -365
-21 -141 -64 -334 -125 -558 -21 -77 -103 -305 -155 -431 -130 -310 -331 -662
-532 -928 l-50 -65 -59 33 c-138 76 -175 95 -299 153 -71 33 -177 80 -235 103
-58 23 -118 48 -135 55 -16 7 -90 34 -162 58 -73 25 -137 48 -142 51 -6 4 -1
34 10 74 56 193 130 515 169 737 5 33 12 69 14 81 2 12 7 45 11 75 3 30 8 61
10 69 2 8 6 40 10 71 3 31 7 66 10 77 2 12 6 49 10 84 3 35 8 81 10 103 15
129 30 359 35 530 l3 80 61 5 c34 3 349 4 701 3 352 -1 696 -3 764 -3z"/>
<path d="M4630 15084 c-30 -13 -68 -29 -83 -35 -40 -16 -349 -171 -425 -213
-312 -176 -565 -357 -712 -513 -240 -252 -393 -565 -454 -928 -23 -136 -38
-355 -26 -375 7 -11 67 -9 138 5 11 2 35 6 53 9 59 9 231 63 320 101 308 129
642 406 790 656 94 159 211 439 288 689 23 74 46 149 51 165 15 48 81 306 86
334 3 14 11 50 19 79 7 28 12 52 12 52 -1 -1 -27 -12 -57 -26z"/>
<path d="M14515 15057 c2 -7 22 -86 44 -177 88 -356 176 -634 278 -870 31 -70
114 -233 133 -260 11 -16 20 -33 20 -38 0 -6 3 -12 8 -14 4 -1 27 -29 51 -62
49 -65 177 -197 261 -267 158 -133 390 -261 588 -328 107 -35 297 -74 344 -69
l32 3 0 60 c-2 140 -25 326 -54 437 -7 23 -14 54 -17 67 -9 51 -68 210 -111
301 -185 389 -460 646 -1027 960 -173 96 -415 214 -532 260 -16 7 -21 6 -18
-3z"/>
<path d="M2160 14523 c-36 -60 -175 -351 -215 -449 -21 -49 -43 -102 -51 -119
-23 -50 -92 -253 -128 -375 -42 -142 -63 -241 -75 -345 -13 -111 -6 -365 13
-452 9 -40 18 -87 21 -105 19 -107 118 -346 217 -521 39 -69 158 -229 174
-234 28 -9 199 196 286 342 90 151 177 375 202 518 3 15 7 35 10 45 14 47 30
216 30 312 0 235 -65 490 -237 930 -54 140 -212 490 -221 490 -2 0 -14 -17
-26 -37z"/>
<path d="M16975 14443 c-138 -290 -248 -565 -310 -770 -20 -64 -37 -118 -39
-122 -8 -13 -56 -239 -62 -296 -13 -106 -6 -324 12 -410 3 -11 9 -42 14 -70
23 -134 92 -330 165 -473 76 -146 217 -336 306 -409 l25 -21 53 68 c196 257
323 560 369 875 11 80 7 363 -7 445 -33 196 -119 471 -227 728 -67 160 -240
519 -255 528 -4 2 -24 -31 -44 -73z"/>
<path d="M7809 12996 c-79 -28 -151 -103 -175 -183 -18 -59 -18 -169 1 -255 7
-37 52 -169 99 -295 137 -365 165 -468 171 -629 7 -162 -42 -274 -148 -341
-68 -43 -130 -59 -297 -78 -30 -3 -66 -8 -80 -10 -14 -2 -54 -7 -90 -10 -36
-3 -87 -10 -115 -15 -27 -5 -62 -12 -76 -14 -55 -9 -216 -56 -278 -82 -86 -34
-220 -102 -250 -125 l-24 -19 49 -1 c111 -2 232 -26 314 -64 l35 -15 -45 5
c-25 3 -65 8 -90 12 -87 15 -320 8 -400 -11 -249 -61 -446 -239 -495 -448 -17
-73 -14 -238 5 -308 7 -25 14 -52 15 -60 16 -75 76 -187 147 -278 l50 -62 -26
-63 c-37 -89 -56 -166 -76 -297 -19 -123 -20 -334 -5 -740 6 -138 4 -211 -4
-249 -6 -30 -43 -120 -80 -200 -38 -81 -78 -170 -90 -198 -62 -156 -63 -157
-111 -323 -16 -51 -38 -96 -71 -141 -27 -37 -49 -69 -49 -73 0 -4 -11 -23 -25
-44 -33 -50 -92 -197 -112 -280 -18 -76 -26 -294 -13 -362 19 -101 19 -133 -1
-184 -26 -69 -24 -114 7 -172 30 -56 33 -98 10 -142 -24 -47 -19 -56 17 -31
120 84 141 182 77 359 -34 91 -35 100 -34 230 1 172 34 291 107 388 l25 33 36
-55 c77 -116 113 -248 111 -401 -3 -148 -13 -201 -110 -600 -55 -226 -72 -345
-81 -555 -7 -165 4 -245 39 -278 41 -38 127 -51 397 -57 91 -2 197 -7 236 -10
69 -6 72 -5 92 20 48 61 47 273 -3 420 l-23 70 33 27 c33 28 127 147 164 208
34 56 204 405 252 517 26 62 50 104 60 106 35 9 100 -2 136 -24 146 -88 332
-334 488 -648 47 -92 59 -137 70 -241 3 -36 8 -76 10 -90 2 -14 7 -47 10 -74
7 -65 29 -107 86 -171 l49 -52 92 22 c209 51 447 130 588 196 109 51 110 52
99 100 -21 92 -163 258 -311 362 -52 37 -58 45 -58 76 0 20 -5 63 -12 96 -6
34 -12 170 -13 310 -1 138 -5 268 -9 290 -54 306 -78 358 -220 467 -45 34 -83
65 -86 68 -3 3 -40 31 -83 64 -52 39 -79 67 -83 85 -3 14 -8 33 -11 41 -26 79
-20 280 11 381 18 58 57 149 64 149 3 0 95 -29 206 -64 375 -121 435 -129 607
-85 171 44 346 136 433 227 35 37 37 85 7 155 -47 109 -170 266 -225 287 -39
15 -111 12 -152 -5 -20 -8 -58 -32 -85 -54 l-50 -40 -52 16 c-120 35 -287 107
-411 177 -85 49 -186 117 -186 126 0 4 24 16 53 25 125 41 396 165 552 253 61
34 245 158 300 201 65 52 204 192 251 253 118 152 181 356 144 460 -16 43 -76
88 -180 134 -104 46 -180 51 -247 16 -72 -37 -125 -129 -123 -212 1 -25 1 -54
1 -65 0 -32 -62 -78 -228 -166 -250 -132 -397 -174 -621 -174 l-133 0 -36 40
c-20 22 -47 52 -60 66 l-24 26 43 28 c62 41 179 164 231 242 47 71 109 190
122 233 22 76 93 242 121 288 45 70 117 137 176 164 26 12 48 25 48 29 0 3
-18 11 -40 17 -40 10 -87 9 -163 -3 l-42 -7 52 47 c92 82 200 230 257 350 140
298 156 573 49 835 -15 36 -30 70 -34 75 -4 6 -75 143 -157 305 -153 302 -181
375 -167 446 6 37 44 64 89 64 35 0 40 27 21 102 -25 95 -41 125 -74 142 -36
19 -112 20 -162 2z"/>
<path d="M4130 12941 c-410 -144 -776 -318 -1010 -480 -36 -25 -67 -48 -70
-51 -3 -3 -27 -23 -55 -45 -313 -252 -552 -709 -591 -1131 -3 -38 -7 -73 -8
-79 -1 -11 143 -12 229 -2 343 40 714 221 999 487 138 129 317 419 446 725 23
55 50 118 60 140 24 53 115 298 141 377 36 113 38 118 31 117 -4 0 -81 -26
-172 -58z"/>
<path d="M14897 12954 c-2 -3 19 -73 48 -157 172 -499 406 -959 587 -1152 127
-136 332 -283 523 -375 109 -52 278 -112 365 -129 30 -6 66 -14 80 -16 72 -15
153 -23 225 -21 l80 1 -3 40 c-6 82 -43 264 -75 375 -99 334 -292 622 -553
830 -163 130 -430 279 -714 400 -30 12 -70 29 -87 37 -18 7 -63 25 -100 39
-38 13 -77 29 -88 34 -42 19 -284 98 -288 94z"/>
<path d="M1011 12348 c-13 -46 -25 -90 -26 -98 -2 -8 -18 -69 -35 -135 -33
-129 -33 -132 -49 -215 -16 -80 -18 -90 -26 -140 -4 -25 -9 -54 -11 -65 -2
-11 -6 -38 -9 -60 -3 -22 -8 -56 -10 -75 -19 -142 -25 -379 -12 -515 30 -320
213 -689 470 -945 143 -143 258 -237 277 -225 29 18 136 206 183 322 28 68 71
214 82 278 4 22 9 51 12 65 19 102 25 414 9 468 -3 10 -8 39 -11 66 -21 189
-170 500 -379 794 -84 119 -197 273 -211 288 -5 7 -57 70 -115 142 -58 72
-108 131 -111 131 -3 1 -16 -36 -28 -81z"/>
<path d="M18147 12374 c-214 -257 -317 -392 -440 -572 -215 -316 -333 -564
-362 -762 -22 -152 -27 -370 -11 -480 4 -25 9 -58 11 -75 22 -166 111 -401
210 -561 59 -95 66 -100 102 -77 15 9 30 20 33 23 3 3 27 23 55 45 167 134
365 378 463 570 43 84 82 175 75 175 -3 0 -1 6 5 13 19 23 64 210 76 320 12
103 14 360 3 437 -3 19 -8 60 -12 90 -3 30 -11 84 -16 120 -6 36 -12 76 -14
90 -2 14 -16 81 -30 150 -15 69 -28 132 -30 140 -2 8 -8 35 -15 60 -7 25 -14
54 -16 65 -2 11 -19 72 -38 134 -31 109 -34 114 -49 95z"/>
<path d="M12990 11083 c-8 -3 -43 -19 -78 -36 l-63 -30 -132 29 c-174 37 -369
40 -459 7 -50 -19 -163 -85 -178 -104 -3 -3 -26 -24 -52 -46 -42 -37 -53 -41
-120 -48 -40 -4 -82 -9 -93 -11 -11 -2 -42 -6 -70 -9 -27 -3 -70 -8 -95 -11
-25 -3 -48 -9 -51 -12 -19 -21 -89 -344 -89 -410 0 -68 40 -145 99 -188 73
-53 182 -89 489 -157 l53 -12 -38 -41 c-71 -77 -287 -307 -368 -391 l-80 -84
-115 -1 c-109 -1 -246 13 -300 31 -14 5 -45 15 -70 22 -64 18 -224 90 -300
135 -83 49 -154 115 -179 167 -11 23 -44 94 -74 158 l-54 115 -62 28 c-141 63
-329 43 -389 -41 -43 -61 -46 -130 -10 -242 50 -154 170 -324 374 -526 289
-287 590 -495 923 -637 l33 -14 -103 -53 c-129 -67 -274 -149 -449 -256 l-135
-81 -61 23 c-59 23 -62 25 -93 92 l-32 69 -92 30 c-214 72 -280 81 -330 48
-43 -29 -57 -60 -57 -128 0 -115 37 -226 109 -321 147 -194 517 -392 751 -402
98 -5 129 2 370 79 91 29 175 56 186 60 18 6 25 -1 47 -46 26 -54 56 -148 63
-196 14 -104 -5 -260 -37 -298 -7 -9 -76 -64 -153 -123 -258 -198 -267 -214
-325 -596 -9 -59 -7 -347 2 -395 3 -14 8 -52 12 -85 10 -95 19 -161 31 -241 4
-25 0 -32 -21 -42 -38 -17 -78 -15 -143 9 -229 83 -288 94 -345 61 -74 -42
-157 -162 -157 -227 1 -74 58 -158 157 -229 116 -83 430 -204 720 -277 l132
-34 46 45 c54 53 91 126 100 195 3 28 7 61 10 75 2 14 7 57 10 95 12 138 49
224 170 400 133 191 353 377 440 370 11 -1 30 -2 42 -3 16 -2 30 -19 53 -64
18 -35 45 -82 61 -106 16 -24 29 -45 29 -48 0 -3 21 -33 47 -67 62 -81 183
-202 257 -256 l58 -43 -34 -37 c-227 -242 -233 -252 -232 -376 0 -96 26 -158
86 -210 96 -81 297 -59 478 53 95 59 132 93 294 272 166 182 184 207 201 269
19 74 16 93 -67 441 -27 114 -25 105 -43 190 -9 41 -19 93 -21 115 -3 22 -7
46 -10 54 -11 31 -4 221 10 291 17 82 66 193 115 260 33 46 33 39 15 200 -23
211 -113 489 -261 800 -105 222 -95 98 -97 1210 -2 536 -6 993 -10 1015 -4 22
-14 74 -22 115 -18 87 -33 249 -23 252 3 2 23 27 44 56 61 85 47 148 -56 269
-67 78 -131 107 -189 86z"/>
<path d="M3200 11036 c-490 -340 -851 -667 -1039 -945 -48 -71 -132 -234 -165
-321 -28 -76 -72 -237 -80 -295 -4 -22 -8 -51 -11 -65 -17 -92 -22 -334 -10
-447 8 -67 32 -194 39 -201 8 -8 183 56 266 97 124 61 250 140 329 206 281
235 465 487 550 755 29 93 49 165 57 205 3 18 26 131 39 195 3 14 12 72 20
130 8 58 17 119 19 135 3 17 7 62 11 100 3 39 8 84 10 100 3 28 10 136 20 307
2 37 0 69 -3 71 -4 2 -27 -10 -52 -27z"/>
<path d="M15945 10948 c12 -206 16 -275 20 -303 2 -16 7 -61 10 -100 4 -38 8
-83 10 -100 68 -502 140 -753 274 -960 111 -171 242 -320 391 -445 141 -117
363 -241 529 -295 86 -29 99 -27 102 15 0 8 2 24 5 35 2 11 6 43 10 70 3 28 7
61 10 75 5 34 6 338 1 348 -3 4 -8 38 -12 77 -4 38 -8 72 -10 75 -2 3 -6 21
-9 40 -9 60 -55 210 -91 297 -105 253 -274 471 -577 746 -150 136 -489 397
-635 488 l-33 21 5 -84z"/>
<path d="M245 10088 c2 -35 7 -101 10 -148 3 -47 8 -98 9 -115 2 -16 7 -60 10
-97 4 -37 8 -75 10 -85 4 -20 16 -103 21 -143 20 -147 83 -407 136 -560 139
-398 431 -711 849 -913 126 -61 287 -120 306 -113 6 2 14 15 17 28 46 208 51
247 51 413 1 189 -18 313 -73 486 -93 290 -211 471 -441 677 -99 89 -299 247
-381 302 -257 172 -411 270 -487 309 l-42 22 5 -63z"/>
<path d="M18817 10030 c-509 -311 -872 -607 -1029 -839 -74 -110 -191 -388
-212 -506 -3 -16 -10 -52 -16 -80 -19 -91 -22 -119 -25 -265 -1 -85 3 -182 11
-235 15 -100 42 -215 55 -229 19 -21 359 120 468 193 14 10 55 37 91 61 246
164 449 407 563 675 31 72 99 283 111 345 3 14 16 77 29 140 14 63 27 140 31
170 4 30 11 82 16 115 5 33 12 85 15 115 3 30 8 69 10 85 2 17 7 68 10 115 3
47 8 113 10 147 3 34 2 64 -3 66 -4 2 -64 -31 -135 -73z"/>
<path d="M3088 9080 c-419 -419 -690 -797 -794 -1107 -82 -246 -99 -523 -48
-789 15 -80 65 -255 89 -309 7 -16 19 -44 26 -62 l13 -32 80 42 c232 120 459
331 619 573 144 220 219 412 247 637 11 93 15 428 5 542 -12 151 -26 299 -30
329 -3 17 -12 78 -20 136 -8 58 -19 125 -23 150 l-9 45 -155 -155z"/>
<path d="M15956 9180 c-20 -55 -63 -401 -82 -650 -7 -89 -7 -435 0 -490 4 -25
9 -65 12 -90 46 -359 313 -780 653 -1034 113 -84 257 -168 280 -164 32 6 118
272 145 448 52 342 -4 678 -161 969 -61 114 -205 323 -307 448 -8 10 -31 38
-52 63 -144 176 -481 520 -488 500z"/>
<path d="M11 7942 c21 -56 181 -364 238 -460 33 -57 61 -105 61 -107 0 -14
218 -326 240 -345 3 -3 17 -21 30 -40 13 -19 73 -85 134 -145 241 -240 510
-371 901 -440 90 -16 288 -23 429 -15 l58 4 -6 60 c-5 58 -8 79 -22 151 -14
69 -79 246 -125 338 -91 183 -172 293 -336 454 -173 170 -316 252 -612 349
-212 70 -540 150 -731 179 -25 4 -95 15 -156 24 l-112 17 9 -24z"/>
<path d="M19180 7927 c-3 -3 -25 -8 -50 -12 -156 -21 -462 -79 -565 -106 -22
-6 -47 -12 -55 -14 -43 -8 -158 -40 -260 -72 -323 -100 -492 -195 -680 -383
-208 -207 -341 -427 -419 -690 -31 -108 -35 -126 -50 -230 -7 -58 -7 -61 16
-66 34 -9 265 -10 359 -1 98 8 229 31 304 52 30 8 65 17 76 20 93 21 304 122
423 203 96 65 282 243 365 349 85 109 215 304 296 443 99 170 252 477 248 496
-2 9 -5 14 -8 11z"/>
<path d="M3517 7118 c-59 -79 -110 -147 -115 -153 -54 -70 -256 -388 -314
-493 -146 -269 -197 -403 -253 -658 -11 -48 -15 -345 -5 -404 22 -146 30 -177
85 -328 24 -67 72 -160 128 -244 l50 -76 54 24 c114 50 273 178 372 298 148
182 279 499 322 781 11 73 14 296 5 375 -22 188 -28 230 -50 350 -8 47 -18 97
-20 112 -9 56 -83 362 -95 398 -5 14 -17 55 -27 93 -9 37 -20 67 -24 67 -3 0
-55 -64 -113 -142z"/>
<path d="M15552 7183 c-5 -21 -30 -117 -55 -213 -47 -181 -58 -230 -87 -390
-6 -30 -12 -64 -14 -75 -2 -11 -7 -40 -11 -65 -4 -25 -9 -52 -10 -60 -1 -8 -6
-46 -10 -85 -4 -38 -9 -83 -11 -100 -7 -60 -7 -291 0 -345 36 -263 168 -603
296 -764 62 -78 135 -158 179 -196 57 -49 203 -142 249 -158 28 -10 31 -8 62
36 54 77 136 241 168 337 28 83 35 112 61 250 15 76 6 376 -13 465 -34 153
-91 307 -177 480 -49 96 -104 199 -124 228 -19 30 -35 56 -35 59 0 6 -205 316
-226 342 -7 9 -54 72 -106 140 -112 149 -114 151 -120 151 -3 0 -10 -17 -16
-37z"/>
<path d="M362 6160 c78 -129 334 -483 403 -556 5 -6 35 -39 65 -74 336 -390
635 -572 1060 -646 178 -30 557 -21 656 17 12 4 24 6 27 3 2 -3 16 1 30 7 23
10 26 16 21 47 -11 66 -55 187 -108 297 -100 205 -272 416 -451 554 -44 34
-85 66 -92 71 -34 27 -198 114 -263 139 -72 28 -287 85 -360 95 -19 3 -57 10
-85 15 -27 5 -77 12 -110 16 -33 4 -71 8 -84 10 -12 2 -60 7 -105 10 -44 4
-91 8 -103 10 -42 7 -268 18 -395 19 l-127 2 21 -36z"/>
<path d="M18677 6154 c-1 -1 -72 -5 -157 -8 -85 -4 -166 -8 -180 -11 -14 -2
-61 -6 -105 -9 -44 -3 -89 -8 -100 -10 -11 -2 -46 -7 -79 -11 -32 -3 -68 -8
-80 -10 -11 -2 -37 -6 -56 -9 -30 -4 -145 -27 -215 -41 -40 -9 -181 -53 -233
-74 -81 -32 -129 -58 -227 -124 -307 -205 -533 -496 -640 -827 -38 -118 -42
-146 -22 -147 6 -1 46 -8 87 -16 106 -22 165 -28 320 -31 355 -9 651 70 929
248 263 169 664 626 918 1046 l22 35 -90 0 c-50 0 -91 -1 -92 -1z"/>
<path d="M4383 5888 c-290 -584 -424 -1019 -417 -1353 3 -105 12 -196 25 -254
6 -25 13 -59 16 -75 17 -104 108 -302 202 -443 60 -90 179 -223 199 -223 14 0
99 65 158 121 172 162 296 419 350 719 2 14 6 34 9 45 7 36 19 198 19 275 0
73 -12 218 -19 229 -2 4 -6 24 -9 46 -16 103 -114 417 -175 560 -5 11 -28 67
-52 125 -23 58 -71 165 -106 239 -35 73 -63 136 -63 140 0 3 -8 16 -18 29 -18
23 -18 22 -119 -180z"/>
<path d="M14671 5977 c-134 -279 -234 -523 -304 -742 -48 -151 -49 -155 -73
-260 -47 -211 -50 -391 -10 -640 54 -334 240 -660 462 -809 l51 -35 56 59
c135 144 244 325 305 505 32 94 33 98 58 234 16 88 21 290 10 376 -3 28 -9 70
-12 95 -3 25 -8 53 -10 62 -3 10 -7 30 -10 45 -21 123 -123 418 -234 678 -54
127 -229 482 -244 494 -8 6 -22 -13 -45 -62z"/>
<path d="M5349 4960 c-1 -5 -2 -13 -3 -17 -1 -5 -6 -44 -10 -88 -5 -44 -10
-93 -12 -110 -26 -248 -26 -791 1 -979 17 -118 21 -142 45 -233 88 -339 292
-631 566 -815 100 -67 255 -148 283 -148 26 0 104 134 145 250 44 122 67 281
62 434 -3 72 -7 145 -10 161 -48 294 -134 521 -271 715 -67 94 -216 279 -276
342 -99 105 -266 272 -331 333 -192 180 -187 176 -189 155z"/>
<path d="M13815 4904 c-121 -104 -377 -356 -503 -494 -158 -175 -301 -372
-365 -502 -41 -83 -92 -210 -102 -256 -2 -9 -15 -62 -29 -117 -33 -137 -38
-169 -41 -330 -4 -159 17 -303 61 -427 43 -120 119 -248 147 -248 31 0 212 95
301 159 138 98 273 239 362 379 106 165 196 406 219 592 4 30 9 64 11 75 25
126 25 767 0 969 -3 23 -8 68 -11 101 -8 91 -12 115 -17 120 -2 2 -17 -7 -33
-21z"/>
<path d="M2117 4564 c-2 -2 -41 -6 -87 -9 -47 -3 -158 -15 -247 -26 -173 -20
-172 -20 -333 -47 l-104 -17 154 -156 c85 -85 196 -191 245 -234 50 -44 92
-82 95 -85 12 -13 195 -155 228 -178 222 -152 292 -192 417 -242 90 -36 193
-68 245 -76 19 -3 42 -7 50 -10 55 -19 339 -32 435 -20 17 2 57 7 90 11 33 4
98 16 145 27 47 11 95 22 107 24 32 6 224 74 255 90 l27 14 -21 47 c-126 289
-412 579 -725 736 -112 57 -269 115 -328 122 -11 1 -34 5 -50 9 -17 4 -48 9
-70 12 -40 6 -523 13 -528 8z"/>
<path d="M16658 4525 c-2 -1 -37 -6 -78 -9 -109 -10 -198 -31 -308 -72 -368
-138 -679 -405 -853 -734 -65 -122 -64 -117 -21 -139 109 -55 406 -131 572
-147 60 -6 282 -5 335 1 256 29 486 117 725 277 102 68 287 207 336 253 6 5
45 39 85 75 98 86 389 375 389 387 0 8 -148 37 -250 49 -25 3 -52 7 -60 9 -8
2 -42 7 -75 10 -33 3 -73 8 -90 10 -16 2 -57 6 -90 9 -33 3 -89 9 -125 12 -64
6 -486 14 -492 9z"/>
<path d="M6690 3664 c0 -7 100 -223 115 -249 7 -11 39 -72 73 -135 395 -758
748 -1094 1270 -1211 74 -17 136 -22 262 -24 198 -3 265 6 274 38 8 31 0 191
-13 256 -33 166 -135 385 -237 511 -108 133 -186 212 -303 310 -132 110 -314
207 -506 271 -33 11 -69 24 -80 29 -82 38 -529 153 -760 195 -90 17 -95 17
-95 9z"/>
<path d="M12360 3605 c-166 -34 -387 -88 -525 -129 -104 -31 -167 -52 -358
-122 -125 -45 -327 -162 -423 -244 -91 -78 -254 -253 -312 -336 -72 -100 -151
-256 -182 -355 -32 -104 -42 -166 -46 -282 -4 -127 -9 -122 128 -132 224 -16
409 9 608 82 387 143 660 420 998 1013 89 157 262 504 262 526 0 7 -35 2 -150
-21z"/>
<path d="M3957 3254 c-1 -1 -24 -5 -52 -8 -51 -7 -104 -15 -140 -23 -11 -2
-31 -6 -45 -9 -14 -3 -32 -7 -40 -9 -8 -2 -28 -7 -45 -10 -137 -23 -495 -133
-745 -226 -58 -22 -108 -43 -112 -47 -5 -5 47 -46 114 -93 411 -286 819 -491
1111 -558 122 -28 196 -36 357 -35 245 2 485 62 735 184 137 67 265 146 265
164 0 31 -192 242 -300 329 -118 97 -319 206 -482 262 -171 59 -310 83 -476
82 -78 0 -143 -1 -145 -3z"/>
<path d="M14949 3215 c-2 -1 -24 -6 -48 -9 -170 -23 -446 -124 -596 -218 -104
-66 -233 -169 -307 -247 -94 -99 -161 -188 -155 -205 7 -18 174 -116 292 -172
185 -86 350 -135 545 -161 108 -15 421 -6 451 13 4 2 24 6 45 9 22 4 48 9 59
13 11 3 22 7 25 7 143 34 396 147 645 288 221 126 532 334 518 348 -20 19
-426 160 -598 207 -220 61 -422 105 -555 121 -72 8 -314 13 -321 6z"/>
<path d="M9591 2333 c-117 -29 -236 -123 -293 -229 -125 -231 -34 -471 224
-597 112 -54 136 -59 226 -42 212 41 369 217 378 427 6 140 -52 255 -179 351
-113 86 -244 119 -356 90z"/>
<path d="M5968 2255 c-2 -2 -46 -6 -98 -9 -113 -8 -184 -24 -305 -66 -77 -27
-287 -121 -335 -149 -8 -5 -46 -26 -85 -46 -38 -21 -77 -43 -85 -50 -8 -6 -42
-27 -75 -45 -80 -44 -350 -223 -455 -301 l-84 -62 50 -19 c175 -68 539 -180
659 -204 11 -2 63 -13 115 -23 288 -61 559 -72 765 -32 329 64 645 244 918
525 l98 101 -33 28 c-175 149 -456 279 -698 322 -52 9 -142 19 -200 21 -58 3
-115 6 -127 8 -13 2 -24 2 -25 1z"/>
<path d="M12940 2194 c-193 -29 -379 -93 -545 -186 -106 -60 -235 -154 -235
-173 0 -7 39 -53 88 -103 283 -292 611 -473 966 -531 84 -14 149 -17 266 -15
85 2 164 5 175 7 62 11 105 17 145 22 75 10 265 53 419 95 189 51 532 167 531
180 -1 6 -115 87 -276 194 -137 92 -128 86 -254 162 -52 31 -111 67 -130 79
-19 12 -109 58 -200 103 -180 88 -331 143 -455 165 -103 19 -371 19 -495 1z"/>
<path d="M7947 1624 c-1 -1 -33 -5 -72 -8 -255 -20 -412 -76 -705 -254 -195
-119 -526 -360 -666 -487 -6 -5 -37 -32 -68 -59 -31 -27 -55 -50 -53 -52 9
-10 457 -117 537 -129 14 -2 50 -8 80 -14 76 -14 108 -20 160 -26 25 -3 55 -7
67 -9 47 -9 253 -20 366 -19 428 3 822 182 1152 525 77 80 160 179 189 226 10
16 -4 27 -109 90 -113 67 -303 146 -405 168 -161 34 -256 46 -388 48 -46 1
-84 1 -85 0z"/>
<path d="M11137 1584 c-1 -1 -45 -4 -97 -8 -192 -14 -395 -70 -573 -160 -101
-50 -206 -115 -207 -127 0 -14 108 -146 192 -234 234 -245 525 -420 813 -488
271 -65 623 -52 1072 38 126 25 356 82 442 108 l43 13 -96 83 c-400 342 -827
619 -1093 710 -103 35 -268 59 -441 64 -30 1 -54 1 -55 1z"/>
</g>
</svg>
