<?xml version="1.0" standalone="no"?>
<!DOCTYPE svg PUBLIC "-//W3C//DTD SVG 20010904//EN"
 "http://www.w3.org/TR/2001/REC-SVG-20010904/DTD/svg10.dtd">
<svg version="1.0" xmlns="http://www.w3.org/2000/svg"
 width="700.000000pt" height="700.000000pt" viewBox="0 0 700.000000 700.000000"
 preserveAspectRatio="xMidYMid meet">
<metadata>
Created by potrace 1.11, written by Peter Selinger 2001-2013
</metadata>
<g transform="translate(0.000000,700.000000) scale(0.100000,-0.100000)"
fill="#000000" stroke="none">
<path d="M3478 6715 c-2 -1 -48 -5 -103 -9 -87 -5 -132 -11 -230 -30 -166 -33
-380 -121 -533 -220 -372 -240 -638 -622 -723 -1039 -34 -167 -43 -350 -26
-529 15 -167 102 -438 189 -596 33 -60 134 -210 169 -251 l20 -25 52 19 c29
10 59 24 67 31 22 19 137 70 185 82 42 11 84 18 175 27 93 10 96 34 22 230
-50 135 -60 232 -31 291 9 17 14 39 12 50 -2 14 -13 167 -15 224 -2 37 -11 36
357 36 l355 0 0 -293 0 -293 -57 -1 c-32 -1 -69 -2 -83 -4 -14 -1 -59 -5 -100
-9 -41 -4 -76 -9 -78 -11 -2 -2 7 -31 20 -64 l23 -62 90 7 c50 4 110 7 135 8
l45 1 3 -357 2 -356 -29 -64 c-16 -34 -28 -64 -27 -66 6 -5 246 -5 252 0 3 3
-8 33 -25 67 l-31 60 0 360 0 359 63 -3 c99 -6 210 -15 237 -21 14 -2 41 -6
60 -9 71 -9 210 -40 210 -47 0 -15 -71 -169 -111 -240 -23 -40 -61 -99 -85
-130 -42 -56 -43 -57 -25 -80 10 -13 26 -38 35 -57 l18 -33 29 33 c84 97 187
273 253 432 17 43 27 44 98 16 38 -15 83 -22 158 -25 137 -6 127 -6 186 2 38
5 59 2 83 -10 38 -20 38 -20 98 74 108 169 205 408 228 561 4 24 8 46 10 49
18 29 26 348 12 468 -57 485 -340 930 -762 1198 -83 52 -264 136 -360 167
-117 37 -277 68 -385 73 -52 3 -103 6 -112 8 -9 2 -18 3 -20 1z m-55 -447 c-1
-167 -2 -326 -3 -355 l0 -52 -72 4 c-146 9 -248 21 -353 42 -44 9 -95 18 -112
20 -18 3 -33 8 -33 10 0 14 83 197 111 244 110 188 248 321 384 370 87 32 80
57 78 -283z m188 291 c165 -52 308 -190 428 -413 30 -55 91 -193 91 -205 0 -6
-125 -34 -200 -45 -90 -14 -185 -24 -297 -31 l-73 -4 0 354 c0 195 4 355 9
355 4 0 23 -5 42 -11z m549 -141 c127 -66 270 -163 354 -239 64 -59 67 -64 50
-77 -27 -21 -129 -67 -221 -101 l-81 -30 -27 67 c-47 111 -95 203 -151 287
-53 80 -67 98 -127 162 l-31 33 70 -27 c38 -14 112 -48 164 -75z m-1120 89 c0
-2 -19 -24 -41 -48 -84 -89 -241 -359 -265 -453 -4 -16 -13 -26 -25 -26 -22 0
-136 45 -236 92 l-73 35 36 37 c130 134 338 267 524 337 85 32 80 30 80 26z
m-635 -551 c50 -24 129 -58 178 -77 96 -36 96 -35 73 -115 -43 -145 -74 -370
-86 -609 0 -7 -99 -10 -291 -10 l-291 0 6 60 c20 202 65 362 153 540 49 99
148 254 163 255 3 0 46 -20 95 -44z m2328 -39 c141 -210 231 -460 253 -697 l6
-75 -291 0 -291 0 -1 40 c-4 118 -20 267 -40 375 -6 30 -13 68 -16 84 -2 17
-13 63 -24 105 -10 41 -19 80 -19 86 0 7 39 26 88 44 48 17 125 51 172 75 47
24 90 44 96 45 6 0 36 -36 67 -82z m-1796 -137 c60 -11 131 -23 158 -26 28 -3
53 -8 56 -10 3 -2 60 -6 125 -9 65 -4 125 -8 132 -10 9 -3 12 -71 12 -292 l0
-288 -355 0 c-235 0 -355 3 -356 10 -6 78 17 305 47 450 29 142 48 206 61 201
7 -3 61 -15 120 -26z m1258 -42 c15 -61 16 -64 39 -183 20 -105 37 -263 40
-375 l1 -35 -355 0 -355 0 -3 293 -2 292 67 1 c96 1 153 6 273 25 153 23 150
23 210 37 30 8 58 11 63 7 4 -3 14 -31 22 -62z m-1624 -768 c1 -19 2 -46 3
-60 2 -14 6 -63 10 -110 10 -125 49 -340 80 -443 l14 -48 -26 -11 c-15 -5 -55
-21 -89 -34 -34 -13 -105 -45 -158 -71 l-96 -47 -24 29 c-39 48 -128 204 -168
293 -41 91 -101 289 -111 367 -4 28 -9 77 -12 110 l-6 61 291 0 291 0 1 -36z
m1701 -40 c-6 -157 -47 -416 -89 -561 l-8 -26 -85 17 c-92 20 -115 23 -235 39
-92 12 -179 20 -247 20 l-48 1 0 293 0 293 357 -1 358 0 -3 -75z m714 10 c-15
-184 -77 -395 -164 -560 -45 -85 -141 -230 -152 -230 -5 0 -53 22 -108 49 -54
27 -134 62 -178 77 l-79 27 22 91 c19 77 43 199 58 296 11 70 22 198 24 271
l1 45 291 0 291 0 -6 -66z"/>
<path d="M1613 5386 c-221 -116 -331 -209 -396 -334 -56 -107 -74 -175 -82
-299 l-2 -43 46 6 c144 19 328 137 406 259 43 67 85 168 123 295 35 118 47
180 35 180 -4 0 -63 -29 -130 -64z"/>
<path d="M5230 5426 c0 -20 39 -164 66 -246 49 -146 99 -233 177 -307 101 -96
259 -173 354 -173 22 0 23 3 18 53 -8 92 -14 121 -35 184 -38 115 -109 213
-212 292 -29 23 -57 45 -63 49 -28 21 -212 120 -277 149 -22 10 -28 9 -28 -1z"/>
<path d="M821 5160 c-54 -113 -105 -257 -117 -330 -26 -158 25 -358 122 -475
l25 -30 35 40 c53 60 53 61 89 138 53 116 70 228 52 343 -10 70 -83 271 -138
382 l-18 37 -50 -105z"/>
<path d="M6060 5145 c-105 -240 -130 -373 -100 -523 21 -103 86 -230 146 -285
31 -29 33 -28 81 48 84 135 116 295 88 445 -16 90 -136 387 -163 404 -5 3 -28
-35 -52 -89z"/>
<path d="M1560 4689 c-124 -42 -273 -113 -357 -170 -130 -89 -231 -257 -250
-416 l-6 -56 49 7 c87 11 108 16 174 41 160 61 270 171 354 357 38 84 100 248
94 252 -1 2 -28 -5 -58 -15z"/>
<path d="M2826 4685 c-47 -47 -46 -102 3 -229 67 -174 80 -266 44 -315 -31
-42 -64 -54 -183 -67 -82 -9 -167 -32 -224 -62 l-51 -26 55 -8 c30 -5 58 -12
63 -17 5 -5 -9 -5 -30 -1 -124 22 -251 -31 -300 -125 -26 -48 -21 -144 11
-209 15 -30 32 -59 40 -65 11 -9 9 -21 -7 -68 -18 -51 -20 -81 -19 -243 l1
-185 -40 -86 c-21 -48 -46 -111 -55 -140 -9 -30 -22 -61 -29 -69 -7 -8 -26
-40 -41 -70 -26 -50 -28 -66 -30 -168 -1 -62 -4 -116 -8 -119 -3 -3 1 -20 8
-38 9 -21 10 -37 4 -48 -12 -23 5 -22 26 2 23 25 27 69 10 103 -21 41 -17 145
7 198 l20 45 25 -40 c13 -22 25 -47 26 -55 8 -74 2 -136 -24 -242 -16 -68 -31
-166 -34 -218 -8 -122 -1 -131 87 -136 35 -1 87 -4 115 -5 27 -1 56 1 62 5 13
8 15 119 3 151 -6 15 0 29 23 57 30 35 115 196 131 246 5 16 14 22 35 22 68 0
212 -208 226 -327 8 -70 16 -93 41 -115 18 -17 24 -16 119 13 95 30 174 64
174 75 0 20 -38 69 -85 112 l-56 49 -3 134 c-5 202 -18 236 -120 310 -25 17
-48 40 -52 51 -11 34 -5 125 9 161 l15 35 94 -30 c51 -16 112 -30 135 -30 54
0 127 25 178 61 33 23 40 33 38 60 -1 34 -40 92 -78 117 -22 15 -27 14 -70 -7
l-45 -23 -65 27 c-35 15 -86 40 -112 56 -47 29 -47 30 -23 39 84 33 120 48
160 70 171 94 272 201 285 302 10 81 -146 138 -184 68 -6 -13 -13 -36 -15 -51
-4 -36 -17 -48 -101 -90 -75 -37 -101 -45 -182 -52 -45 -4 -57 -1 -80 19 l-26
23 42 38 c49 44 81 96 112 180 24 67 40 89 83 116 25 15 27 19 13 25 -10 3
-28 4 -42 2 -24 -5 -23 -3 11 35 79 87 121 231 99 338 -6 30 -39 107 -74 172
-56 106 -83 187 -62 187 4 0 15 6 25 13 17 12 17 16 2 50 -13 33 -19 37 -50
37 -24 0 -43 -8 -60 -25z"/>
<path d="M5360 4689 c0 -31 123 -314 163 -376 66 -104 193 -202 315 -242 80
-27 181 -39 192 -22 12 20 -25 158 -66 239 -48 98 -148 199 -256 260 -101 57
-348 157 -348 141z"/>
<path d="M446 4434 c-70 -279 -70 -448 1 -587 37 -74 94 -147 155 -200 61 -54
60 -54 109 48 77 164 68 375 -23 507 -10 14 -18 29 -18 33 0 19 -187 265 -201
265 -3 0 -14 -30 -23 -66z"/>
<path d="M4667 4023 c-23 -12 -37 -12 -81 -2 -85 19 -155 8 -209 -31 -33 -23
-65 -36 -113 -44 l-67 -11 -17 -61 c-34 -125 -10 -156 143 -193 l67 -16 -86
-93 -87 -93 -70 6 c-77 7 -162 35 -219 73 -26 16 -46 43 -65 84 -32 69 -60 88
-123 84 -174 -13 -28 -269 260 -454 36 -23 80 -48 98 -54 17 -7 32 -14 32 -18
-1 -13 -235 -137 -252 -132 -10 2 -25 17 -33 33 -11 21 -29 32 -69 45 -91 29
-125 4 -107 -76 15 -66 46 -103 136 -159 94 -59 169 -69 272 -36 43 14 83 25
90 25 17 0 35 -63 36 -123 0 -49 -2 -53 -43 -87 -100 -81 -109 -93 -125 -156
-8 -33 -16 -85 -17 -115 -1 -54 9 -180 18 -211 7 -25 -23 -27 -85 -6 -71 24
-85 23 -115 -7 -69 -69 -30 -131 119 -190 39 -15 100 -36 137 -45 66 -18 67
-18 86 4 23 25 29 42 37 116 8 61 22 93 72 163 39 54 117 117 143 117 10 0 34
-26 59 -64 23 -36 62 -83 88 -106 l46 -41 -35 -37 c-68 -71 -77 -125 -29 -173
27 -26 34 -29 73 -23 66 10 115 40 185 112 89 92 100 120 78 207 -49 198 -51
279 -11 358 28 53 28 82 1 188 -16 60 -30 98 -76 197 l-29 62 -1 348 c-1 211
-6 374 -13 417 -11 64 -10 73 9 107 l20 37 -30 37 c-38 47 -63 56 -98 37z"/>
<path d="M1186 3985 c-247 -185 -363 -324 -401 -486 -15 -65 -20 -202 -9 -257
6 -27 8 -29 34 -22 69 20 184 91 240 149 99 102 145 200 175 374 14 85 31 288
24 286 -2 0 -30 -20 -63 -44z"/>
<path d="M5734 3923 c22 -290 63 -418 181 -551 61 -69 185 -150 256 -167 23
-6 27 -3 33 21 11 43 8 184 -5 244 -36 169 -146 309 -381 483 -43 31 -81 57
-84 57 -3 0 -3 -39 0 -87z"/>
<path d="M194 3613 c13 -172 48 -322 97 -414 55 -103 166 -202 282 -253 98
-43 94 -44 107 21 7 32 10 92 7 138 -11 179 -87 310 -257 440 -60 46 -226 155
-236 155 -4 0 -4 -39 0 -87z"/>
<path d="M6658 3604 c-272 -180 -370 -332 -364 -561 2 -48 6 -101 11 -116 6
-25 11 -28 34 -22 77 18 217 106 278 174 93 104 152 281 169 506 3 39 7 75 9
82 9 29 -17 17 -137 -63z"/>
<path d="M1170 3303 c-268 -278 -335 -470 -254 -730 9 -29 22 -53 29 -53 26 0
133 79 183 136 61 68 132 202 141 266 13 94 4 328 -17 426 l-7 33 -75 -78z"/>
<path d="M5738 3354 c-3 -5 -9 -29 -13 -54 -3 -25 -9 -58 -12 -75 -12 -71 -9
-281 4 -335 28 -105 94 -214 177 -290 49 -45 137 -101 147 -94 5 3 18 37 30
76 23 74 30 196 16 278 -11 66 -66 174 -135 265 -78 103 -207 241 -214 229z"/>
<path d="M139 2853 c60 -121 157 -261 222 -324 99 -94 238 -149 389 -154 41
-1 80 0 86 2 19 7 -4 101 -46 189 -70 145 -178 237 -346 293 -60 20 -296 71
-328 71 -13 0 -9 -15 23 -77z"/>
<path d="M6795 2904 c-38 -7 -83 -15 -100 -18 -64 -11 -213 -59 -263 -84 -152
-77 -267 -236 -289 -400 l-5 -43 84 2 c201 4 352 81 476 242 68 88 196 320
174 316 -4 -1 -38 -8 -77 -15z"/>
<path d="M1349 2639 c-104 -128 -206 -311 -234 -420 -33 -126 -15 -264 49
-373 28 -48 34 -49 86 -17 44 26 115 108 142 163 51 104 61 148 64 264 2 108
-18 245 -59 383 l-12 44 -36 -44z"/>
<path d="M5575 2593 c-62 -245 -69 -411 -22 -534 27 -73 66 -139 106 -183 29
-32 109 -86 126 -86 19 0 74 119 88 190 36 180 -22 346 -216 613 -27 37 -52
67 -57 67 -4 0 -15 -30 -25 -67z"/>
<path d="M230 2303 c0 -35 183 -263 277 -344 80 -70 253 -127 373 -123 54 1
143 13 149 20 7 7 -28 100 -57 151 -35 63 -114 146 -184 193 -68 45 -143 70
-258 86 -121 16 -300 26 -300 17z"/>
<path d="M6557 2284 c-1 -1 -33 -5 -71 -9 -82 -8 -202 -37 -248 -61 -120 -61
-245 -209 -277 -328 -12 -45 -12 -45 20 -52 96 -23 269 -7 364 33 120 51 246
174 376 365 l41 59 -101 -2 c-56 -2 -103 -4 -104 -5z"/>
<path d="M1627 2151 c-58 -122 -103 -245 -115 -316 -14 -83 -7 -207 17 -270
33 -88 106 -195 133 -195 17 0 100 94 123 140 45 90 58 150 58 260 0 117 -19
189 -96 370 -63 149 -55 148 -120 11z"/>
<path d="M5260 2183 c-117 -247 -147 -405 -108 -563 25 -101 54 -156 117 -220
l54 -54 29 34 c45 53 72 99 98 165 20 50 24 78 24 170 0 98 -4 121 -33 210
-32 95 -134 325 -145 325 -2 0 -19 -30 -36 -67z"/>
<path d="M1989 1858 c0 -7 -3 -22 -5 -33 -11 -49 -10 -320 1 -392 28 -168 104
-287 239 -372 59 -37 77 -38 95 -9 50 81 63 218 32 340 -23 91 -49 144 -104
218 -44 59 -237 260 -249 260 -5 0 -8 -6 -9 -12z"/>
<path d="M4886 1763 c-204 -202 -266 -318 -272 -508 -2 -93 13 -164 49 -219
14 -21 21 -24 42 -16 134 51 254 207 289 375 17 85 13 441 -5 460 -3 3 -49
-39 -103 -92z"/>
<path d="M769 1725 c-2 -1 -31 -6 -64 -10 -33 -3 -75 -9 -93 -13 l-33 -7 44
-45 c41 -42 114 -110 168 -155 57 -48 159 -107 219 -127 121 -39 289 -31 423
21 l28 11 -28 51 c-24 44 -112 143 -154 174 -42 31 -98 60 -157 81 -57 20 -85
23 -208 23 -78 0 -143 -2 -145 -4z"/>
<path d="M5920 1708 c-79 -12 -194 -73 -264 -139 -64 -60 -132 -160 -123 -182
8 -20 176 -59 258 -60 138 -1 247 40 380 141 108 82 232 204 217 213 -6 4 -39
11 -72 15 -34 4 -72 9 -86 11 -58 8 -259 9 -310 1z"/>
<path d="M2473 1391 c6 -14 31 -64 56 -111 164 -314 327 -441 559 -437 l77 2
-2 64 c-3 130 -125 302 -268 377 -88 46 -248 97 -387 122 l-46 9 11 -26z"/>
<path d="M4355 1366 c-216 -55 -311 -103 -402 -199 -83 -88 -126 -169 -137
-262 -9 -71 0 -79 81 -78 241 1 403 135 572 471 42 84 48 102 34 102 -10 -1
-76 -16 -148 -34z"/>
<path d="M1358 1240 c-131 -33 -268 -79 -268 -90 0 -28 243 -168 375 -216 73
-26 244 -28 324 -4 82 26 201 87 201 104 0 28 -119 133 -192 169 -147 74 -258
83 -440 37z"/>
<path d="M5330 1244 c-99 -21 -202 -76 -277 -150 -36 -35 -63 -69 -61 -76 7
-19 115 -75 193 -100 73 -22 204 -29 275 -14 48 10 155 54 220 89 69 38 220
135 220 141 0 7 -166 65 -247 85 -152 39 -229 45 -323 25z"/>
<path d="M3461 933 c-19 -10 -48 -35 -64 -55 -62 -78 -31 -180 68 -227 40 -19
51 -20 90 -10 44 11 114 72 116 102 0 6 2 21 4 32 20 103 -120 206 -214 158z"/>
<path d="M2175 912 c-64 -6 -122 -25 -209 -69 -96 -48 -286 -169 -286 -182 0
-9 165 -63 270 -88 117 -27 267 -24 356 8 83 30 169 85 238 152 l49 48 -34 25
c-102 77 -254 119 -384 106z"/>
<path d="M4595 876 c-103 -33 -195 -85 -195 -111 0 -12 69 -79 120 -117 144
-104 336 -138 509 -88 17 5 35 9 39 10 27 4 69 16 150 42 l92 30 -42 32 c-78
60 -226 147 -310 183 -75 32 -93 36 -188 39 -87 2 -117 -2 -175 -20z"/>
<path d="M2768 668 c-99 -33 -423 -258 -402 -278 5 -4 38 -15 74 -23 63 -16
79 -19 185 -37 78 -14 263 -5 315 14 77 28 113 48 170 91 64 49 140 131 140
150 0 19 -84 63 -165 86 -91 25 -235 24 -317 -3z"/>
<path d="M3960 673 c-80 -14 -217 -73 -226 -98 -3 -8 0 -21 8 -28 7 -8 29 -31
49 -53 55 -60 113 -103 192 -139 101 -47 211 -61 337 -43 30 4 74 10 97 14 56
8 194 41 201 49 4 3 -7 17 -23 30 -153 127 -306 226 -389 251 -51 15 -198 25
-246 17z"/>
</g>
</svg>
