<?xml version="1.0" encoding="UTF-8" standalone="no"?>
<!DOCTYPE svg PUBLIC "-//W3C//DTD SVG 1.1//EN" "http://www.w3.org/Graphics/SVG/1.1/DTD/svg11.dtd">
<svg width="100%" height="100%" viewBox="0 0 300 100" version="1.1" xmlns="http://www.w3.org/2000/svg" xmlns:xlink="http://www.w3.org/1999/xlink" xml:space="preserve" xmlns:serif="http://www.serif.com/" style="fill-rule:evenodd;clip-rule:evenodd;stroke-linejoin:round;stroke-miterlimit:1.41421;">
    <g transform="matrix(0.405609,0,0,0.405609,150,-121.19)">
        <g id="warwick-un-society-logo-final-03--1-" serif:id="warwick-un-society-logo-final-03 (1)" transform="matrix(1,0,0,1,-591.667,-591.667)">
            <g transform="matrix(4.16667,0,0,4.16667,0,0)">
                <path d="M104.98,221.65L99.261,239.838L98.078,239.838L92.705,224.054C92.637,223.84 92.576,223.616 92.525,223.386C92.474,223.616 92.414,223.84 92.346,224.054L86.96,239.838L85.79,239.838L80.057,221.65L81.15,221.65C81.399,221.65 81.557,221.765 81.625,221.997L86.215,236.945C86.308,237.288 86.394,237.679 86.472,238.115C86.514,237.892 86.558,237.684 86.6,237.492C86.644,237.299 86.694,237.116 86.754,236.945L91.896,221.997C91.93,221.902 91.989,221.821 92.075,221.753C92.161,221.684 92.264,221.65 92.384,221.65L92.743,221.65C92.864,221.65 92.963,221.682 93.04,221.746C93.116,221.81 93.176,221.893 93.22,221.997L98.361,236.945C98.421,237.108 98.474,237.288 98.522,237.485C98.568,237.682 98.613,237.888 98.656,238.102C98.699,237.888 98.739,237.684 98.778,237.492C98.817,237.299 98.858,237.116 98.9,236.945L103.49,221.997C103.515,221.902 103.574,221.821 103.664,221.753C103.753,221.684 103.858,221.65 103.978,221.65L104.98,221.65Z" style="fill:rgb(35,31,32);fill-rule:nonzero;"/>
                <path d="M117.128,233.231L113.426,224.041C113.297,223.741 113.173,223.381 113.053,222.961C113.002,223.166 112.946,223.361 112.886,223.546C112.826,223.73 112.761,223.899 112.693,224.054L108.992,233.231L117.128,233.231ZM121.15,239.838L120.135,239.838C120.015,239.838 119.917,239.806 119.839,239.741C119.762,239.678 119.702,239.594 119.66,239.491L117.526,234.207L108.592,234.207L106.46,239.491C106.424,239.585 106.365,239.667 106.279,239.735C106.193,239.804 106.09,239.838 105.971,239.838L104.968,239.838L112.411,221.65L113.709,221.65L121.15,239.838Z" style="fill:rgb(35,31,32);fill-rule:nonzero;"/>
                <path d="M128.644,230.635C129.45,230.635 130.17,230.538 130.81,230.346C131.448,230.152 131.988,229.876 132.429,229.515C132.871,229.156 133.207,228.723 133.438,228.218C133.669,227.712 133.785,227.142 133.785,226.508C133.785,225.215 133.363,224.255 132.519,223.63C131.675,223.004 130.442,222.691 128.824,222.691L125.495,222.691L125.495,230.635L128.644,230.635ZM136.715,239.838L135.585,239.838C135.439,239.838 135.317,239.814 135.218,239.766C135.119,239.72 135.027,239.632 134.941,239.504L129.106,232.126C129.037,232.031 128.966,231.95 128.894,231.882C128.822,231.812 128.74,231.759 128.649,231.72C128.56,231.682 128.453,231.654 128.328,231.637C128.205,231.62 128.052,231.611 127.873,231.611L125.495,231.611L125.495,239.838L124.17,239.838L124.17,221.65L128.824,221.65C130.914,221.65 132.48,222.055 133.521,222.865C134.563,223.674 135.084,224.864 135.084,226.431C135.084,227.125 134.962,227.76 134.723,228.334C134.484,228.907 134.138,229.411 133.688,229.844C133.239,230.276 132.695,230.63 132.056,230.904C131.419,231.179 130.7,231.363 129.903,231.458C130.108,231.586 130.294,231.757 130.457,231.972L136.715,239.838Z" style="fill:rgb(35,31,32);fill-rule:nonzero;"/>
                <path d="M162.487,221.65L156.766,239.838L155.584,239.838L150.211,224.054C150.143,223.84 150.084,223.616 150.032,223.386C149.98,223.616 149.919,223.84 149.851,224.054L144.465,239.838L143.296,239.838L137.564,221.65L138.656,221.65C138.905,221.65 139.063,221.765 139.131,221.997L143.72,236.945C143.815,237.288 143.901,237.679 143.978,238.115C144.02,237.892 144.063,237.684 144.106,237.492C144.149,237.299 144.2,237.116 144.26,236.945L149.402,221.997C149.436,221.902 149.496,221.821 149.582,221.753C149.667,221.684 149.77,221.65 149.89,221.65L150.251,221.65C150.37,221.65 150.468,221.682 150.545,221.746C150.623,221.81 150.683,221.893 150.725,221.997L155.867,236.945C155.926,237.108 155.981,237.288 156.028,237.485C156.075,237.682 156.12,237.888 156.163,238.102C156.206,237.888 156.247,237.684 156.285,237.492C156.324,237.299 156.364,237.116 156.407,236.945L160.996,221.997C161.021,221.902 161.079,221.821 161.169,221.753C161.259,221.684 161.364,221.65 161.484,221.65L162.487,221.65Z" style="fill:rgb(35,31,32);fill-rule:nonzero;"/>
                <rect x="165.79" y="221.65" width="1.324" height="18.188" style="fill:rgb(35,31,32);fill-rule:nonzero;"/>
                <path d="M185.61,236.778C185.696,236.778 185.768,236.808 185.828,236.868L186.342,237.421C185.964,237.824 185.555,238.185 185.114,238.507C184.673,238.828 184.189,239.102 183.662,239.33C183.135,239.556 182.556,239.732 181.927,239.856C181.297,239.981 180.605,240.043 179.851,240.043C178.592,240.043 177.437,239.823 176.387,239.381C175.337,238.939 174.435,238.314 173.681,237.505C172.927,236.694 172.343,235.716 171.926,234.567C171.511,233.42 171.304,232.143 171.304,230.737C171.304,229.357 171.517,228.098 171.946,226.958C172.375,225.818 172.974,224.84 173.746,224.021C174.517,223.203 175.442,222.568 176.522,222.119C177.602,221.669 178.793,221.445 180.095,221.445C181.337,221.445 182.439,221.637 183.398,222.023C184.358,222.408 185.232,222.953 186.021,223.655L185.622,224.233C185.553,224.337 185.447,224.388 185.301,224.388C185.198,224.388 185.031,224.293 184.799,224.104C184.569,223.917 184.248,223.709 183.836,223.481C183.424,223.254 182.913,223.047 182.299,222.858C181.687,222.67 180.952,222.575 180.095,222.575C178.999,222.575 177.995,222.764 177.081,223.141C176.169,223.517 175.384,224.057 174.729,224.761C174.073,225.464 173.561,226.32 173.194,227.331C172.825,228.343 172.64,229.478 172.64,230.737C172.64,232.022 172.827,233.172 173.2,234.182C173.572,235.193 174.085,236.048 174.736,236.746C175.386,237.445 176.156,237.979 177.044,238.352C177.929,238.726 178.887,238.912 179.916,238.912C180.567,238.912 181.147,238.869 181.658,238.783C182.167,238.698 182.635,238.569 183.064,238.397C183.493,238.226 183.892,238.016 184.259,237.768C184.628,237.519 184.993,237.228 185.353,236.894C185.395,236.859 185.438,236.832 185.481,236.81C185.524,236.789 185.566,236.778 185.61,236.778Z" style="fill:rgb(35,31,32);fill-rule:nonzero;"/>
                <path d="M191.187,230.043L192.267,230.043C192.43,230.043 192.571,230.037 192.692,230.023C192.811,230.011 192.92,229.988 193.019,229.953C193.118,229.92 193.208,229.87 193.29,229.806C193.371,229.741 193.459,229.662 193.553,229.568L200.892,222.023C201.021,221.877 201.147,221.779 201.271,221.726C201.395,221.676 201.543,221.65 201.714,221.65L202.768,221.65L194.825,229.812C194.663,229.983 194.519,230.116 194.394,230.21C194.27,230.305 194.131,230.382 193.977,230.441C194.157,230.493 194.32,230.572 194.465,230.68C194.61,230.786 194.756,230.926 194.902,231.098L203.269,239.838L202.203,239.838C201.98,239.838 201.819,239.809 201.72,239.754C201.623,239.698 201.526,239.61 201.432,239.491L193.746,231.625C193.651,231.53 193.564,231.449 193.482,231.38C193.401,231.311 193.311,231.254 193.212,231.206C193.114,231.159 192.998,231.125 192.865,231.103C192.732,231.082 192.562,231.071 192.357,231.071L191.187,231.071L191.187,239.838L189.864,239.838L189.864,221.65L191.187,221.65L191.187,230.043Z" style="fill:rgb(35,31,32);fill-rule:nonzero;"/>
                <path d="M80.387,258.526C80.387,259.607 80.224,260.599 79.898,261.509C79.572,262.417 79.089,263.205 78.445,263.873C77.803,264.542 77.002,265.064 76.042,265.442C75.083,265.818 73.977,266.007 72.726,266.007C71.458,266.007 70.344,265.818 69.384,265.442C68.424,265.064 67.623,264.542 66.981,263.873C66.338,263.205 65.853,262.417 65.528,261.509C65.202,260.599 65.04,259.607 65.04,258.526L65.04,247.344L69.05,247.344L69.05,258.372C69.05,258.939 69.14,259.46 69.32,259.94C69.5,260.421 69.753,260.836 70.078,261.186C70.403,261.538 70.794,261.813 71.247,262.01C71.701,262.206 72.194,262.305 72.726,262.305C73.257,262.305 73.745,262.206 74.192,262.01C74.637,261.813 75.023,261.538 75.348,261.186C75.674,260.836 75.927,260.421 76.107,259.94C76.286,259.46 76.376,258.939 76.376,258.372L76.376,247.344L80.387,247.344L80.387,258.526Z" style="fill:rgb(35,31,32);fill-rule:nonzero;"/>
                <path d="M84.088,247.344L89.538,247.344L97.275,259.991L97.328,259.991L97.328,247.344L101.338,247.344L101.338,265.544L96.094,265.544L88.15,252.589L88.1,252.589L88.1,265.544L84.088,265.544L84.088,247.344Z" style="fill:rgb(35,31,32);fill-rule:nonzero;"/>
                <path d="M121.646,251.791C121.321,251.38 120.879,251.075 120.322,250.879C119.765,250.681 119.238,250.583 118.742,250.583C118.45,250.583 118.15,250.618 117.841,250.685C117.533,250.754 117.241,250.862 116.967,251.007C116.693,251.153 116.47,251.346 116.298,251.585C116.128,251.826 116.042,252.117 116.042,252.459C116.042,253.009 116.248,253.428 116.659,253.72C117.07,254.011 117.588,254.259 118.214,254.465C118.838,254.67 119.512,254.876 120.232,255.082C120.952,255.287 121.625,255.579 122.251,255.955C122.875,256.333 123.394,256.839 123.804,257.473C124.216,258.107 124.421,258.956 124.421,260.017C124.421,261.029 124.233,261.911 123.857,262.665C123.479,263.419 122.969,264.045 122.328,264.542C121.684,265.039 120.939,265.407 120.09,265.646C119.243,265.887 118.346,266.007 117.404,266.007C116.221,266.007 115.125,265.827 114.114,265.467C113.102,265.107 112.16,264.524 111.287,263.72L114.139,260.583C114.551,261.132 115.069,261.556 115.695,261.855C116.32,262.155 116.967,262.305 117.636,262.305C117.961,262.305 118.292,262.266 118.626,262.19C118.96,262.112 119.259,261.997 119.525,261.844C119.791,261.688 120.004,261.492 120.168,261.253C120.331,261.012 120.412,260.729 120.412,260.402C120.412,259.854 120.203,259.422 119.782,259.105C119.362,258.788 118.836,258.517 118.201,258.296C117.567,258.073 116.88,257.849 116.145,257.628C115.408,257.404 114.722,257.104 114.088,256.727C113.454,256.35 112.927,255.853 112.506,255.236C112.086,254.619 111.878,253.806 111.878,252.793C111.878,251.817 112.071,250.96 112.456,250.223C112.841,249.486 113.356,248.869 113.998,248.372C114.641,247.876 115.382,247.503 116.221,247.254C117.061,247.006 117.926,246.881 118.818,246.881C119.846,246.881 120.84,247.027 121.8,247.318C122.76,247.61 123.626,248.098 124.397,248.783L121.646,251.791Z" style="fill:rgb(35,31,32);fill-rule:nonzero;"/>
                <path d="M130.591,256.444C130.591,257.302 130.724,258.086 130.991,258.796C131.255,259.508 131.636,260.125 132.133,260.647C132.63,261.171 133.226,261.577 133.92,261.868C134.615,262.16 135.39,262.305 136.247,262.305C137.104,262.305 137.879,262.16 138.574,261.868C139.268,261.577 139.863,261.171 140.36,260.647C140.857,260.125 141.239,259.508 141.504,258.796C141.77,258.086 141.903,257.302 141.903,256.444C141.903,255.605 141.77,254.825 141.504,254.104C141.239,253.385 140.857,252.764 140.36,252.241C139.863,251.719 139.268,251.311 138.574,251.019C137.879,250.728 137.104,250.583 136.247,250.583C135.39,250.583 134.615,250.728 133.92,251.019C133.226,251.311 132.63,251.719 132.133,252.241C131.636,252.764 131.255,253.385 130.991,254.104C130.724,254.825 130.591,255.605 130.591,256.444ZM126.427,256.444C126.427,254.988 126.671,253.668 127.16,252.485C127.649,251.303 128.33,250.297 129.203,249.465C130.078,248.634 131.114,247.995 132.314,247.55C133.513,247.104 134.825,246.881 136.247,246.881C137.669,246.881 138.98,247.104 140.18,247.55C141.379,247.995 142.417,248.634 143.291,249.465C144.166,250.297 144.846,251.303 145.335,252.485C145.823,253.668 146.067,254.988 146.067,256.444C146.067,257.901 145.823,259.22 145.335,260.402C144.846,261.586 144.166,262.594 143.291,263.424C142.417,264.255 141.379,264.893 140.18,265.339C138.98,265.784 137.669,266.007 136.247,266.007C134.825,266.007 133.513,265.784 132.314,265.339C131.114,264.893 130.078,264.255 129.203,263.424C128.33,262.594 127.649,261.586 127.16,260.402C126.671,259.22 126.427,257.901 126.427,256.444Z" style="fill:rgb(35,31,32);fill-rule:nonzero;"/>
                <path d="M160.695,252.074C160.299,251.594 159.816,251.225 159.242,250.969C158.667,250.712 158.003,250.583 157.25,250.583C156.496,250.583 155.797,250.728 155.154,251.019C154.512,251.311 153.955,251.719 153.484,252.241C153.011,252.764 152.644,253.385 152.378,254.104C152.112,254.825 151.979,255.605 151.979,256.444C151.979,257.302 152.112,258.086 152.378,258.796C152.644,259.508 153.007,260.125 153.47,260.647C153.933,261.171 154.477,261.577 155.103,261.868C155.729,262.16 156.401,262.305 157.121,262.305C157.944,262.305 158.671,262.134 159.306,261.792C159.939,261.448 160.462,260.969 160.875,260.352L164.215,262.845C163.444,263.925 162.468,264.722 161.286,265.236C160.103,265.75 158.886,266.007 157.634,266.007C156.212,266.007 154.901,265.784 153.702,265.339C152.502,264.893 151.465,264.255 150.591,263.424C149.717,262.594 149.037,261.586 148.547,260.402C148.059,259.22 147.815,257.901 147.815,256.444C147.815,254.988 148.059,253.668 148.547,252.485C149.037,251.303 149.717,250.297 150.591,249.465C151.465,248.634 152.502,247.995 153.702,247.55C154.901,247.104 156.212,246.881 157.634,246.881C158.149,246.881 158.684,246.929 159.242,247.022C159.798,247.117 160.347,247.266 160.886,247.473C161.426,247.678 161.945,247.952 162.442,248.295C162.939,248.639 163.384,249.057 163.779,249.555L160.695,252.074Z" style="fill:rgb(35,31,32);fill-rule:nonzero;"/>
                <rect x="166.35" y="247.344" width="4.01" height="18.2" style="fill:rgb(35,31,32);fill-rule:nonzero;"/>
                <path d="M174.164,247.344L186.53,247.344L186.53,251.046L178.174,251.046L178.174,254.438L186.066,254.438L186.066,258.141L178.174,258.141L178.174,261.844L186.992,261.844L186.992,265.544L174.164,265.544L174.164,247.344Z" style="fill:rgb(35,31,32);fill-rule:nonzero;"/>
                <path d="M193.727,250.891L188.534,250.891L188.534,247.344L202.93,247.344L202.93,250.891L197.738,250.891L197.738,265.544L193.727,265.544L193.727,250.891Z" style="fill:rgb(35,31,32);fill-rule:nonzero;"/>
                <path d="M209.433,257.781L202.595,247.344L207.583,247.344L211.439,254.156L215.526,247.344L220.283,247.344L213.444,257.781L213.444,265.544L209.433,265.544L209.433,257.781Z" style="fill:rgb(35,31,32);fill-rule:nonzero;"/>
            </g>
        </g>
    </g>
</svg>
