<?xml version="1.0" encoding="UTF-8" standalone="no"?>
<!DOCTYPE svg PUBLIC "-//W3C//DTD SVG 1.1//EN" "http://www.w3.org/Graphics/SVG/1.1/DTD/svg11.dtd">
<svg width="100%" height="100%" viewBox="0 0 2700 500" version="1.1" xmlns="http://www.w3.org/2000/svg" xmlns:xlink="http://www.w3.org/1999/xlink" xml:space="preserve" xmlns:serif="http://www.serif.com/" style="fill-rule:evenodd;clip-rule:evenodd;stroke-linejoin:round;stroke-miterlimit:1.41421;">
    <g>
        <g transform="matrix(1,0,0,1,47.075,481.4)">
            <path d="M306.15,0L243.75,0L193.05,-300.3L191.75,-300.3L141.7,0L79.3,0L10.4,-462.8L80.6,-462.8L113.75,-169L115.05,-169L167.05,-462.8L217.75,-462.8L271.7,-161.85L273,-161.85L304.85,-462.8L375.05,-462.8L306.15,0Z" style="fill:white;fill-rule:nonzero;"/>
        </g>
        <g transform="matrix(1,0,0,1,413.025,481.4)">
            <path d="M132.6,-329.55L131.3,-329.55L98.8,-161.85L165.1,-161.85L132.6,-329.55ZM104.65,-462.8L159.9,-462.8L263.25,0L196.95,0L177.45,-99.45L87.1,-99.45L67.6,0L1.3,0L104.65,-462.8Z" style="fill:white;fill-rule:nonzero;"/>
            <path d="M362.05,-256.1L399.75,-256.1C411.45,-256.1 420.767,-257.725 427.7,-260.975C434.633,-264.225 439.942,-268.883 443.625,-274.95C447.308,-281.017 449.8,-288.492 451.1,-297.375C452.4,-306.258 453.05,-316.55 453.05,-328.25C453.05,-339.95 452.4,-350.242 451.1,-359.125C449.8,-368.008 447.092,-375.592 442.975,-381.875C438.858,-388.158 433.117,-392.817 425.75,-395.85C418.383,-398.883 408.633,-400.4 396.5,-400.4L362.05,-400.4L362.05,-256.1ZM295.75,-462.8L402.35,-462.8C480.35,-462.8 519.35,-417.517 519.35,-326.95C519.35,-300.083 515.125,-277.008 506.675,-257.725C498.225,-238.442 483.383,-222.95 462.15,-211.25L533.65,0L463.45,0L401.7,-197.6L362.05,-197.6L362.05,0L295.75,0L295.75,-462.8Z" style="fill:white;fill-rule:nonzero;"/>
            <path d="M572.65,-462.8L636.35,-462.8L721.5,-217.75L722.8,-217.75L807.3,-462.8L871.65,-462.8L871.65,0L805.35,0L805.35,-281.45L804.05,-281.45L738.4,-82.55L705.25,-82.55L640.25,-281.45L638.95,-281.45L638.95,0L572.65,0L572.65,-462.8Z" style="fill:white;fill-rule:nonzero;"/>
            <path d="M1148.55,-104C1148.55,-88.833 1145.73,-74.75 1140.1,-61.75C1134.47,-48.75 1126.78,-37.375 1117.03,-27.625C1107.28,-17.875 1095.9,-10.183 1082.9,-4.55C1069.9,1.083 1056.03,3.9 1041.3,3.9C1026.57,3.9 1012.7,1.083 999.7,-4.55C986.7,-10.183 975.325,-17.875 965.575,-27.625C955.825,-37.375 948.133,-48.75 942.5,-61.75C936.867,-74.75 934.05,-88.833 934.05,-104L934.05,-462.8L1000.35,-462.8L1000.35,-110.5C1000.35,-94.033 1004.25,-81.9 1012.05,-74.1C1019.85,-66.3 1029.6,-62.4 1041.3,-62.4C1053,-62.4 1062.75,-66.3 1070.55,-74.1C1078.35,-81.9 1082.25,-94.033 1082.25,-110.5L1082.25,-462.8L1148.55,-462.8L1148.55,-104Z" style="fill:white;fill-rule:nonzero;"/>
            <path d="M1208.35,-462.8L1272.05,-462.8L1372.15,-183.95L1373.45,-183.95L1373.45,-462.8L1439.75,-462.8L1439.75,0L1377.35,0L1275.95,-278.2L1274.65,-278.2L1274.65,0L1208.35,0L1208.35,-462.8Z" style="fill:white;fill-rule:nonzero;"/>
            <path d="M1681.55,-242.45L1595.1,-462.8L1665.3,-462.8L1715.35,-325.65L1766.05,-462.8L1836.25,-462.8L1747.85,-242.45L1843.4,0L1773.2,0L1715.35,-156L1658.15,0L1587.95,0L1681.55,-242.45Z" style="fill:white;fill-rule:nonzero;"/>
            <rect x="1875.25" y="-462.8" width="66.3" height="462.8" style="fill:white;fill-rule:nonzero;"/>
            <rect x="2007.85" y="-462.8" width="66.3" height="462.8" style="fill:white;fill-rule:nonzero;"/>
            <rect x="2140.45" y="-462.8" width="66.3" height="462.8" style="fill:white;fill-rule:nonzero;"/>
        </g>
    </g>
</svg>
