<?xml version="1.0" encoding="UTF-8" standalone="no"?>
<!DOCTYPE svg PUBLIC "-//W3C//DTD SVG 1.1//EN" "http://www.w3.org/Graphics/SVG/1.1/DTD/svg11.dtd">
<svg width="100%" height="100%" viewBox="0 0 2000 850" version="1.1" xmlns="http://www.w3.org/2000/svg" xmlns:xlink="http://www.w3.org/1999/xlink" xml:space="preserve" xmlns:serif="http://www.serif.com/" style="fill-rule:evenodd;clip-rule:evenodd;stroke-linejoin:round;stroke-miterlimit:1.41421;">
    <g transform="matrix(1.7346,0,0,1.7346,-310.522,-781.036)">
        <path d="M381.83,754.893L343.089,754.893L311.612,568.452L310.805,568.452L279.731,754.893L240.991,754.893L198.214,467.564L241.798,467.564L262.379,649.969L263.186,649.969L295.47,467.564L326.947,467.564L360.442,654.408L361.249,654.408L381.023,467.564L424.606,467.564L381.83,754.893Z" style="fill:white;fill-rule:nonzero;"/>
        <path d="M501.281,550.292L500.474,550.292L480.297,654.408L521.459,654.408L501.281,550.292ZM483.928,467.564L518.23,467.564L582.395,754.893L541.233,754.893L529.126,693.149L473.033,693.149L460.926,754.893L419.764,754.893L483.928,467.564Z" style="fill:white;fill-rule:nonzero;"/>
        <path d="M643.735,595.893L667.141,595.893C674.405,595.893 680.189,594.884 684.494,592.867C688.798,590.849 692.094,587.957 694.381,584.19C696.667,580.424 698.214,575.783 699.021,570.268C699.828,564.753 700.232,558.363 700.232,551.099C700.232,543.835 699.828,537.446 699.021,531.93C698.214,526.415 696.533,521.707 693.977,517.806C691.421,513.905 687.856,511.013 683.283,509.13C678.709,507.246 672.656,506.305 665.123,506.305L643.735,506.305L643.735,595.893ZM602.573,467.564L668.755,467.564C717.181,467.564 741.394,495.678 741.394,551.906C741.394,568.586 738.771,582.912 733.525,594.884C728.279,606.856 719.064,616.474 705.882,623.738L750.272,754.893L706.689,754.893L668.351,632.213L643.735,632.213L643.735,754.893L602.573,754.893L602.573,467.564Z" style="fill:white;fill-rule:nonzero;"/>
        <path d="M774.485,467.564L814.034,467.564L866.899,619.703L867.706,619.703L920.168,467.564L960.119,467.564L960.119,754.893L918.957,754.893L918.957,580.155L918.15,580.155L877.391,703.642L856.81,703.642L816.455,580.155L815.648,580.155L815.648,754.893L774.485,754.893L774.485,467.564Z" style="fill:white;fill-rule:nonzero;"/>
        <path d="M1132.03,690.324C1132.03,699.741 1130.28,708.484 1126.79,716.555C1123.29,724.626 1118.51,731.688 1112.46,737.742C1106.41,743.795 1099.34,748.57 1091.27,752.068C1083.2,755.565 1074.59,757.314 1065.45,757.314C1056.3,757.314 1047.69,755.565 1039.62,752.068C1031.55,748.57 1024.49,743.795 1018.43,737.742C1012.38,731.688 1007.6,724.626 1004.11,716.555C1000.61,708.484 998.86,699.741 998.86,690.324L998.86,467.564L1040.02,467.564L1040.02,686.289C1040.02,696.512 1042.44,704.045 1047.29,708.888C1052.13,713.73 1058.18,716.152 1065.45,716.152C1072.71,716.152 1078.76,713.73 1083.61,708.888C1088.45,704.045 1090.87,696.512 1090.87,686.289L1090.87,467.564L1132.03,467.564L1132.03,690.324Z" style="fill:white;fill-rule:nonzero;"/>
        <path d="M1169.16,467.564L1208.71,467.564L1270.85,640.687L1271.66,640.687L1271.66,467.564L1312.82,467.564L1312.82,754.893L1274.08,754.893L1211.13,582.173L1210.32,582.173L1210.32,754.893L1169.16,754.893L1169.16,467.564Z" style="fill:white;fill-rule:nonzero;"/>
    </g>
    <g transform="matrix(1.18831,0,0,1.18831,206.028,-101.03)">
        <path d="M228.874,725.426L228.874,575.634L217.513,575.634L217.513,644.85L139.461,644.85L139.461,575.634L128.1,575.634L128.1,725.426L139.461,725.426L139.461,654.948L217.513,654.948L217.513,725.426L228.874,725.426Z" style="fill:white;fill-rule:nonzero;"/>
        <path d="M284.415,588.888L284.415,575.634L271.161,575.634L271.161,588.888L284.415,588.888ZM283.152,725.426L283.152,624.022L272.423,624.022L272.423,725.426L283.152,725.426Z" style="fill:white;fill-rule:nonzero;"/>
        <path d="M396.759,731.107L396.759,624.022L386.03,624.022L386.03,637.065C381.542,631.175 376.843,627.318 371.934,625.494C367.025,623.671 361.695,622.759 355.945,622.759C350.615,622.759 345.812,623.566 341.534,625.179C337.256,626.792 333.785,628.931 331.12,631.595C325.93,636.785 322.459,643.272 320.706,651.056C318.953,658.84 318.076,666.729 318.076,674.724C318.076,682.719 318.953,690.608 320.706,698.392C322.459,706.176 325.93,712.663 331.12,717.853C333.785,720.517 337.256,722.656 341.534,724.269C345.812,725.882 350.615,726.689 355.945,726.689C361.695,726.689 367.025,725.777 371.934,723.954C376.843,722.13 381.542,718.273 386.03,712.383L386.03,730.476C386.03,735.525 385.434,740.188 384.241,744.466C383.049,748.744 381.191,752.461 378.666,755.616C376.142,758.772 372.951,761.227 369.094,762.98C365.237,764.733 360.644,765.61 355.314,765.61C352.088,765.61 349.283,765.364 346.898,764.873C344.514,764.382 342.34,763.681 340.377,762.769C338.413,761.858 336.52,760.701 334.696,759.298C332.873,757.896 330.979,756.283 329.016,754.459L321.863,761.612C324.528,763.997 327.052,766.03 329.437,767.713C331.821,769.396 334.311,770.799 336.905,771.921C339.5,773.043 342.27,773.85 345.215,774.34C348.161,774.831 351.527,775.077 355.314,775.077C361.906,775.077 367.761,773.99 372.881,771.816C378,769.642 382.348,766.591 385.925,762.664C389.501,758.737 392.201,754.074 394.024,748.674C395.848,743.274 396.759,737.418 396.759,731.107ZM386.03,674.724C386.03,680.054 385.714,685.243 385.083,690.292C384.452,695.342 383.119,699.865 381.086,703.862C379.052,707.859 376.142,711.085 372.355,713.54C368.568,715.994 363.589,717.221 357.418,717.221C351.246,717.221 346.267,715.994 342.48,713.54C338.694,711.085 335.783,707.859 333.75,703.862C331.716,699.865 330.383,695.342 329.752,690.292C329.121,685.243 328.806,680.054 328.806,674.724C328.806,669.535 329.121,664.38 329.752,659.261C330.383,654.142 331.716,649.583 333.75,645.586C335.783,641.589 338.694,638.363 342.48,635.908C346.267,633.454 351.246,632.227 357.418,632.227C363.589,632.227 368.568,633.454 372.355,635.908C376.142,638.363 379.052,641.589 381.086,645.586C383.119,649.583 384.452,654.142 385.083,659.261C385.714,664.38 386.03,669.535 386.03,674.724Z" style="fill:white;fill-rule:nonzero;"/>
        <path d="M515.626,725.426L515.626,660.628C515.626,648.847 512.295,639.59 505.633,632.858C498.97,626.126 489.819,622.759 478.178,622.759C465.835,622.759 455.877,627.177 448.303,636.014L448.303,575.634L437.574,575.634L437.574,725.426L448.303,725.426L448.303,662.522C448.303,652.844 450.793,645.376 455.772,640.116C460.751,634.856 467.799,632.227 476.915,632.227C486.032,632.227 492.975,634.821 497.743,640.011C502.512,645.2 504.896,652.704 504.896,662.522L504.896,725.426L515.626,725.426Z" style="fill:white;fill-rule:nonzero;"/>
        <path d="M699.501,685.181C699.501,679.141 698.344,673.628 696.029,668.643C693.715,663.657 690.524,659.478 686.457,656.105C684.914,654.843 683.301,653.685 681.618,652.631C679.935,651.576 678.077,650.663 676.043,649.891C674.009,649.118 671.66,648.451 668.995,647.889C666.33,647.327 663.245,646.765 659.738,646.204L643.539,643.676C639.331,642.973 635.229,641.813 631.231,640.198C627.234,638.583 623.903,636.652 621.238,634.406C616.049,630.052 613.454,623.52 613.454,614.811C613.454,605.258 616.505,597.708 622.606,592.16C628.707,586.612 637.227,583.839 648.167,583.839C652.655,583.839 656.653,584.189 660.159,584.89C663.665,585.592 666.821,586.538 669.626,587.731C672.431,588.923 675.026,590.36 677.41,592.043C679.795,593.727 682.179,595.62 684.564,597.724L691.927,590.36C685.475,584.779 678.988,580.718 672.466,578.18C665.945,575.641 658.055,574.371 648.798,574.371C634.352,574.371 622.991,578.053 614.716,585.416C606.441,592.78 602.304,602.773 602.304,615.396C602.304,627.177 606.231,636.364 614.085,642.956C620.537,648.566 629.443,652.213 640.804,653.896L658.266,656.631C661.351,657.052 663.946,657.508 666.05,657.999C668.154,658.489 670.012,659.015 671.625,659.576C673.238,660.137 674.675,660.839 675.938,661.68C677.2,662.522 678.533,663.504 679.935,664.626C685.405,669.535 688.14,676.547 688.14,685.664C688.14,695.482 684.704,703.091 677.831,708.491C670.959,713.89 661.562,716.59 649.64,716.59C645.152,716.59 641.049,716.31 637.332,715.749C633.616,715.188 630.074,714.206 626.708,712.803C623.342,711.401 620.081,709.578 616.925,707.333C613.77,705.089 610.509,702.284 607.142,698.918L599.148,706.913C602.514,710.279 605.985,713.224 609.562,715.749C613.138,718.273 616.925,720.342 620.923,721.955C624.92,723.568 629.198,724.76 633.756,725.532C638.314,726.303 643.399,726.689 649.009,726.689C664.717,726.689 677.06,722.966 686.036,715.522C695.013,708.077 699.501,697.964 699.501,685.181Z" style="fill:white;fill-rule:nonzero;"/>
        <path d="M804.482,711.12L797.119,704.388C795.015,706.772 792.946,708.806 790.912,710.489C788.879,712.172 786.845,713.505 784.811,714.486C782.777,715.468 780.638,716.17 778.394,716.59C776.15,717.011 773.696,717.221 771.031,717.221C765.281,717.221 760.126,716.099 755.568,713.855C751.01,711.611 747.188,708.245 744.102,703.757C741.577,700.11 739.789,696.078 738.737,691.66C737.685,687.242 737.159,681.597 737.159,674.724C737.159,667.852 737.685,662.206 738.737,657.788C739.789,653.37 741.577,649.338 744.102,645.691C747.188,641.203 751.01,637.837 755.568,635.593C760.126,633.349 765.281,632.227 771.031,632.227C776.361,632.227 780.954,633.173 784.811,635.067C788.668,636.96 792.771,640.291 797.119,645.06L804.482,638.328C801.677,635.382 799.012,632.893 796.487,630.859C793.963,628.825 791.403,627.213 788.808,626.02C786.214,624.828 783.479,623.987 780.603,623.496C777.728,623.005 774.537,622.759 771.031,622.759C764.158,622.759 757.952,623.952 752.412,626.336C746.872,628.72 742.173,632.157 738.316,636.645C734.459,641.133 731.514,646.603 729.48,653.055C727.447,659.506 726.43,666.729 726.43,674.724C726.43,682.719 727.447,689.942 729.48,696.394C731.514,702.845 734.459,708.315 738.316,712.803C742.173,717.292 746.872,720.728 752.412,723.112C757.952,725.497 764.158,726.689 771.031,726.689C774.537,726.689 777.728,726.443 780.603,725.952C783.479,725.461 786.214,724.62 788.808,723.428C791.403,722.236 793.963,720.623 796.487,718.589C799.012,716.555 801.677,714.066 804.482,711.12Z" style="fill:white;fill-rule:nonzero;"/>
        <path d="M914.092,725.426L914.092,660.628C914.092,648.847 910.761,639.59 904.098,632.858C897.436,626.126 888.285,622.759 876.643,622.759C864.301,622.759 854.343,627.177 846.769,636.014L846.769,575.634L836.039,575.634L836.039,725.426L846.769,725.426L846.769,662.522C846.769,652.844 849.258,645.376 854.238,640.116C859.217,634.856 866.264,632.227 875.381,632.227C884.498,632.227 891.44,634.821 896.209,640.011C900.978,645.2 903.362,652.704 903.362,662.522L903.362,725.426L914.092,725.426Z" style="fill:white;fill-rule:nonzero;"/>
        <path d="M1029.38,674.724C1029.38,667.431 1028.61,660.137 1027.07,652.844C1025.53,645.551 1022.09,639.239 1016.76,633.91C1013.11,630.263 1008.94,627.493 1004.24,625.6C999.542,623.706 994.318,622.759 988.567,622.759C977.207,622.759 967.809,626.476 960.376,633.91C955.046,639.239 951.61,645.551 950.067,652.844C948.524,660.137 947.753,667.431 947.753,674.724C947.753,682.017 948.524,689.311 950.067,696.604C951.61,703.897 955.046,710.209 960.376,715.538C967.809,722.972 977.207,726.689 988.567,726.689C994.318,726.689 999.542,725.742 1004.24,723.849C1008.94,721.955 1013.11,719.185 1016.76,715.538C1022.09,710.209 1025.53,703.897 1027.07,696.604C1028.61,689.311 1029.38,682.017 1029.38,674.724ZM1018.65,674.724C1018.65,677.669 1018.58,680.685 1018.44,683.771C1018.3,686.856 1017.92,689.907 1017.28,692.922C1016.65,695.938 1015.74,698.778 1014.55,701.443C1013.36,704.108 1011.71,706.492 1009.61,708.596C1006.8,711.401 1003.61,713.54 1000.03,715.012C996.457,716.485 992.635,717.221 988.567,717.221C980.292,717.221 973.279,714.346 967.529,708.596C965.425,706.492 963.777,704.108 962.585,701.443C961.393,698.778 960.481,695.938 959.85,692.922C959.219,689.907 958.833,686.856 958.693,683.771C958.553,680.685 958.482,677.669 958.482,674.724C958.482,671.779 958.553,668.763 958.693,665.678C958.833,662.592 959.219,659.541 959.85,656.526C960.481,653.51 961.393,650.67 962.585,648.005C963.777,645.341 965.425,642.956 967.529,640.852C973.279,635.102 980.292,632.227 988.567,632.227C992.635,632.227 996.457,632.963 1000.03,634.436C1003.61,635.908 1006.8,638.047 1009.61,640.852C1011.71,642.956 1013.36,645.341 1014.55,648.005C1015.74,650.67 1016.65,653.51 1017.28,656.526C1017.92,659.541 1018.3,662.592 1018.44,665.678C1018.58,668.763 1018.65,671.779 1018.65,674.724Z" style="fill:white;fill-rule:nonzero;"/>
        <path d="M1140.04,674.724C1140.04,667.431 1139.27,660.137 1137.73,652.844C1136.19,645.551 1132.75,639.239 1127.42,633.91C1123.77,630.263 1119.6,627.493 1114.9,625.6C1110.2,623.706 1104.98,622.759 1099.23,622.759C1087.87,622.759 1078.47,626.476 1071.04,633.91C1065.71,639.239 1062.27,645.551 1060.73,652.844C1059.19,660.137 1058.41,667.431 1058.41,674.724C1058.41,682.017 1059.19,689.311 1060.73,696.604C1062.27,703.897 1065.71,710.209 1071.04,715.538C1078.47,722.972 1087.87,726.689 1099.23,726.689C1104.98,726.689 1110.2,725.742 1114.9,723.849C1119.6,721.955 1123.77,719.185 1127.42,715.538C1132.75,710.209 1136.19,703.897 1137.73,696.604C1139.27,689.311 1140.04,682.017 1140.04,674.724ZM1129.31,674.724C1129.31,677.669 1129.24,680.685 1129.1,683.771C1128.96,686.856 1128.58,689.907 1127.95,692.922C1127.32,695.938 1126.4,698.778 1125.21,701.443C1124.02,704.108 1122.37,706.492 1120.27,708.596C1117.46,711.401 1114.27,713.54 1110.69,715.012C1107.12,716.485 1103.3,717.221 1099.23,717.221C1090.95,717.221 1083.94,714.346 1078.19,708.596C1076.09,706.492 1074.44,704.108 1073.25,701.443C1072.05,698.778 1071.14,695.938 1070.51,692.922C1069.88,689.907 1069.5,686.856 1069.35,683.771C1069.21,680.685 1069.14,677.669 1069.14,674.724C1069.14,671.779 1069.21,668.763 1069.35,665.678C1069.5,662.592 1069.88,659.541 1070.51,656.526C1071.14,653.51 1072.05,650.67 1073.25,648.005C1074.44,645.341 1076.09,642.956 1078.19,640.852C1083.94,635.102 1090.95,632.227 1099.23,632.227C1103.3,632.227 1107.12,632.963 1110.69,634.436C1114.27,635.908 1117.46,638.047 1120.27,640.852C1122.37,642.956 1124.02,645.341 1125.21,648.005C1126.4,650.67 1127.32,653.51 1127.95,656.526C1128.58,659.541 1128.96,662.592 1129.1,665.678C1129.24,668.763 1129.31,671.779 1129.31,674.724Z" style="fill:white;fill-rule:nonzero;"/>
        <path d="M1208.21,725.426L1208.21,715.959L1200.84,715.959C1194.81,715.959 1190.71,714.557 1188.54,711.751C1186.36,708.946 1185.28,704.669 1185.28,698.918L1185.28,575.634L1174.55,575.634L1174.55,699.128C1174.55,707.123 1176.55,713.505 1180.54,718.273C1184.54,723.042 1190.67,725.426 1198.95,725.426L1208.21,725.426Z" style="fill:white;fill-rule:nonzero;"/>
    </g>
</svg>
