<?xml version="1.0" encoding="UTF-8" standalone="no"?>
<svg
   xmlns:dc="http://purl.org/dc/elements/1.1/"
   xmlns:cc="http://creativecommons.org/ns#"
   xmlns:rdf="http://www.w3.org/1999/02/22-rdf-syntax-ns#"
   xmlns:svg="http://www.w3.org/2000/svg"
   xmlns="http://www.w3.org/2000/svg"
   viewBox="0 0 377.94666 377.94666"
   height="377.94666"
   width="377.94666"
   xml:space="preserve"
   id="svg2"
   version="1.1"><metadata
     id="metadata8"><rdf:RDF><cc:Work
         rdf:about=""><dc:format>image/svg+xml</dc:format><dc:type
           rdf:resource="http://purl.org/dc/dcmitype/StillImage" /></cc:Work></rdf:RDF></metadata><defs
     id="defs6"><clipPath
       id="clipPath20"
       clipPathUnits="userSpaceOnUse"><path
         id="path18"
         d="M 0,2834.65 V 0 h 2834.65 v 2834.65 z" /></clipPath></defs><g
     transform="matrix(1.3333333,0,0,-1.3333333,0,377.94667)"
     id="g10"><g
       transform="scale(0.1)"
       id="g12"><g
         id="g14"><g
           clip-path="url(#clipPath20)"
           id="g16"><path
             id="path22"
             style="fill:#231f20;fill-opacity:1;fill-rule:evenodd;stroke:none"
             d="m 1426.19,997.961 c -42.08,0.309 -74.38,-67.313 -4.87,-90.473 31.21,-0.578 49.4,23.184 49.85,45.703 0.43,21.168 -19.36,42.438 -44.98,44.77" /><path
             id="path24"
             style="fill:#231f20;fill-opacity:1;fill-rule:evenodd;stroke:none"
             d="m 861.422,2143.28 c 35.586,40.97 57.312,149.58 57.312,149.58 0,0 -7.988,-3.27 -20.3,-9.04 -2.461,-1.16 -5.09,-2.42 -7.871,-3.77 -1.387,-0.67 -2.813,-1.37 -4.266,-2.09 -5.832,-2.87 -12.168,-6.12 -18.793,-9.68 -3.309,-1.78 -6.688,-3.64 -10.117,-5.57 -3.418,-1.93 -6.875,-3.93 -10.352,-6 -3.476,-2.07 -6.949,-4.2 -10.418,-6.39 -5.195,-3.29 -10.351,-6.72 -15.371,-10.26 -3.351,-2.36 -6.633,-4.77 -9.816,-7.23 -3.192,-2.45 -6.297,-4.95 -9.266,-7.49 -2.98,-2.54 -5.84,-5.12 -8.547,-7.73 -59.629,-57.46 -53.211,-137.98 -53.211,-137.98 0,0 65.946,0.23 121.016,63.65" /><path
             id="path26"
             style="fill:#231f20;fill-opacity:1;fill-rule:evenodd;stroke:none"
             d="m 711.852,2089.62 c 2.343,52.54 -46.848,148.27 -46.848,148.27 0,0 -42.098,-74.66 -49.844,-132.43 -10.644,-79.57 43,-136.99 43,-136.99 0,0 50.098,39.81 53.692,121.15" /><path
             id="path28"
             style="fill:#231f20;fill-opacity:1;fill-rule:evenodd;stroke:none"
             d="m 686.43,1890.2 c 0,0 27.91,-2.37 63.988,11.81 8.59,3.37 17.633,7.69 26.891,13.2 11.093,6.6 22.484,14.93 33.683,25.42 8.438,7.91 16.524,18.97 23.992,31.43 1.067,1.78 2.129,3.6 3.164,5.43 5.215,9.16 10.098,18.91 14.563,28.6 3.574,7.75 6.875,15.46 9.875,22.82 11.219,27.57 18.043,50.01 18.043,50.01 v 0 c 0,0 -9.852,-2.95 -24.656,-8.29 -1.348,-0.49 -2.735,-0.99 -4.16,-1.52 -9.961,-3.67 -21.766,-8.29 -34.133,-13.72 -22.957,-10.08 -47.879,-22.94 -66.676,-37.66 -3.988,-3.11 -7.719,-6.34 -11.223,-9.64 -3.508,-3.31 -6.777,-6.71 -9.836,-10.15 -6.121,-6.9 -11.375,-14.02 -15.898,-21.17 -27.117,-42.89 -27.617,-86.57 -27.617,-86.57 v 0" /><path
             id="path30"
             style="fill:#231f20;fill-opacity:1;fill-rule:evenodd;stroke:none"
             d="m 527.438,1883.3 c 1.804,-19.71 7.441,-37.22 14.871,-52.41 0.929,-1.89 1.886,-3.76 2.871,-5.59 3.925,-7.3 8.242,-14.01 12.687,-20.13 2.227,-3.05 4.481,-5.96 6.738,-8.71 2.254,-2.76 4.524,-5.35 6.747,-7.8 16.718,-18.34 31.757,-27.97 31.757,-27.97 0,0 5.996,6.89 12.696,19.66 6.699,12.78 14.113,31.43 16.953,54.99 1.894,15.7 1.769,33.57 -1.961,53.33 -1.504,7.97 -4.543,16.69 -8.606,25.72 -1.628,3.62 -3.418,7.29 -5.332,10.97 -5.761,11.07 -12.683,22.35 -19.89,33.1 -22.813,34.06 -48.418,62.82 -48.418,62.82 0,0 -21.653,-66.34 -21.809,-121.36 -0.019,-5.69 0.196,-11.26 0.696,-16.62" /><path
             id="path32"
             style="fill:#231f20;fill-opacity:1;fill-rule:evenodd;stroke:none"
             d="m 639.156,1648.44 c 0,0 38.946,7.67 76.024,44.51 1.488,1.47 2.961,2.99 4.433,4.56 2.95,3.14 5.879,6.47 8.762,10 1.445,1.76 2.879,3.58 4.297,5.45 2.832,3.74 5.613,7.69 8.32,11.85 1.356,2.09 2.684,4.22 4.004,6.42 27.149,45.36 28.856,152.09 28.856,152.09 0,0 -73.262,-46.92 -107.743,-94.47 -7.421,-10.23 -13.183,-20.69 -17.629,-31.06 -8.875,-20.74 -12.449,-41.11 -13.445,-58.56 -0.097,-1.74 -0.168,-3.45 -0.215,-5.13 -0.058,-1.69 -0.078,-3.34 -0.09,-4.95 -0.097,-24.24 4.426,-40.71 4.426,-40.71" /><path
             id="path34"
             style="fill:#231f20;fill-opacity:1;fill-rule:evenodd;stroke:none"
             d="m 605.563,1562.07 c 0,0 6.003,15.07 6.984,38.83 0.055,1.49 0.105,3.01 0.125,4.57 0.019,1.54 0.008,3.13 -0.012,4.75 -0.058,3.22 -0.215,6.58 -0.488,10.05 -0.418,5.2 -1.102,10.64 -2.137,16.3 -0.351,1.89 -0.734,3.8 -1.164,5.73 -3.387,15.44 -9.422,32.26 -19.461,49.67 -2.433,4.22 -5.48,8.51 -9.004,12.82 -1.172,1.44 -2.394,2.88 -3.672,4.32 -8.918,10.07 -20.175,20.16 -32.05,29.64 -6.778,5.41 -13.77,10.62 -20.625,15.5 -3.438,2.45 -6.836,4.81 -10.168,7.08 -24.969,17.01 -45.957,28.66 -45.957,28.66 0,0 1.836,-84.92 25.703,-137.2 32.832,-71.97 111.926,-90.72 111.926,-90.72" /><path
             id="path36"
             style="fill:#231f20;fill-opacity:1;fill-rule:evenodd;stroke:none"
             d="m 668.363,1511.35 c 0.196,-3.7 0.52,-7.3 0.93,-10.77 3.73,-31.28 15.027,-52.53 15.027,-52.53 0,0 15.395,6.05 34.297,21.44 7.094,5.78 14.668,12.87 22.121,21.43 4.973,5.72 9.883,12.1 14.551,19.18 6.992,10.64 13.445,22.88 18.719,36.89 18.183,48.29 -1.531,149.9 -1.531,149.9 0,0 -7.59,-6.93 -18.567,-18.13 -2.988,-3.06 -6.23,-6.43 -9.648,-10.06 -1.133,-1.21 -2.293,-2.46 -3.465,-3.72 -3.504,-3.81 -7.16,-7.86 -10.871,-12.1 -6.172,-7.07 -12.5,-14.68 -18.582,-22.56 -8.504,-11.04 -16.543,-22.62 -23.008,-34.08 -1.848,-3.27 -3.574,-6.53 -5.137,-9.77 -9.726,-20.04 -13.886,-39.76 -14.855,-57.75 -0.106,-2 -0.172,-3.98 -0.203,-5.93 -0.071,-3.91 0.019,-7.72 0.222,-11.44" /><path
             id="path38"
             style="fill:#231f20;fill-opacity:1;fill-rule:evenodd;stroke:none"
             d="m 518.883,1450.7 c 7.187,-6.79 14.746,-12.53 22.453,-17.39 17.332,-10.93 35.457,-17.36 52.059,-21.06 5.535,-1.23 10.906,-2.16 16.027,-2.85 8.523,-1.15 16.344,-1.63 23.062,-1.76 4.043,-0.08 7.676,-0.03 10.84,0.1 2.11,0.07 4.004,0.18 5.664,0.3 4.973,0.35 7.793,0.78 7.793,0.78 0,0 -0.058,7.67 -2.715,19.74 -0.476,2.19 -1.043,4.53 -1.718,6.99 -1.336,4.93 -3.075,10.36 -5.352,16.15 -2.828,7.22 -6.492,14.99 -11.211,22.98 -0.945,1.61 -1.933,3.22 -2.969,4.83 -2.058,3.24 -4.296,6.5 -6.726,9.77 -2.434,3.27 -5.059,6.54 -7.891,9.81 -2.832,3.27 -5.871,6.52 -9.133,9.74 -4.89,4.84 -10.293,9.6 -16.238,14.24 -41.015,31.91 -149.473,45.06 -149.473,45.06 0,0 33.7,-77.97 75.528,-117.43" /><path
             id="path40"
             style="fill:#231f20;fill-opacity:1;fill-rule:evenodd;stroke:none"
             d="m 779.34,1255.2 c 6.738,5.05 14.336,12.01 21.758,21.52 1.054,1.36 2.121,2.77 3.164,4.24 4.203,5.85 8.301,12.56 12.101,20.24 1.895,3.85 3.723,7.93 5.45,12.28 1.718,4.33 3.347,8.93 4.855,13.81 2.262,7.3 4.246,15.22 5.867,23.8 9.473,49.92 -20.605,146.18 -20.605,146.18 0,0 -54.172,-65.85 -73.387,-119.16 -28.859,-80.08 18.719,-135 18.719,-135 0,0 9.558,2.72 22.078,12.09" /><path
             id="path42"
             style="fill:#231f20;fill-opacity:1;fill-rule:evenodd;stroke:none"
             d="m 673.402,1253.41 c 1.582,0.08 3.137,0.18 4.641,0.28 3.016,0.22 5.867,0.48 8.547,0.79 2.664,0.31 5.152,0.65 7.449,1 10.293,1.58 16.453,3.4 16.453,3.4 v 0 c 0,0 -1.726,12.28 -9.5,29.51 -1.66,3.69 -3.605,7.61 -5.871,11.68 -1.504,2.71 -3.152,5.5 -4.961,8.33 -11.719,18.39 -29.969,38.77 -58.191,55.24 -44.875,26.19 -154.121,24.86 -154.121,24.86 0,0 43.757,-72.81 90.418,-106.37 28.117,-20.21 58.859,-27.19 84.543,-28.64 7.332,-0.42 14.257,-0.38 20.593,-0.08" /><path
             id="path44"
             style="fill:#231f20;fill-opacity:1;fill-rule:evenodd;stroke:none"
             d="m 868.07,1313.84 c -8.691,-21.27 -16.734,-44.83 -20.254,-65.79 -1.757,-10.5 -2.421,-20.39 -2.226,-29.67 0.754,-34.8 13.539,-60.97 25.246,-77.75 3.906,-5.61 7.695,-10.16 10.867,-13.66 1.281,-1.38 2.453,-2.61 3.496,-3.66 3.145,-3.16 5.141,-4.76 5.141,-4.76 0,0 13.512,6.64 27.117,24.91 3.398,4.57 6.805,9.86 10.008,15.97 1.601,3.04 3.156,6.29 4.629,9.76 2.207,5.2 4.242,10.86 6.015,17.04 0.598,2.06 1.153,4.18 1.684,6.35 3.18,13.04 5.191,28.15 5.328,45.61 v 0 c 0.039,4.76 -0.328,9.87 -1.043,15.2 -0.234,1.78 -0.508,3.58 -0.82,5.41 -0.617,3.65 -1.379,7.39 -2.246,11.19 -0.442,1.9 -0.91,3.81 -1.399,5.73 -2.461,9.62 -5.566,19.5 -8.965,29.14 -13.593,38.59 -31.863,73.5 -31.863,73.5 0,0 -16.238,-29.07 -30.715,-64.52" /><path
             id="path46"
             style="fill:#231f20;fill-opacity:1;fill-rule:evenodd;stroke:none"
             d="m 832.867,1127.97 c 0,0 -20.715,61.49 -96.437,88.62 -48.907,17.52 -156.063,-3.8 -156.063,-3.8 0,0 56.367,-63.57 108.406,-88 71.653,-33.65 144.094,3.18 144.094,3.18" /><path
             id="path48"
             style="fill:#231f20;fill-opacity:1;fill-rule:evenodd;stroke:none"
             d="m 1075.03,1020.07 c 0,0 41.26,44.5 7.23,131.39 -18.56,47.4 -96.209,113.4 -96.209,113.4 0,0 -11.582,-84.44 0.359,-139.87 17.99,-83.26 88.62,-104.92 88.62,-104.92" /><path
             id="path50"
             style="fill:#231f20;fill-opacity:1;fill-rule:evenodd;stroke:none"
             d="m 876.098,1089.91 c -51.383,7.78 -152.403,-33.77 -152.403,-33.77 0,0 67.551,-51.53 123.332,-65.48 76.797,-19.238 140.789,30.86 140.789,30.86 0,0 -32.195,56.35 -111.718,68.39" /><path
             id="path52"
             style="fill:#231f20;fill-opacity:1;fill-rule:evenodd;stroke:none"
             d="m 1158.35,950.461 c 0,0 -45.8,45.98 -125.71,36.809 -51.628,-5.911 -138.281,-72.442 -138.281,-72.442 0,0 78.704,-32.066 136.201,-30.949 79.16,1.5 127.79,66.582 127.79,66.582" /><path
             id="path54"
             style="fill:#231f20;fill-opacity:1;fill-rule:evenodd;stroke:none"
             d="m 1324.12,969.078 c 0,0 12.33,59.402 -61.72,116.202 -40.42,31.03 -141.01,47.46 -141.01,47.46 0,0 33.75,-78.3 72.65,-119.59 58.43,-62.002 130.08,-44.072 130.08,-44.072" /><path
             id="path56"
             style="fill:#231f20;fill-opacity:1;fill-rule:evenodd;stroke:none"
             d="m 1222.26,921.191 c -50.97,-10.16 -131.82,-83.57 -131.82,-83.57 0,0 81.08,-25.5 138.29,-19.641 78.76,8.032 121.86,76.879 121.86,76.879 0,0 -49.44,42.063 -128.33,26.332" /><path
             id="path58"
             style="fill:#231f20;fill-opacity:1;fill-rule:evenodd;stroke:none"
             d="m 2049.92,2085.13 c 25.71,-9.58 44.32,-9.65 44.32,-9.65 0,0 0.23,2.83 0.2,7.81 -0.06,10.79 -1.3,31.66 -8.58,55.67 -1.12,3.7 -2.39,7.47 -3.8,11.29 -1.43,3.81 -3.02,7.68 -4.78,11.57 -7.94,17.51 -19.48,35.5 -36.26,51.67 -43.29,41.74 -125.11,75.22 -125.11,75.22 0,0 21.73,-108.58 57.31,-149.58 25.82,-29.71 54.02,-45.56 76.7,-54" /><path
             id="path60"
             style="fill:#231f20;fill-opacity:1;fill-rule:evenodd;stroke:none"
             d="m 2136.84,2021.34 c 15.97,-38.19 39.65,-56.99 39.65,-56.99 0,0 11.79,12.61 23.21,34.21 0.76,1.44 1.53,2.92 2.28,4.44 1.51,3.04 3,6.23 4.44,9.57 2.87,6.68 5.56,13.94 7.81,21.72 1.13,3.89 2.14,7.92 3.03,12.06 3.53,16.57 4.88,35.07 2.23,54.96 -7.75,57.8 -49.86,132.43 -49.86,132.43 0,0 -49.19,-95.7 -46.83,-148.28 1.12,-25.41 6.79,-46.77 14.04,-64.12" /><path
             id="path62"
             style="fill:#231f20;fill-opacity:1;fill-rule:evenodd;stroke:none"
             d="m 1954.02,2074.79 c 0,0 31.04,-102.14 69.64,-138.29 59.75,-55.96 124.56,-50.45 124.56,-50.45 0,0 -0.9,77.69 -64.57,127.56 -46.29,36.22 -129.63,61.18 -129.63,61.18" /><path
             id="path64"
             style="fill:#231f20;fill-opacity:1;fill-rule:evenodd;stroke:none"
             d="m 2200.76,1856.34 c -0.39,-13.34 0.79,-25.55 2.91,-36.5 0.7,-3.65 1.5,-7.15 2.39,-10.52 2.65,-10.09 6.01,-18.87 9.39,-26.22 7.93,-17.16 16.08,-26.53 16.08,-26.53 0,0 32.35,20.7 54.92,59.23 3.08,5.26 5.98,10.84 8.58,16.76 0.87,1.96 1.71,3.97 2.51,6.01 4.81,12.26 8.32,25.8 9.67,40.57 0.49,5.36 0.71,10.93 0.69,16.63 -0.02,7.59 -0.45,15.39 -1.18,23.21 -0.9,9.77 -2.27,19.55 -3.88,28.96 -0.65,3.77 -1.33,7.47 -2.04,11.08 -6.37,32.55 -14.71,58.11 -14.71,58.11 0,0 -72.62,-81.57 -82.25,-132.62 -1.86,-9.87 -2.82,-19.28 -3.08,-28.17" /><path
             id="path66"
             style="fill:#231f20;fill-opacity:1;fill-rule:evenodd;stroke:none"
             d="m 2168.54,1784.69 c -34.49,47.56 -107.74,94.5 -107.74,94.5 0,0 1.7,-106.75 28.85,-152.11 42.04,-70.23 105.84,-82.76 105.84,-82.76 0,0 20.55,74.91 -26.95,140.37" /><path
             id="path68"
             style="fill:#231f20;fill-opacity:1;fill-rule:evenodd;stroke:none"
             d="m 2295.08,1738.63 c -10.3,-7.95 -20.33,-16.44 -28.99,-25.03 -8.67,-8.6 -15.99,-17.32 -20.85,-25.75 -8.79,-15.24 -14.5,-30.02 -18.07,-43.83 -1.53,-5.91 -2.66,-11.65 -3.47,-17.16 -0.55,-3.67 -0.95,-7.25 -1.22,-10.72 -0.28,-3.46 -0.43,-6.82 -0.49,-10.05 -0.03,-1.62 -0.03,-3.2 -0.01,-4.75 0.1,-7.76 0.75,-14.71 1.63,-20.65 0.69,-4.76 1.54,-8.87 2.35,-12.24 0.81,-3.37 1.59,-6 2.17,-7.78 0.58,-1.79 0.96,-2.73 0.96,-2.73 0,0 79.09,18.73 111.92,90.7 3.73,8.18 6.92,17.14 9.65,26.46 1.09,3.72 2.11,7.51 3.06,11.32 2.38,9.52 4.32,19.21 5.91,28.62 6.36,37.65 7.08,70.82 7.08,70.82 v 0 c 0,0 -37.31,-20.71 -71.63,-47.23" /><path
             id="path70"
             style="fill:#231f20;fill-opacity:1;fill-rule:evenodd;stroke:none"
             d="m 2166.3,1524.57 c -0.96,17.99 -5.13,37.7 -14.85,57.75 -25.1,51.78 -89.28,110.42 -89.28,110.42 0,0 -19.71,-101.61 -1.53,-149.9 7.03,-18.69 16.15,-34.21 25.88,-46.98 4.86,-6.4 9.87,-12.09 14.85,-17.16 4.98,-5.07 9.93,-9.49 14.66,-13.34 18.91,-15.39 34.3,-21.43 34.3,-21.43 0,0 13.94,26.22 15.95,63.28 0.1,1.85 0.18,3.73 0.21,5.64 0.04,1.9 0.05,3.83 0.02,5.79 -0.04,1.95 -0.1,3.93 -0.21,5.93" /><path
             id="path72"
             style="fill:#231f20;fill-opacity:1;fill-rule:evenodd;stroke:none"
             d="m 2315.77,1446.55 c 41.82,39.46 75.52,117.43 75.52,117.43 0,0 -108.46,-13.15 -149.47,-45.06 -63.47,-49.37 -63.95,-114.25 -63.95,-114.25 0,0 80.33,-12.42 137.9,41.88" /><path
             id="path74"
             style="fill:#231f20;fill-opacity:1;fill-rule:evenodd;stroke:none"
             d="m 2000.43,1362.08 c 0.25,-5.38 0.79,-10.47 1.68,-15.14 17.35,-91.48 75.27,-107.98 75.27,-107.98 0,0 47.59,54.92 18.72,135.03 -19.21,53.31 -73.39,119.13 -73.39,119.13 0,0 -0.26,-0.85 -0.73,-2.43 -0.31,-1.04 -0.72,-2.42 -1.2,-4.08 -1.45,-4.99 -3.57,-12.58 -5.9,-21.82 -3.5,-13.88 -7.49,-31.49 -10.41,-49.67 -0.66,-4.03 -1.25,-8.1 -1.78,-12.16 -0.53,-4.06 -0.99,-8.11 -1.36,-12.13 -0.55,-6.01 -0.92,-11.93 -1.03,-17.64 -0.04,-1.91 -0.05,-3.78 -0.02,-5.64 0.02,-1.86 0.07,-3.68 0.15,-5.47" /><path
             id="path76"
             style="fill:#231f20;fill-opacity:1;fill-rule:evenodd;stroke:none"
             d="m 2334.74,1384.02 c -1.49,-0.04 -3.05,-0.09 -4.65,-0.15 -12.83,-0.5 -29.1,-1.48 -46.09,-3.38 -2.12,-0.24 -4.26,-0.5 -6.4,-0.76 -6.42,-0.81 -12.9,-1.75 -19.29,-2.86 -4.26,-0.74 -8.48,-1.55 -12.62,-2.43 -16.55,-3.57 -31.8,-8.39 -43.01,-14.95 -21.71,-12.66 -37.52,-27.64 -49,-42.25 -25.25,-32.15 -29.53,-62.51 -29.53,-62.51 0,0 77.96,-22.95 142.23,23.25 10.21,7.33 20.28,16.55 29.78,26.47 2.71,2.85 5.38,5.74 8,8.66 2.6,2.93 5.16,5.88 7.65,8.83 2.49,2.96 4.91,5.92 7.27,8.85 3.51,4.41 6.86,8.75 10.01,12.95 16.77,22.4 27.71,40.61 27.71,40.61 v 0 c 0,0 -8.64,0.1 -22.06,-0.33" /><path
             id="path78"
             style="fill:#231f20;fill-opacity:1;fill-rule:evenodd;stroke:none"
             d="m 1944.31,1114.4 c 0,0 56.62,45.57 42.51,129.5 -9.37,55.88 -50.96,130.31 -50.96,130.31 0,0 -46.77,-89.35 -46.34,-140.17 0.74,-93.1 54.79,-119.64 54.79,-119.64" /><path
             id="path80"
             style="fill:#231f20;fill-opacity:1;fill-rule:evenodd;stroke:none"
             d="m 2098.21,1212.44 c -75.72,-27.13 -96.44,-88.62 -96.44,-88.62 0,0 72.44,-36.83 144.1,-3.18 52.04,24.43 108.41,88 108.41,88 0,0 -107.17,21.32 -156.07,3.8" /><path
             id="path82"
             style="fill:#231f20;fill-opacity:1;fill-rule:evenodd;stroke:none"
             d="m 1848.23,1120.84 c 11.95,55.43 0.36,139.89 0.36,139.89 0,0 -77.65,-65.99 -96.21,-113.42 -34.03,-86.89 7.23,-131.36 7.23,-131.36 0,0 70.64,21.65 88.62,104.89" /><path
             id="path84"
             style="fill:#231f20;fill-opacity:1;fill-rule:evenodd;stroke:none"
             d="m 1958.55,1085.76 c -79.52,-12.02 -111.72,-68.36 -111.72,-68.36 0,0 63.99,-50.099 140.78,-30.888 55.79,13.948 123.34,65.478 123.34,65.478 0,0 -101.02,41.55 -152.4,33.77" /><path
             id="path86"
             style="fill:#231f20;fill-opacity:1;fill-rule:evenodd;stroke:none"
             d="m 1676.29,946.328 c 0,0 48.64,-65.078 127.8,-66.609 57.49,-1.098 136.2,30.98 136.2,30.98 0,0 -86.66,66.512 -138.29,72.442 -79.9,9.148 -125.71,-36.813 -125.71,-36.813" /><path
             id="path88"
             style="fill:#231f20;fill-opacity:1;fill-rule:evenodd;stroke:none"
             d="m 1640.61,1009.02 c 38.9,41.26 72.65,119.57 72.65,119.57 0,0 -100.59,-16.43 -141.02,-47.43 -74.05,-56.83 -61.72,-116.242 -61.72,-116.242 0,0 71.65,-17.898 130.09,44.102" /><path
             id="path90"
             style="fill:#231f20;fill-opacity:1;fill-rule:evenodd;stroke:none"
             d="m 1484.06,890.73 c 0,0 43.1,-68.878 121.85,-76.902 57.21,-5.828 138.29,19.641 138.29,19.641 0,0 -80.84,73.441 -131.81,83.57 -78.89,15.723 -128.33,-26.309 -128.33,-26.309" /><path
             id="path92"
             style="fill:#231f20;fill-opacity:1;fill-rule:nonzero;stroke:none"
             d="m 1625.28,1793.57 c 6.95,-3.66 14.78,-5.86 22.43,-7.94 9.68,-2.64 19.57,-4.5 28.74,-6.55 -16.15,-17.14 -31.51,-33.45 -49.02,-52.04 -4.64,-0.59 -9.3,-0.88 -13.97,-0.88 -23.3,0 -46.87,7.23 -69.12,20.73 -7.82,4.75 -13.93,10.59 -17.38,19.4 -3.22,8.24 -7.53,16.05 -11.04,23.38 -7.66,5.37 -15.54,7.43 -23.83,7.43 -1.57,0 -3.14,-0.07 -4.73,-0.21 -16.33,-1.42 -23.86,-11.54 -19.77,-27.51 1.53,-5.97 3.88,-11.9 6.91,-17.26 23.98,-42.44 85.27,-91.82 130.07,-106.91 0,0 -33.52,-16.31 -69.73,-39.84 -4.56,1.68 -9.02,3.32 -12.57,4.63 -2.47,5.16 -4.36,9.11 -6.71,14.01 -10.21,3.2 -20.58,7.43 -31.37,9.56 -1.62,0.32 -3.14,0.48 -4.56,0.48 -8.68,0 -13.33,-5.92 -12.88,-16.08 0.6,-13.21 4.92,-25.2 14.12,-35.11 16.2,-17.44 36.46,-27.97 58.87,-35.02 5.75,-1.81 11.5,-2.77 17.23,-2.77 5.16,0 10.34,0.78 15.53,2.44 13.41,4.27 26.81,8.6 40.58,13.03 17.87,-33.48 5.23,-56.02 5.23,-56.02 0,0 -20.19,-15.43 -29.65,-22.75 -8.12,-6.28 -12.63,-14.77 -14.82,-24.62 -4.55,-20.51 -6.9,-41.19 -4.27,-62.21 1.64,-13.12 3.29,-26.25 4.92,-39.26 -2.88,-1.75 -5.58,-2.49 -8.23,-2.49 -2.86,0 -5.66,0.84 -8.63,2.14 -7.27,3.21 -14.92,5.65 -22.57,7.86 -1.71,0.49 -3.36,0.73 -4.94,0.73 -4.87,0 -9.15,-2.28 -13.06,-6.34 -14.69,-15.23 -14.52,-25.23 1.4,-39.05 2.67,-2.32 5.56,-4.5 8.65,-6.2 25.86,-14.33 54.15,-21.53 81.78,-28.48 12.54,10.78 14.64,16.52 15.8,31.9 0.76,10.05 1.45,20.95 5.75,29.71 10.04,20.49 24.4,38.18 42.86,52.02 4.37,3.28 9.12,6.37 15.25,6.37 1.75,0 3.6,-0.24 5.61,-0.81 11.07,-23.61 26.93,-44.5 49.18,-58.88 -6.75,-7.29 -12.6,-13.96 -18.82,-20.27 -9.75,-9.87 -11.84,-23.77 -5.14,-36.52 4.11,-7.81 10.97,-11.8 20.78,-11.8 2.49,0 5.18,0.26 8.06,0.78 17.24,3.09 31.54,11.8 43.45,24.35 7.94,8.39 14.98,17.68 23.18,25.8 9.2,9.09 11.87,19.18 8.65,31.55 -3.91,15.03 -7.47,30.16 -10.79,45.34 -6.07,27.66 -7.87,54.79 12.41,79.14 -0.53,5.78 -0.83,11.98 -1.74,18.09 -4.69,31.59 -16.75,60.69 -31.05,88.9 -3.55,7.02 -5.1,13.88 -5.07,21.63 0.17,54.27 -0.02,108.53 0.18,162.8 0.06,16.05 -0.23,31.91 -4.35,47.61 -1.78,6.74 -1.44,14.04 -1.99,20.21 10.64,13.03 13.64,16.67 -0.01,33.15 -5.56,6.71 -9.67,9.93 -15.01,9.93 -4.82,0 -10.64,-2.62 -19.43,-7.65 -17.35,4.73 -30.43,6.99 -41.1,6.99 -19.73,0 -31.22,-7.75 -46.31,-22.03 -13.11,-1.64 -26.24,-3.28 -39.52,-4.93 -2.9,-12.15 -5.97,-23.28 -8.17,-34.58 -2.47,-12.7 2.16,-22.99 13.73,-29.08" /><path
             id="path94"
             style="fill:#231f20;fill-opacity:1;fill-rule:nonzero;stroke:none"
             d="m 1614.03,1870.77 -5.77,-0.72 -2.29,-9.52 c -0.59,-2.48 -1.19,-4.87 -1.79,-7.27 l 9.85,17.51" /><path
             id="path96"
             style="fill:#231f20;fill-opacity:1;fill-rule:nonzero;stroke:none"
             d="m 1140,1432.69 c 1.93,0.55 3.74,0.79 5.43,0.79 5.94,0 10.53,-3 14.77,-6.17 17.88,-13.4 37.26,-46.98 46.99,-66.82 4.16,-8.49 4.83,-19.04 5.56,-28.77 1.12,-14.9 3.16,-20.46 15.3,-30.9 26.77,6.74 54.15,13.7 79.21,27.58 1.75,17.32 -32.66,42.59 -38.46,46.09 1.59,12.61 -4.25,21.2 -2.66,33.92 2.55,20.35 0.26,40.38 -4.15,60.25 -2.11,9.53 -6.48,17.76 -14.34,23.84 -9.17,7.09 -28.71,22.03 -28.71,22.03 0,0 -12.25,28.9 5.06,61.32 13.33,-4.28 26.31,-8.47 39.3,-12.62 9.1,-2.9 20.16,-5.56 28.09,-5.56 1.3,0 2.52,0.08 3.64,0.23 15.05,2.1 41.31,9.95 57.01,26.84 8.91,9.6 -17.01,41.46 -22.27,43.21 -3.27,1.09 -6.2,1.55 -8.82,1.55 -12.15,0 -17.68,-9.8 -21.32,-11.14 -36.3,8.91 -67.39,32.42 -67.39,32.42 43.39,14.62 102.74,44.03 125.97,85.13 2.93,5.19 5.2,10.94 6.69,16.71 3.95,15.47 4,23.64 -16.17,31.97 -5.66,2.33 -10.04,4.79 -15.73,4.79 -3.39,0 -7.26,-0.88 -12.14,-3.19 -7.1,-3.37 -14.38,-19.87 -10.02,-27.05 -3.34,-8.54 -12.7,-10.77 -20.27,-15.36 -21.54,-13.08 -44.38,-20.08 -66.94,-20.08 -4.52,0 -9.03,0.28 -13.53,0.85 -4.14,4.4 -8.15,8.66 -12.09,12.84 8.25,5.18 15.38,11.76 21.71,19.33 10.72,12.84 17.39,27.74 22.65,43.49 5.44,16.32 13.49,30.75 31.82,37.28 -3.98,1.78 -7.82,2.44 -11.58,2.44 -4.7,0 -9.29,-1.03 -13.9,-2.17 0.13,0.51 0.12,0.73 0.22,0.83 0.76,0.76 1.51,1.54 2.32,2.24 13.9,12.3 24.61,26.96 31.65,44.13 11.51,28.08 12.84,56.17 -0.9,84 -4.8,9.72 -9.87,19.3 -14.82,28.95 -4.63,9 -9.44,17.9 -13.83,27.01 -2.99,6.19 -5.33,12.7 -5.44,19.72 -0.09,5.52 2.79,8.44 8.18,8.54 4.41,0.07 5.46,0.7 4.75,4.89 -0.9,5.29 -2.28,10.61 -4.31,15.57 -1.77,4.31 -5.92,6.24 -10.59,6.4 -0.32,0.01 -0.64,0.02 -0.96,0.02 -14.01,0 -26.43,-10.64 -28.32,-24.6 -0.49,-3.55 -0.57,-7.22 -0.38,-10.81 0.74,-13.41 5.83,-25.59 10.7,-37.88 4.97,-12.6 9.62,-25.34 13.79,-38.22 3.51,-10.86 5.44,-22.13 4.99,-33.64 -0.77,-19.46 -11.23,-31.66 -30.3,-35.51 -0.52,-0.11 -1.07,-0.17 -1.61,-0.23 -12.57,-1.4 -25.16,-2.65 -37.71,-4.23 -22.87,-2.86 -44.37,-9.92 -64.19,-21.82 -1.13,-0.68 -2.13,-1.6 -3.67,-2.77 14.19,-0.75 27.46,-2.1 39.6,-8.56 -0.57,-0.2 -1.11,-0.29 -1.63,-0.29 -0.37,0 -0.72,0.04 -1.06,0.12 -9.25,2.01 -18.58,2.97 -27.99,2.97 -2.34,0 -4.69,-0.06 -7.06,-0.18 -16.64,-0.82 -32.02,-5.43 -45.36,-15.77 -14.96,-11.58 -23.22,-26.83 -22.86,-45.79 0.44,-22.56 8.37,-42 23.65,-57.7 -19.47,-41.17 -10.4,-83.64 -10.25,-127.35 0.02,-7.51 -1.48,-14.15 -4.92,-20.95 -11.26,-22.22 -21.02,-45.03 -26.74,-69.22 -0.1,-0.07 -0.2,-0.16 -0.29,-0.26 -21.36,-26.77 -31.089,-56.63 -23.776,-90.88 0.846,-3.99 0.876,-7.4 -1.114,-11.2 -3.367,-6.4 -3.191,-12.95 1.133,-19.15 3.287,-4.68 2.627,-9.39 -0.261,-14.08 -0.899,-1.47 -1.426,-3.17 -2.09,-4.79 5.918,3.25 11.288,7.03 14.138,13.54 3.53,8.05 2.23,15.96 -1.24,23.42 -3.12,6.71 -4.45,13.61 -4.69,20.84 -0.55,17.31 2.36,33.57 13.79,47.35 18.95,-23.38 17.21,-49.35 11.41,-75.83 -3.22,-14.69 -6.67,-29.35 -10.46,-43.91 -3.12,-11.99 -10.48,-63.36 -1.57,-72.17 7.95,-7.85 52.3,-3.96 69,-6.96 0.35,-0.06 0.69,-0.09 1.01,-0.09 12.48,0 7.06,45.37 0.68,52.26 21.55,13.93 39.94,64.11 50.67,86.97" /><path
             id="path98"
             style="fill:#231f20;fill-opacity:1;fill-rule:nonzero;stroke:none"
             d="M 1049.8,623.5 992.613,441.621 h -11.828 l -53.73,157.84 c -0.684,2.141 -1.289,4.379 -1.797,6.68 -0.516,-2.301 -1.113,-4.539 -1.793,-6.68 l -53.86,-157.84 H 857.906 L 800.57,623.5 h 10.938 c 2.48,0 4.062,-1.148 4.746,-3.469 l 45.898,-149.48 c 0.93,-3.43 1.789,-7.34 2.571,-11.699 0.418,2.23 0.859,4.308 1.281,6.226 0.437,1.934 0.945,3.762 1.543,5.473 l 51.414,149.48 c 0.34,0.949 0.937,1.758 1.797,2.438 0.859,0.691 1.883,1.031 3.086,1.031 h 3.594 c 1.21,0 2.195,-0.32 2.968,-0.961 0.762,-0.641 1.356,-1.469 1.797,-2.508 l 51.414,-149.48 c 0.598,-1.629 1.125,-3.43 1.602,-5.403 0.469,-1.968 0.918,-4.027 1.347,-6.168 0.43,2.141 0.832,4.18 1.223,6.098 0.383,1.934 0.789,3.762 1.219,5.473 l 45.892,149.48 c 0.25,0.949 0.84,1.758 1.74,2.438 0.89,0.691 1.94,1.031 3.14,1.031 h 10.02" /><path
             id="path100"
             style="fill:#231f20;fill-opacity:1;fill-rule:nonzero;stroke:none"
             d="m 1171.28,507.691 -37.02,91.899 c -1.29,3 -2.53,6.601 -3.73,10.801 -0.51,-2.051 -1.07,-4 -1.67,-5.852 -0.6,-1.84 -1.25,-3.527 -1.93,-5.078 l -37.01,-91.77 z m 40.22,-66.07 h -10.15 c -1.2,0 -2.18,0.32 -2.96,0.969 -0.77,0.629 -1.37,1.469 -1.79,2.5 l -21.34,52.84 h -89.34 l -21.32,-52.84 c -0.36,-0.942 -0.95,-1.762 -1.81,-2.442 -0.86,-0.687 -1.89,-1.027 -3.08,-1.027 h -10.03 l 74.43,181.879 h 12.98 l 74.41,-181.879" /><path
             id="path102"
             style="fill:#231f20;fill-opacity:1;fill-rule:nonzero;stroke:none"
             d="m 1286.44,533.648 c 8.06,0 15.26,0.973 21.66,2.891 6.38,1.941 11.78,4.699 16.19,8.313 4.42,3.589 7.78,7.918 10.09,12.968 2.31,5.059 3.47,10.762 3.47,17.102 0,12.93 -4.22,22.527 -12.66,28.777 -8.44,6.262 -20.76,9.391 -36.95,9.391 h -33.29 v -79.442 z m 80.71,-92.027 h -11.3 c -1.46,0 -2.68,0.238 -3.67,0.719 -0.99,0.461 -1.91,1.34 -2.77,2.621 l -58.34,73.777 c -0.69,0.953 -1.41,1.762 -2.13,2.442 -0.72,0.699 -1.54,1.23 -2.44,1.621 -0.9,0.379 -1.97,0.66 -3.21,0.828 -1.24,0.172 -2.77,0.262 -4.56,0.262 h -23.78 v -82.27 H 1241.7 V 623.5 h 46.54 c 20.9,0 36.56,-4.051 46.97,-12.148 10.42,-8.09 15.63,-19.993 15.63,-35.661 0,-6.941 -1.22,-13.293 -3.61,-19.031 -2.39,-5.73 -5.85,-10.769 -10.35,-15.101 -4.49,-4.321 -9.93,-7.86 -16.32,-10.598 -6.37,-2.75 -13.56,-4.59 -21.53,-5.539 2.06,-1.281 3.91,-2.992 5.54,-5.141 l 62.58,-78.66" /><path
             id="path104"
             style="fill:#231f20;fill-opacity:1;fill-rule:nonzero;stroke:none"
             d="m 1624.87,623.5 -57.21,-181.879 h -11.82 l -53.73,157.84 c -0.68,2.141 -1.27,4.379 -1.79,6.68 -0.52,-2.301 -1.13,-4.539 -1.81,-6.68 l -53.86,-157.84 h -11.69 L 1375.64,623.5 h 10.92 c 2.49,0 4.07,-1.148 4.75,-3.469 l 45.89,-149.48 c 0.95,-3.43 1.81,-7.34 2.58,-11.699 0.42,2.23 0.85,4.308 1.28,6.226 0.43,1.934 0.94,3.762 1.54,5.473 l 51.42,149.48 c 0.34,0.949 0.94,1.758 1.8,2.438 0.85,0.691 1.88,1.031 3.08,1.031 h 3.61 c 1.19,0 2.17,-0.32 2.94,-0.961 0.78,-0.641 1.38,-1.469 1.8,-2.508 l 51.42,-149.48 c 0.59,-1.629 1.14,-3.43 1.61,-5.403 0.47,-1.968 0.92,-4.027 1.35,-6.168 0.43,2.141 0.84,4.18 1.22,6.098 0.39,1.934 0.79,3.762 1.22,5.473 l 45.89,149.48 c 0.25,0.949 0.83,1.758 1.73,2.438 0.9,0.691 1.95,1.031 3.15,1.031 h 10.03" /><path
             id="path106"
             style="fill:#231f20;fill-opacity:1;fill-rule:nonzero;stroke:none"
             d="m 1657.9,441.621 h 13.2422 V 623.5 H 1657.9 Z" /><path
             id="path108"
             style="fill:#231f20;fill-opacity:1;fill-rule:nonzero;stroke:none"
             d="m 1856.1,472.219 c 0.86,0 1.58,-0.297 2.18,-0.899 l 5.14,-5.531 c -3.78,-4.027 -7.87,-7.641 -12.28,-10.859 -4.41,-3.211 -9.25,-5.95 -14.52,-8.231 -5.27,-2.258 -11.06,-4.019 -17.35,-5.258 -6.3,-1.25 -13.22,-1.871 -20.76,-1.871 -12.59,0 -24.14,2.2 -34.64,6.621 -10.5,4.418 -19.52,10.668 -27.06,18.758 -7.54,8.11 -13.38,17.891 -17.55,29.379 -4.15,11.473 -6.22,24.242 -6.22,38.301 0,13.801 2.13,26.391 6.42,37.793 4.29,11.398 10.28,21.18 18,29.367 7.71,8.18 16.96,14.531 27.76,19.02 10.8,4.5 22.71,6.742 35.73,6.742 12.42,0 23.44,-1.922 33.03,-5.781 9.6,-3.848 18.34,-9.301 26.23,-16.321 l -3.99,-5.777 c -0.69,-1.043 -1.75,-1.551 -3.21,-1.551 -1.03,0 -2.7,0.949 -5.02,2.84 -2.3,1.867 -5.51,3.949 -9.63,6.23 -4.12,2.27 -9.23,4.34 -15.37,6.231 -6.12,1.879 -13.47,2.828 -22.04,2.828 -10.96,0 -21,-1.891 -30.14,-5.66 -9.12,-3.758 -16.97,-9.16 -23.52,-16.199 -6.56,-7.032 -11.68,-15.59 -15.35,-25.7 -3.69,-10.121 -5.54,-21.472 -5.54,-34.062 0,-12.848 1.87,-24.348 5.6,-34.449 3.72,-10.11 8.85,-18.66 15.36,-25.641 6.5,-6.988 14.2,-12.328 23.08,-16.059 8.85,-3.742 18.43,-5.601 28.72,-5.601 6.51,0 12.31,0.43 17.42,1.293 5.09,0.848 9.77,2.137 14.06,3.859 4.29,1.707 8.28,3.809 11.95,6.289 3.69,2.489 7.34,5.399 10.94,8.739 0.42,0.351 0.85,0.621 1.28,0.839 0.43,0.211 0.85,0.321 1.29,0.321" /><path
             id="path110"
             style="fill:#231f20;fill-opacity:1;fill-rule:nonzero;stroke:none"
             d="m 1911.87,539.57 h 10.8 c 1.63,0 3.04,0.059 4.25,0.2 1.19,0.121 2.28,0.351 3.27,0.699 0.99,0.332 1.89,0.832 2.71,1.472 0.81,0.649 1.69,1.438 2.63,2.379 l 73.39,75.45 c 1.29,1.46 2.55,2.441 3.79,2.968 1.24,0.5 2.72,0.762 4.43,0.762 h 10.54 l -79.43,-81.621 c -1.62,-1.707 -3.06,-3.039 -4.31,-3.981 -1.24,-0.949 -2.63,-1.718 -4.17,-2.308 1.8,-0.52 3.43,-1.309 4.88,-2.391 1.45,-1.058 2.91,-2.461 4.37,-4.179 l 83.67,-87.399 h -10.66 c -2.23,0 -3.84,0.289 -4.83,0.84 -0.97,0.559 -1.94,1.437 -2.88,2.629 l -76.86,78.66 c -0.95,0.949 -1.82,1.762 -2.64,2.449 -0.81,0.692 -1.71,1.262 -2.7,1.742 -0.98,0.469 -2.14,0.809 -3.47,1.028 -1.33,0.211 -3.03,0.32 -5.08,0.32 h -11.7 v -87.668 h -13.23 V 623.5 h 13.23 v -83.93" /><path
             id="path112"
             style="fill:#231f20;fill-opacity:1;fill-rule:nonzero;stroke:none"
             d="m 803.871,254.738 c 0,-10.797 -1.629,-20.726 -4.891,-29.828 -3.253,-9.078 -8.085,-16.961 -14.519,-23.64 -6.43,-6.688 -14.438,-11.911 -24.035,-15.692 -9.59,-3.758 -20.656,-5.648 -33.164,-5.648 -12.676,0 -23.821,1.89 -33.418,5.648 -9.602,3.781 -17.61,9.004 -24.035,15.692 -6.426,6.679 -11.278,14.562 -14.52,23.64 -3.262,9.102 -4.883,19.031 -4.883,29.828 v 111.821 h 40.098 V 256.281 c 0,-5.66 0.898,-10.883 2.707,-15.679 1.793,-4.801 4.324,-8.961 7.574,-12.461 3.254,-3.52 7.16,-6.262 11.692,-8.243 4.539,-1.957 9.472,-2.949 14.785,-2.949 5.312,0 10.195,0.992 14.66,2.949 4.449,1.981 8.308,4.723 11.558,8.243 3.262,3.5 5.793,7.66 7.59,12.461 1.797,4.796 2.696,10.019 2.696,15.679 v 110.278 h 40.105 V 254.738" /><path
             id="path114"
             style="fill:#231f20;fill-opacity:1;fill-rule:nonzero;stroke:none"
             d="m 840.883,366.559 h 54.504 L 972.758,240.09 h 0.527 v 126.469 h 40.095 v -182 h -52.439 l -79.433,129.55 h -0.504 v -129.55 h -40.121 v 182" /><path
             id="path116"
             style="fill:#231f20;fill-opacity:1;fill-rule:nonzero;stroke:none"
             d="m 1216.46,322.09 c -3.25,4.109 -7.67,7.16 -13.24,9.121 -5.57,1.98 -10.84,2.961 -15.8,2.961 -2.92,0 -5.92,-0.352 -9.01,-1.024 -3.08,-0.687 -6,-1.769 -8.74,-3.218 -2.74,-1.461 -4.97,-3.391 -6.69,-5.782 -1.7,-2.41 -2.56,-5.32 -2.56,-8.738 0,-5.5 2.06,-9.691 6.17,-12.609 4.11,-2.91 9.29,-5.391 15.55,-7.449 6.24,-2.051 12.98,-4.114 20.18,-6.172 7.2,-2.051 13.93,-4.969 20.19,-8.731 6.24,-3.777 11.43,-8.84 15.53,-15.179 4.12,-6.329 6.17,-14.821 6.17,-25.438 0,-10.113 -1.88,-18.941 -5.64,-26.48 -3.78,-7.543 -8.88,-13.801 -15.29,-18.77 -6.44,-4.973 -13.89,-8.652 -22.38,-11.043 -8.47,-2.41 -17.44,-3.609 -26.86,-3.609 -11.83,0 -22.79,1.8 -32.9,5.398 -10.12,3.602 -19.54,9.434 -28.27,17.473 l 28.52,31.371 c 4.12,-5.492 9.3,-9.731 15.56,-12.723 6.25,-3 12.72,-4.5 19.41,-4.5 3.25,0 6.56,0.391 9.9,1.153 3.34,0.777 6.33,1.929 8.99,3.468 2.66,1.559 4.79,3.508 6.43,5.91 1.63,2.411 2.44,5.231 2.44,8.5 0,5.481 -2.09,9.801 -6.3,12.969 -4.2,3.18 -9.46,5.883 -15.81,8.102 -6.34,2.219 -13.21,4.461 -20.56,6.679 -7.37,2.239 -14.23,5.231 -20.57,9.008 -6.34,3.762 -11.61,8.731 -15.82,14.903 -4.2,6.168 -6.28,14.3 -6.28,24.429 0,9.758 1.93,18.328 5.78,25.7 3.85,7.371 9,13.539 15.42,18.511 6.43,4.957 13.84,8.688 22.23,11.18 8.4,2.48 17.05,3.73 25.97,3.73 10.28,0 20.22,-1.461 29.82,-4.371 9.6,-2.922 18.26,-7.8 25.97,-14.648 l -27.51,-30.082" /><path
             id="path118"
             style="fill:#231f20;fill-opacity:1;fill-rule:nonzero;stroke:none"
             d="m 1305.91,275.559 c 0,-8.579 1.33,-16.418 4,-23.52 2.64,-7.117 6.45,-13.289 11.42,-18.508 4.97,-5.242 10.93,-9.301 17.87,-12.211 6.95,-2.922 14.7,-4.371 23.27,-4.371 8.57,0 16.32,1.449 23.27,4.371 6.94,2.91 12.89,6.969 17.86,12.211 4.97,5.219 8.79,11.391 11.44,18.508 2.66,7.102 3.99,14.941 3.99,23.52 0,8.39 -1.33,16.191 -3.99,23.402 -2.65,7.187 -6.47,13.398 -11.44,18.629 -4.97,5.219 -10.92,9.301 -17.86,12.219 -6.95,2.91 -14.7,4.363 -23.27,4.363 -8.57,0 -16.32,-1.453 -23.27,-4.363 -6.94,-2.918 -12.9,-7 -17.87,-12.219 -4.97,-5.231 -8.78,-11.442 -11.42,-18.629 -2.67,-7.211 -4,-15.012 -4,-23.402 z m -41.64,0 c 0,14.562 2.44,27.761 7.33,39.589 4.89,11.821 11.7,21.883 20.43,30.204 8.75,8.308 19.11,14.699 31.11,19.148 11.99,4.461 25.11,6.691 39.33,6.691 14.22,0 27.33,-2.23 39.33,-6.691 11.99,-4.449 22.37,-10.84 31.11,-19.148 8.75,-8.321 15.55,-18.383 20.44,-30.204 4.88,-11.828 7.32,-25.027 7.32,-39.589 0,-14.571 -2.44,-27.758 -7.32,-39.579 -4.89,-11.839 -11.69,-21.91 -20.44,-30.218 -8.74,-8.313 -19.12,-14.692 -31.11,-19.153 -12,-4.449 -25.11,-6.679 -39.33,-6.679 -14.22,0 -27.34,2.23 -39.33,6.679 -12,4.461 -22.36,10.84 -31.11,19.153 -8.73,8.308 -15.54,18.379 -20.43,30.218 -4.89,11.821 -7.33,25.008 -7.33,39.579" /><path
             id="path120"
             style="fill:#231f20;fill-opacity:1;fill-rule:nonzero;stroke:none"
             d="m 1606.95,319.262 c -3.96,4.797 -8.79,8.488 -14.53,11.047 -5.75,2.57 -12.39,3.863 -19.92,3.863 -7.54,0 -14.53,-1.453 -20.96,-4.363 -6.42,-2.918 -11.99,-7 -16.7,-12.219 -4.73,-5.231 -8.4,-11.442 -11.06,-18.629 -2.66,-7.211 -3.99,-15.012 -3.99,-23.402 0,-8.579 1.33,-16.418 3.99,-23.52 2.66,-7.117 6.29,-13.289 10.92,-18.508 4.63,-5.242 10.07,-9.301 16.33,-12.211 6.26,-2.922 12.98,-4.371 20.18,-4.371 8.23,0 15.5,1.711 21.85,5.141 6.33,3.43 11.56,8.219 15.69,14.398 l 33.4,-24.937 c -7.71,-10.801 -17.47,-18.77 -29.29,-23.91 -11.83,-5.141 -24,-7.711 -36.52,-7.711 -14.22,0 -27.33,2.23 -39.32,6.679 -12,4.461 -22.37,10.84 -31.11,19.153 -8.74,8.308 -15.54,18.379 -20.44,30.218 -4.88,11.821 -7.32,25.008 -7.32,39.579 0,14.562 2.44,27.761 7.32,39.589 4.9,11.821 11.7,21.883 20.44,30.204 8.74,8.308 19.11,14.699 31.11,19.148 11.99,4.461 25.1,6.691 39.32,6.691 5.15,0 10.5,-0.48 16.08,-1.41 5.56,-0.953 11.05,-2.441 16.44,-4.511 5.4,-2.051 10.59,-4.79 15.56,-8.219 4.97,-3.442 9.42,-7.621 13.37,-12.602 l -30.84,-25.187" /><path
             id="path122"
             style="fill:#231f20;fill-opacity:1;fill-rule:nonzero;stroke:none"
             d="m 1663.5,184.559 h 40.1016 v 182 H 1663.5 Z" /><path
             id="path124"
             style="fill:#231f20;fill-opacity:1;fill-rule:nonzero;stroke:none"
             d="m 1741.64,366.559 h 123.66 v -37.02 h -83.56 v -33.918 h 78.92 v -37.019 h -78.92 V 221.57 h 88.18 v -37.011 h -128.28 v 182" /><path
             id="path126"
             style="fill:#231f20;fill-opacity:1;fill-rule:nonzero;stroke:none"
             d="m 1937.27,331.09 h -51.93 v 35.469 H 2029.3 V 331.09 h -51.92 V 184.559 h -40.11 V 331.09" /><path
             id="path128"
             style="fill:#231f20;fill-opacity:1;fill-rule:nonzero;stroke:none"
             d="m 2094.33,262.191 -68.38,104.368 h 49.88 l 38.56,-68.118 40.87,68.118 h 47.57 l -68.39,-104.368 v -77.632 h -40.11 v 77.632" /><path
             id="path130"
             style="fill:#231f20;fill-opacity:1;fill-rule:nonzero;stroke:none"
             d="m 1240.77,1968.55 c 3.05,-9.45 4.8,-19.22 4.94,-29.17 14.48,3.28 29.09,6.14 43.87,8.54 -1.63,7.03 -4.13,14.04 -7.58,21.04 -2.56,5.19 -5.26,10.31 -7.91,15.45 -12.26,-2.12 -24.36,-4.51 -36.29,-7.2 0.98,-2.89 2.03,-5.75 2.97,-8.66" /><path
             id="path132"
             style="fill:#231f20;fill-opacity:1;fill-rule:nonzero;stroke:none"
             d="m 1326.84,1788.44 c -1.82,-0.5 -3.79,-1.22 -5.98,-2.25 -7.1,-3.37 -14.38,-19.87 -10.02,-27.05 -3.34,-8.54 -12.7,-10.77 -20.27,-15.36 -5.23,-3.18 -10.54,-5.99 -15.91,-8.43 23.01,-7.34 46.81,-12.88 71.19,-16.61 4.75,5.48 8.97,11.18 12.36,17.17 2.93,5.19 5.2,10.94 6.69,16.71 0.98,3.89 1.74,7.31 1.98,10.39 -13.94,6.04 -27.16,14.43 -40.04,25.43" /><path
             id="path134"
             style="fill:#231f20;fill-opacity:1;fill-rule:nonzero;stroke:none"
             d="m 1213.85,1899.17 c -2.29,-0.26 -4.59,-0.5 -6.88,-0.75 11.21,-26.06 25.2,-53.6 43.64,-80.05 5.26,8.35 12.53,15.18 23.58,19.12 -3.98,1.78 -7.82,2.44 -11.58,2.44 -4.7,0 -9.29,-1.03 -13.9,-2.17 0.13,0.51 0.12,0.73 0.22,0.83 0.76,0.76 1.51,1.54 2.32,2.24 6.52,5.77 12.27,12.11 17.33,18.93 -10.02,16.81 -19.28,35.29 -27.94,56.06 -4.96,-8.47 -13.42,-14.04 -25.18,-16.42 -0.52,-0.11 -1.07,-0.17 -1.61,-0.23" /><path
             id="path136"
             style="fill:#231f20;fill-opacity:1;fill-rule:nonzero;stroke:none"
             d="m 1219.82,1756.86 c 8.44,10.14 14.33,21.59 19.02,33.7 -40.66,18.38 -77.6,42.82 -111.46,73.5 -3.39,0.26 -6.77,0.53 -10.18,0.53 -2.34,0 -4.69,-0.06 -7.06,-0.18 -11.02,-0.55 -21.48,-2.81 -31.19,-7.24 40.15,-41.53 87.85,-75.68 140.87,-100.31" /><path
             id="path138"
             style="fill:#231f20;fill-opacity:1;fill-rule:nonzero;stroke:none"
             d="m 1108.28,1870.35 c 4.57,-0.24 9.04,-0.57 13.41,-1.08 -2.04,1.91 -4.03,3.96 -6.05,5.93 -1.23,-0.7 -2.47,-1.35 -3.69,-2.08 -1.13,-0.68 -2.13,-1.6 -3.67,-2.77" /><path
             id="path140"
             style="fill:#231f20;fill-opacity:1;fill-rule:nonzero;stroke:none"
             d="m 1625.28,1793.57 c 6.95,-3.66 14.78,-5.86 22.43,-7.94 4.7,-1.28 9.44,-2.37 14.14,-3.4 30.37,18.65 58.92,40.8 85,66.45 10.29,10.12 20,20.67 29.23,31.53 -3.31,3.03 -6.39,4.64 -10,4.64 -4.82,0 -10.64,-2.62 -19.43,-7.65 -7.79,2.12 -14.61,3.68 -20.84,4.82 -33.09,-33.51 -69.38,-60.51 -109.46,-81.29 2.29,-2.76 5.21,-5.2 8.93,-7.16" /><path
             id="path142"
             style="fill:#231f20;fill-opacity:1;fill-rule:nonzero;stroke:none"
             d="m 1544.34,1746.89 c -7.82,4.75 -13.93,10.59 -17.38,19.4 -3.22,8.24 -7.53,16.05 -11.04,23.38 -1.38,0.97 -2.79,1.72 -4.2,2.48 -13.74,-12.33 -27.76,-21.8 -42.28,-28.43 1.39,-4.01 3,-7.95 5.06,-11.6 5.87,-10.38 13.98,-21.17 23.53,-31.78 22.43,3.9 44.46,9.41 65.95,16.49 -6.63,2.83 -13.19,6.15 -19.64,10.06" /><path
             id="path144"
             style="fill:#231f20;fill-opacity:1;fill-rule:nonzero;stroke:none"
             d="m 1397.52,2410.41 c -57.91,1.23 -112.13,8.22 -165.24,21.32 1.17,2.77 2.33,5.53 3.47,8.28 5.02,12.03 9.76,23.4 15.08,34.69 19.05,40.49 41.23,72.36 67.79,97.43 24.99,23.57 50.8,37.39 78.9,42.25 z m -0.17,-206.57 h -205.69 c 1.75,68.59 11.19,131.23 28.74,190.99 56.44,-14.24 114.48,-21.99 176.95,-23.65 z m -293.56,277.21 c 28.1,29.65 60.15,55.12 95.4,75.8 29.08,17.06 59.16,30.31 91.25,40.14 -48.68,-47.79 -75.99,-106.2 -94.6,-155.04 -34.26,10.89 -64.53,23.75 -92.05,39.1 z m 67.96,-522.27 c -13.79,-5.07 -28.04,-10.32 -41.72,-16.24 -13.55,-5.88 -26.44,-12.36 -40.08,-19.22 -4.09,-2.06 -8.2,-4.12 -12.36,-6.19 -56.09,71.98 -87,155.03 -91.942,247.05 h 167.322 c 1.99,-72.62 12.03,-138.54 30.62,-201.03 -3.97,-1.48 -7.91,-2.93 -11.84,-4.37 z m -94.17,492.08 c 4.07,-2.02 8.1,-4.05 12.12,-6.07 13.09,-6.59 26.63,-13.41 40.31,-19.34 13.69,-5.94 27.95,-11.18 41.74,-16.26 3.92,-1.44 7.86,-2.89 11.81,-4.35 -18.61,-62.72 -28.64,-128.62 -30.56,-200.98 H 985.648 c 4.922,91.8 35.822,174.83 91.932,247 z M 1437,2614.39 c 8.9,-1.35 18.11,-4.05 27.91,-8.17 26.12,-10.98 49.69,-29.51 72.07,-56.66 26.44,-32.09 47.17,-69.7 64.92,-117.94 -52.86,-13.03 -106.97,-19.99 -164.9,-21.21 z m 294.07,-133.14 c -27.28,-15.33 -57.65,-28.25 -92.39,-39.3 -18.85,49.46 -46.56,108.68 -95.94,156.43 63.33,-18.93 151.92,-73.1 188.33,-117.13 z m 25.44,-29.93 c 56.26,-72.28 87.31,-155.43 92.35,-247.36 h -167.33 c -2.02,72.54 -12.1,138.56 -30.75,201.29 39.67,12.77 74.4,27.9 105.73,46.07 z m 0.02,-534.68 c -31.29,18.16 -66.01,33.29 -105.72,46.07 18.69,63.08 28.77,129.12 30.7,201.41 h 167.34 c -4.93,-91.69 -35.96,-174.88 -92.32,-247.48 z m -319.43,287.18 v 167.34 c 62.69,1.7 120.75,9.47 176.98,23.68 17.56,-59.52 26.99,-122.17 28.78,-191.02 z m 176.99,-230.69 c -55.84,13.99 -113.9,21.58 -177.03,23.13 v 167.88 h 205.79 c -1.78,-68.73 -11.2,-131.37 -28.76,-191.01 z m -177.11,-219.54 v 203.98 c 57.86,-1.23 112.07,-8.22 165.2,-21.32 -1.07,-2.58 -2.14,-5.15 -3.19,-7.71 -4.85,-11.73 -9.43,-22.8 -14.58,-33.78 -15.28,-32.63 -32.51,-59.58 -52.24,-81.93 0,0 9.6,-12.69 12.37,-17.21 2.35,-3.84 5.09,-9.93 7.65,-16.29 13.62,14.4 25.41,29.6 35.76,45.1 l 31.14,55.32 c 7.55,15.93 13.97,31.54 19.58,46.27 15.77,-5 30.59,-10.48 44.77,-16.37 6.62,1.74 13.87,2.83 22.11,2.83 10.76,0 22.63,-1.61 37.52,-5.16 7.1,3.34 14.69,5.82 23.01,5.82 12.29,0 21.42,-5.3 27.81,-10.78 60.3,80.03 93.29,176.45 94.07,277.77 2.01,259.37 -207.18,472.26 -466.31,474.57 -1.43,0.01 -2.86,0.02 -4.29,0.02 -124.8,0 -242.38,-48.59 -331.53,-137.09 -89.947,-89.29 -139.369,-207.58 -139.162,-333.08 -0.402,-116.38 42.184,-223.25 112.672,-305.76 8.51,4.84 17.68,8.53 27.57,10.86 l 4.25,3.23 0.88,0.69 c 1.18,0.95 2.98,2.38 5.34,3.8 22.65,13.6 47.97,22.23 75.24,25.65 7.25,0.9 14.45,1.68 21.57,2.44 0.55,0.18 1.06,0.39 1.63,0.56 0.04,-0.11 0.08,-0.24 0.13,-0.36 0.98,0.11 1.99,0.23 2.96,0.34 3.82,0.41 7.63,0.82 11.53,1.25 5.79,1.24 6.8,2.61 7.05,8.78 0.29,7.44 -0.93,15.45 -3.64,23.81 -3.77,11.64 -8.21,23.93 -13.19,36.52 l -0.79,2.01 c -5.11,12.88 -10.89,27.47 -11.84,44.74 -0.3,5.63 -0.1,11.07 0.59,16.18 1.19,8.76 4.39,16.85 9.1,23.84 -3.28,26.12 -5.34,53 -6.07,80.93 h 205.71 V 1996.3 c -32.67,-0.86 -63.8,-3.3 -93.81,-7.32 1.28,-2.52 2.56,-4.95 3.82,-7.5 4.76,-9.65 8.06,-19.55 10.16,-29.6 25.94,3.18 52.46,5.1 79.88,5.69 v -203.85 c 0,0 -11.48,-29.7 -18.99,-38.74 11.39,-0.93 22.85,-1.6 34.44,-1.71 1.43,-0.01 2.84,-0.01 4.27,-0.01 12.99,0 25.89,0.55 38.71,1.61 -7.41,11.19 -18.86,38.72 -18.86,38.72" /></g></g></g></g></svg>