<?xml version="1.0" encoding="UTF-8" standalone="no"?>
<!DOCTYPE svg PUBLIC "-//W3C//DTD SVG 1.1//EN" "http://www.w3.org/Graphics/SVG/1.1/DTD/svg11.dtd">
<svg width="100%" height="100%" viewBox="0 0 1920 1920" version="1.1" xmlns="http://www.w3.org/2000/svg" xmlns:xlink="http://www.w3.org/1999/xlink" xml:space="preserve" xmlns:serif="http://www.serif.com/" style="fill-rule:evenodd;clip-rule:evenodd;stroke-linejoin:round;stroke-miterlimit:1.41421;">
    <g transform="matrix(2.29066,0,0,2.29066,960,1257.23)">
        <g id="warwick-un-society-logo-final-03--1-" serif:id="warwick-un-society-logo-final-03 (1)" transform="matrix(1,0,0,1,-591.667,-591.667)">
            <g transform="matrix(4.16667,0,0,4.16667,0,0)">
                <path d="M142.619,184.204C138.411,184.173 135.181,190.935 142.132,193.251C145.253,193.309 147.072,190.933 147.117,188.681C147.16,186.564 145.181,184.437 142.619,184.204Z" style="fill:rgb(255,255,255);"/>
                <path d="M86.142,69.672C89.7,65.576 91.873,54.715 91.873,54.715C91.873,54.715 91.074,55.042 89.843,55.619C89.597,55.735 89.334,55.86 89.056,55.995C88.917,56.062 88.775,56.132 88.629,56.204C88.046,56.492 87.412,56.817 86.75,57.172C86.419,57.35 86.081,57.536 85.738,57.729C85.397,57.922 85.051,58.122 84.703,58.329C84.356,58.536 84.008,58.749 83.661,58.969C83.142,59.298 82.626,59.64 82.124,59.994C81.789,60.231 81.461,60.472 81.143,60.718C80.823,60.963 80.513,61.213 80.216,61.467C79.918,61.721 79.632,61.978 79.361,62.24C73.399,67.986 74.04,76.037 74.04,76.037C74.04,76.037 80.635,76.014 86.142,69.672Z" style="fill:rgb(255,255,255);"/>
                <path d="M71.185,75.039C71.419,69.784 66.5,60.211 66.5,60.211C66.5,60.211 62.29,67.678 61.516,73.454C60.451,81.412 65.816,87.153 65.816,87.153C65.816,87.153 70.825,83.172 71.185,75.039Z" style="fill:rgb(255,255,255);"/>
                <path d="M68.643,94.981C68.643,94.981 71.434,95.218 75.041,93.8C75.9,93.462 76.805,93.031 77.731,92.48C78.84,91.819 79.979,90.986 81.099,89.938C81.942,89.147 82.751,88.04 83.498,86.794C83.605,86.616 83.711,86.435 83.815,86.252C84.336,85.336 84.824,84.361 85.271,83.392C85.628,82.617 85.958,81.845 86.258,81.11C87.38,78.353 88.063,76.108 88.063,76.108C88.063,76.108 87.077,76.404 85.597,76.938C85.462,76.986 85.323,77.037 85.181,77.089C84.185,77.457 83.004,77.919 81.768,78.462C79.472,79.47 76.98,80.755 75.1,82.227C74.701,82.538 74.328,82.861 73.978,83.192C73.627,83.523 73.3,83.862 72.994,84.207C72.382,84.896 71.857,85.609 71.404,86.324C68.692,90.612 68.643,94.981 68.643,94.981Z" style="fill:rgb(255,255,255);"/>
                <path d="M52.743,95.671C52.924,97.641 53.487,99.392 54.231,100.911C54.323,101.1 54.419,101.287 54.518,101.47C54.91,102.2 55.342,102.871 55.786,103.483C56.009,103.788 56.234,104.079 56.46,104.354C56.686,104.63 56.912,104.889 57.135,105.134C58.807,106.968 60.311,107.931 60.311,107.931C60.311,107.931 60.91,107.242 61.58,105.965C62.25,104.687 62.991,102.822 63.275,100.467C63.465,98.897 63.452,97.109 63.079,95.134C62.929,94.337 62.625,93.465 62.219,92.561C62.056,92.2 61.877,91.833 61.686,91.464C61.109,90.357 60.417,89.229 59.696,88.154C57.415,84.749 54.855,81.873 54.855,81.873C54.855,81.873 52.69,88.507 52.674,94.008C52.672,94.577 52.693,95.135 52.743,95.671Z" style="fill:rgb(255,255,255);"/>
                <path d="M63.915,119.156C63.915,119.156 67.81,118.389 71.518,114.705C71.666,114.558 71.814,114.406 71.961,114.249C72.256,113.935 72.549,113.602 72.837,113.249C72.982,113.073 73.125,112.891 73.267,112.704C73.55,112.33 73.828,111.935 74.099,111.519C74.234,111.31 74.367,111.097 74.499,110.877C77.214,106.341 77.385,95.668 77.385,95.668C77.385,95.668 70.059,100.361 66.61,105.115C65.868,106.138 65.292,107.184 64.848,108.221C63.96,110.295 63.603,112.332 63.503,114.077C63.493,114.251 63.486,114.422 63.482,114.59C63.476,114.759 63.474,114.924 63.473,115.085C63.463,117.509 63.915,119.156 63.915,119.156Z" style="fill:rgb(255,255,255);"/>
                <path d="M60.556,127.793C60.556,127.793 61.156,126.286 61.254,123.91C61.26,123.761 61.265,123.609 61.267,123.453C61.269,123.299 61.268,123.14 61.266,122.978C61.26,122.656 61.244,122.32 61.217,121.973C61.175,121.453 61.107,120.909 61.003,120.343C60.968,120.154 60.93,119.963 60.887,119.77C60.548,118.226 59.944,116.544 58.941,114.803C58.697,114.381 58.393,113.952 58.04,113.521C57.923,113.377 57.801,113.233 57.673,113.089C56.781,112.082 55.655,111.073 54.468,110.125C53.79,109.584 53.091,109.063 52.405,108.575C52.062,108.33 51.722,108.094 51.389,107.867C48.892,106.166 46.793,105.001 46.793,105.001C46.793,105.001 46.977,113.493 49.363,118.721C52.647,125.918 60.556,127.793 60.556,127.793Z" style="fill:rgb(255,255,255);"/>
                <path d="M66.836,132.865C66.856,133.235 66.888,133.595 66.929,133.942C67.302,137.07 68.432,139.195 68.432,139.195C68.432,139.195 69.971,138.59 71.861,137.051C72.57,136.473 73.328,135.764 74.073,134.908C74.57,134.336 75.062,133.698 75.528,132.99C76.228,131.926 76.873,130.702 77.4,129.301C79.219,124.472 77.247,114.311 77.247,114.311C77.247,114.311 76.488,115.004 75.391,116.124C75.092,116.43 74.768,116.767 74.426,117.13C74.313,117.251 74.196,117.376 74.079,117.502C73.729,117.883 73.363,118.288 72.992,118.712C72.375,119.419 71.742,120.18 71.134,120.968C70.283,122.072 69.48,123.23 68.833,124.376C68.649,124.703 68.476,125.029 68.319,125.353C67.347,127.357 66.931,129.329 66.834,131.128C66.823,131.328 66.817,131.526 66.814,131.721C66.807,132.112 66.816,132.493 66.836,132.865Z" style="fill:rgb(255,255,255);"/>
                <path d="M51.888,138.93C52.607,139.609 53.362,140.183 54.133,140.669C55.866,141.762 57.679,142.405 59.339,142.775C59.893,142.898 60.43,142.991 60.942,143.06C61.794,143.175 62.576,143.223 63.248,143.236C63.652,143.244 64.016,143.239 64.332,143.226C64.543,143.219 64.733,143.208 64.899,143.196C65.396,143.161 65.678,143.118 65.678,143.118C65.678,143.118 65.672,142.351 65.406,141.144C65.358,140.925 65.302,140.691 65.234,140.445C65.101,139.952 64.927,139.409 64.699,138.83C64.416,138.108 64.05,137.331 63.578,136.532C63.483,136.371 63.385,136.21 63.281,136.049C63.075,135.725 62.852,135.399 62.608,135.072C62.365,134.745 62.103,134.418 61.819,134.091C61.536,133.764 61.233,133.439 60.906,133.117C60.417,132.633 59.877,132.157 59.282,131.693C55.181,128.502 44.335,127.187 44.335,127.187C44.335,127.187 47.705,134.984 51.888,138.93Z" style="fill:rgb(255,255,255);"/>
                <path d="M77.934,158.48C78.608,157.975 79.367,157.279 80.109,156.328C80.215,156.192 80.321,156.051 80.426,155.904C80.846,155.319 81.256,154.648 81.636,153.88C81.825,153.495 82.008,153.087 82.181,152.652C82.353,152.219 82.516,151.759 82.666,151.271C82.893,150.541 83.091,149.749 83.253,148.891C84.2,143.899 81.192,134.273 81.192,134.273C81.192,134.273 75.775,140.858 73.854,146.189C70.968,154.197 75.726,159.689 75.726,159.689C75.726,159.689 76.682,159.417 77.934,158.48Z" style="fill:rgb(255,255,255);"/>
                <path d="M67.34,158.659C67.498,158.651 67.653,158.641 67.804,158.631C68.106,158.609 68.391,158.583 68.658,158.552C68.925,158.521 69.174,158.487 69.403,158.452C70.433,158.294 71.049,158.112 71.049,158.112C71.049,158.112 70.876,156.884 70.099,155.161C69.933,154.792 69.738,154.4 69.512,153.993C69.361,153.722 69.196,153.443 69.016,153.16C67.844,151.321 66.019,149.283 63.196,147.636C58.709,145.017 47.784,145.15 47.784,145.15C47.784,145.15 52.16,152.431 56.826,155.787C59.638,157.808 62.712,158.506 65.28,158.651C66.014,158.693 66.706,158.689 67.34,158.659Z" style="fill:rgb(255,255,255);"/>
                <path d="M86.807,152.616C85.938,154.743 85.133,157.099 84.781,159.195C84.606,160.245 84.539,161.234 84.559,162.162C84.634,165.642 85.912,168.259 87.083,169.937C87.474,170.498 87.853,170.953 88.17,171.303C88.298,171.441 88.415,171.564 88.52,171.669C88.834,171.985 89.033,172.145 89.033,172.145C89.033,172.145 90.385,171.481 91.745,169.654C92.085,169.197 92.426,168.668 92.746,168.057C92.906,167.753 93.062,167.428 93.209,167.081C93.43,166.561 93.633,165.995 93.811,165.377C93.87,165.171 93.926,164.959 93.979,164.742C94.297,163.438 94.498,161.927 94.512,160.181C94.516,159.705 94.479,159.194 94.407,158.661C94.384,158.483 94.357,158.303 94.325,158.12C94.264,157.755 94.188,157.381 94.101,157.001C94.057,156.811 94.01,156.62 93.961,156.428C93.715,155.466 93.404,154.478 93.065,153.514C91.705,149.655 89.878,146.164 89.878,146.164C89.878,146.164 88.254,149.071 86.807,152.616Z" style="fill:rgb(255,255,255);"/>
                <path d="M83.286,171.203C83.286,171.203 81.215,165.054 73.643,162.341C68.752,160.589 58.036,162.721 58.036,162.721C58.036,162.721 63.673,169.078 68.877,171.521C76.042,174.886 83.286,171.203 83.286,171.203Z" style="fill:rgb(255,255,255);"/>
                <path d="M107.503,181.993C107.503,181.993 111.629,177.543 108.226,168.854C106.37,164.114 98.605,157.514 98.605,157.514C98.605,157.514 97.446,165.958 98.641,171.501C100.44,179.827 107.503,181.993 107.503,181.993Z" style="fill:rgb(255,255,255);"/>
                <path d="M87.609,175.009C82.471,174.231 72.369,178.386 72.369,178.386C72.369,178.386 79.124,183.539 84.702,184.934C92.382,186.858 98.781,181.848 98.781,181.848C98.781,181.848 95.562,176.213 87.609,175.009Z" style="fill:rgb(255,255,255);"/>
                <path d="M115.835,188.954C115.835,188.954 111.255,184.356 103.264,185.273C98.101,185.864 89.436,192.517 89.436,192.517C89.436,192.517 97.306,195.724 103.056,195.612C110.972,195.462 115.835,188.954 115.835,188.954Z" style="fill:rgb(255,255,255);"/>
                <path d="M132.412,187.092C132.412,187.092 133.645,181.152 126.24,175.472C122.198,172.369 112.139,170.726 112.139,170.726C112.139,170.726 115.514,178.556 119.404,182.685C125.247,188.885 132.412,187.092 132.412,187.092Z" style="fill:rgb(255,255,255);"/>
                <path d="M122.226,191.881C117.129,192.897 109.044,200.238 109.044,200.238C109.044,200.238 117.152,202.788 122.873,202.202C130.748,201.399 135.059,194.514 135.059,194.514C135.059,194.514 130.115,190.308 122.226,191.881Z" style="fill:rgb(255,255,255);"/>
                <path d="M204.992,75.488C207.563,76.445 209.424,76.452 209.424,76.452C209.424,76.452 209.447,76.169 209.444,75.672C209.438,74.593 209.314,72.506 208.586,70.104C208.474,69.735 208.347,69.358 208.206,68.976C208.063,68.595 207.904,68.208 207.728,67.819C206.934,66.068 205.78,64.269 204.102,62.652C199.773,58.477 191.591,55.13 191.591,55.13C191.591,55.13 193.764,65.988 197.322,70.087C199.904,73.059 202.724,74.643 204.992,75.488Z" style="fill:rgb(255,255,255);"/>
                <path d="M213.684,81.867C215.281,85.685 217.649,87.566 217.649,87.566C217.649,87.566 218.828,86.304 219.97,84.144C220.046,84 220.123,83.852 220.198,83.7C220.349,83.397 220.498,83.078 220.642,82.744C220.929,82.076 221.198,81.349 221.423,80.571C221.536,80.182 221.637,79.78 221.726,79.366C222.079,77.708 222.214,75.858 221.949,73.869C221.174,68.09 216.963,60.627 216.963,60.627C216.963,60.627 212.044,70.197 212.28,75.454C212.392,77.996 212.959,80.132 213.684,81.867Z" style="fill:rgb(255,255,255);"/>
                <path d="M195.402,76.521C195.402,76.521 198.506,86.735 202.366,90.35C208.341,95.947 214.822,95.396 214.822,95.396C214.822,95.396 214.732,87.627 208.365,82.64C203.736,79.017 195.402,76.521 195.402,76.521Z" style="fill:rgb(255,255,255);"/>
                <path d="M220.076,98.367C220.037,99.701 220.155,100.921 220.367,102.016C220.437,102.381 220.517,102.731 220.606,103.068C220.871,104.077 221.207,104.955 221.545,105.69C222.338,107.406 223.153,108.343 223.153,108.343C223.153,108.343 226.388,106.273 228.645,102.42C228.953,101.894 229.243,101.336 229.503,100.744C229.59,100.548 229.674,100.347 229.754,100.143C230.235,98.918 230.586,97.564 230.721,96.087C230.77,95.55 230.792,94.993 230.79,94.424C230.788,93.665 230.745,92.885 230.672,92.103C230.582,91.126 230.445,90.147 230.284,89.206C230.219,88.83 230.151,88.46 230.08,88.098C229.443,84.844 228.609,82.288 228.609,82.288C228.609,82.288 221.347,90.444 220.384,95.549C220.198,96.536 220.102,97.477 220.076,98.367Z" style="fill:rgb(255,255,255);"/>
                <path d="M216.854,105.531C213.405,100.775 206.08,96.081 206.08,96.081C206.08,96.081 206.25,106.756 208.965,111.292C213.169,118.315 219.549,119.568 219.549,119.568C219.549,119.568 221.604,112.077 216.854,105.531Z" style="fill:rgb(255,255,255);"/>
                <path d="M229.508,110.137C228.478,110.932 227.475,111.781 226.609,112.64C225.742,113.5 225.01,114.372 224.524,115.215C223.645,116.739 223.074,118.217 222.717,119.598C222.564,120.189 222.451,120.763 222.37,121.314C222.315,121.681 222.275,122.039 222.248,122.386C222.22,122.732 222.205,123.068 222.199,123.391C222.196,123.553 222.196,123.711 222.198,123.866C222.208,124.642 222.273,125.337 222.361,125.931C222.43,126.407 222.515,126.818 222.596,127.155C222.677,127.492 222.755,127.755 222.813,127.933C222.871,128.112 222.909,128.206 222.909,128.206C222.909,128.206 230.818,126.333 234.101,119.136C234.474,118.318 234.793,117.422 235.066,116.49C235.175,116.118 235.277,115.739 235.372,115.358C235.61,114.406 235.804,113.437 235.963,112.496C236.599,108.731 236.671,105.414 236.671,105.414C236.671,105.414 232.94,107.485 229.508,110.137Z" style="fill:rgb(255,255,255);"/>
                <path d="M216.63,131.543C216.534,129.744 216.117,127.773 215.145,125.768C212.635,120.59 206.217,114.726 206.217,114.726C206.217,114.726 204.246,124.887 206.064,129.716C206.767,131.585 207.679,133.137 208.652,134.414C209.138,135.054 209.639,135.623 210.137,136.13C210.635,136.637 211.13,137.079 211.603,137.464C213.494,139.003 215.033,139.607 215.033,139.607C215.033,139.607 216.427,136.985 216.628,133.279C216.638,133.094 216.646,132.906 216.649,132.715C216.653,132.525 216.654,132.332 216.651,132.136C216.647,131.941 216.641,131.743 216.63,131.543Z" style="fill:rgb(255,255,255);"/>
                <path d="M231.577,139.345C235.759,135.399 239.129,127.602 239.129,127.602C239.129,127.602 228.283,128.917 224.182,132.108C217.835,137.045 217.787,143.533 217.787,143.533C217.787,143.533 225.82,144.775 231.577,139.345Z" style="fill:rgb(255,255,255);"/>
                <path d="M200.043,147.792C200.068,148.33 200.122,148.839 200.211,149.306C201.946,158.454 207.738,160.104 207.738,160.104C207.738,160.104 212.497,154.612 209.61,146.601C207.689,141.27 202.271,134.688 202.271,134.688C202.271,134.688 202.245,134.773 202.198,134.931C202.167,135.035 202.126,135.173 202.078,135.339C201.933,135.838 201.721,136.597 201.488,137.521C201.138,138.909 200.739,140.67 200.447,142.488C200.381,142.891 200.322,143.298 200.269,143.704C200.216,144.11 200.17,144.515 200.133,144.917C200.078,145.518 200.041,146.11 200.03,146.681C200.026,146.872 200.025,147.059 200.028,147.245C200.03,147.431 200.035,147.613 200.043,147.792Z" style="fill:rgb(255,255,255);"/>
                <path d="M233.474,145.598C233.325,145.602 233.169,145.607 233.009,145.613C231.726,145.663 230.099,145.761 228.4,145.951C228.188,145.975 227.974,146.001 227.76,146.027C227.118,146.108 226.47,146.202 225.831,146.313C225.405,146.387 224.983,146.468 224.569,146.556C222.914,146.913 221.389,147.395 220.268,148.051C218.097,149.317 216.516,150.815 215.368,152.276C212.843,155.491 212.415,158.527 212.415,158.527C212.415,158.527 220.211,160.822 226.638,156.202C227.659,155.469 228.666,154.547 229.616,153.555C229.887,153.27 230.154,152.981 230.416,152.689C230.676,152.396 230.932,152.101 231.181,151.806C231.43,151.51 231.672,151.214 231.908,150.921C232.259,150.48 232.594,150.046 232.909,149.626C234.586,147.386 235.68,145.565 235.68,145.565C235.68,145.565 234.816,145.555 233.474,145.598Z" style="fill:rgb(255,255,255);"/>
                <path d="M194.431,172.56C194.431,172.56 200.093,168.003 198.682,159.61C197.745,154.022 193.586,146.579 193.586,146.579C193.586,146.579 188.909,155.514 188.952,160.596C189.026,169.906 194.431,172.56 194.431,172.56Z" style="fill:rgb(255,255,255);"/>
                <path d="M209.821,162.756C202.249,165.469 200.177,171.618 200.177,171.618C200.177,171.618 207.421,175.301 214.587,171.936C219.791,169.493 225.428,163.136 225.428,163.136C225.428,163.136 214.711,161.004 209.821,162.756Z" style="fill:rgb(255,255,255);"/>
                <path d="M184.823,171.916C186.018,166.373 184.859,157.927 184.859,157.927C184.859,157.927 177.094,164.526 175.238,169.269C171.835,177.958 175.961,182.405 175.961,182.405C175.961,182.405 183.025,180.24 184.823,171.916Z" style="fill:rgb(255,255,255);"/>
                <path d="M195.855,175.424C187.903,176.626 184.683,182.26 184.683,182.26C184.683,182.26 191.082,187.27 198.761,185.349C204.34,183.954 211.095,178.801 211.095,178.801C211.095,178.801 200.993,174.646 195.855,175.424Z" style="fill:rgb(255,255,255);"/>
                <path d="M167.629,189.367C167.629,189.367 172.493,195.875 180.409,196.028C186.158,196.138 194.029,192.93 194.029,192.93C194.029,192.93 185.363,186.279 180.2,185.686C172.21,184.771 167.629,189.367 167.629,189.367Z" style="fill:rgb(255,255,255);"/>
                <path d="M164.061,183.098C167.951,178.972 171.326,171.141 171.326,171.141C171.326,171.141 161.267,172.784 157.224,175.884C149.819,181.567 151.052,187.508 151.052,187.508C151.052,187.508 158.217,189.298 164.061,183.098Z" style="fill:rgb(255,255,255);"/>
                <path d="M148.406,194.927C148.406,194.927 152.716,201.815 160.591,202.617C166.312,203.2 174.42,200.653 174.42,200.653C174.42,200.653 166.336,193.309 161.239,192.296C153.35,190.724 148.406,194.927 148.406,194.927Z" style="fill:rgb(255,255,255);"/>
                <path d="M162.528,104.643C163.223,105.009 164.006,105.229 164.771,105.437C165.739,105.701 166.728,105.887 167.645,106.092C166.03,107.806 164.494,109.437 162.743,111.296C162.279,111.355 161.813,111.384 161.346,111.384C159.016,111.384 156.659,110.661 154.434,109.311C153.652,108.836 153.041,108.252 152.696,107.371C152.374,106.547 151.943,105.766 151.592,105.033C150.826,104.496 150.038,104.29 149.209,104.29C149.052,104.29 148.895,104.297 148.736,104.311C147.103,104.453 146.35,105.465 146.759,107.062C146.912,107.659 147.147,108.252 147.45,108.788C149.848,113.032 155.977,117.97 160.457,119.479C160.457,119.479 157.105,121.11 153.484,123.463C153.028,123.295 152.582,123.131 152.227,123C151.98,122.484 151.791,122.089 151.556,121.599C150.535,121.279 149.498,120.856 148.419,120.643C148.257,120.611 148.105,120.595 147.963,120.595C147.095,120.595 146.63,121.187 146.675,122.203C146.735,123.524 147.167,124.723 148.087,125.714C149.707,127.458 151.733,128.511 153.974,129.216C154.549,129.397 155.124,129.493 155.697,129.493C156.213,129.493 156.731,129.415 157.25,129.249C158.591,128.822 159.931,128.389 161.308,127.946C163.095,131.294 161.831,133.548 161.831,133.548C161.831,133.548 159.812,135.091 158.866,135.823C158.054,136.451 157.603,137.3 157.384,138.285C156.929,140.336 156.694,142.404 156.957,144.506C157.121,145.818 157.286,147.131 157.449,148.432C157.161,148.607 156.891,148.681 156.626,148.681C156.34,148.681 156.06,148.597 155.763,148.467C155.036,148.146 154.271,147.902 153.506,147.681C153.335,147.632 153.17,147.608 153.012,147.608C152.525,147.608 152.097,147.836 151.706,148.242C150.237,149.765 150.254,150.765 151.846,152.147C152.113,152.379 152.402,152.597 152.711,152.767C155.297,154.2 158.126,154.92 160.889,155.615C162.143,154.537 162.353,153.963 162.469,152.425C162.545,151.42 162.614,150.33 163.044,149.454C164.048,147.405 165.484,145.636 167.33,144.252C167.767,143.924 168.242,143.615 168.855,143.615C169.03,143.615 169.215,143.639 169.416,143.696C170.523,146.057 172.109,148.146 174.334,149.584C173.659,150.313 173.074,150.98 172.452,151.611C171.477,152.598 171.268,153.988 171.938,155.263C172.349,156.044 173.035,156.443 174.016,156.443C174.265,156.443 174.534,156.417 174.822,156.365C176.546,156.056 177.976,155.185 179.167,153.93C179.961,153.091 180.665,152.162 181.485,151.35C182.405,150.441 182.672,149.432 182.35,148.195C181.959,146.692 181.603,145.179 181.271,143.661C180.664,140.895 180.484,138.182 182.512,135.747C182.459,135.169 182.429,134.549 182.338,133.938C181.869,130.779 180.663,127.869 179.233,125.048C178.878,124.346 178.723,123.66 178.726,122.885C178.743,117.458 178.724,112.032 178.744,106.605C178.75,105 178.721,103.414 178.309,101.844C178.131,101.17 178.165,100.441 178.11,99.824C179.174,98.52 179.474,98.157 178.109,96.508C177.553,95.837 177.142,95.515 176.608,95.515C176.126,95.515 175.544,95.777 174.665,96.281C172.93,95.808 171.622,95.581 170.555,95.581C168.582,95.581 167.433,96.357 165.924,97.784C164.613,97.949 163.3,98.113 161.972,98.278C161.682,99.492 161.375,100.605 161.155,101.735C160.908,103.005 161.371,104.034 162.528,104.643Z" style="fill:rgb(255,255,255);fill-rule:nonzero;"/>
                <path d="M161.403,96.923L160.826,96.995L160.597,97.948C160.538,98.196 160.478,98.434 160.418,98.675L161.403,96.923Z" style="fill:rgb(255,255,255);fill-rule:nonzero;"/>
                <path d="M114,140.731C114.193,140.676 114.374,140.652 114.543,140.652C115.137,140.652 115.596,140.952 116.02,141.269C117.808,142.609 119.746,145.967 120.719,147.951C121.135,148.8 121.202,149.855 121.275,150.828C121.387,152.318 121.591,152.874 122.805,153.918C125.482,153.244 128.22,152.548 130.726,151.16C130.901,149.428 127.46,146.901 126.88,146.551C127.039,145.29 126.455,144.431 126.614,143.159C126.869,141.124 126.64,139.121 126.199,137.134C125.988,136.181 125.551,135.358 124.765,134.75C123.848,134.041 121.894,132.547 121.894,132.547C121.894,132.547 120.669,129.657 122.4,126.415C123.733,126.843 125.031,127.262 126.33,127.677C127.24,127.967 128.345,128.233 129.139,128.233C129.269,128.233 129.391,128.225 129.503,128.21C131.007,128 133.634,127.215 135.204,125.526C136.095,124.566 133.503,121.38 132.977,121.205C132.65,121.096 132.357,121.05 132.095,121.05C130.88,121.05 130.326,122.03 129.963,122.164C126.333,121.273 123.224,118.922 123.224,118.922C127.563,117.46 133.498,114.519 135.821,110.409C136.114,109.89 136.341,109.315 136.49,108.738C136.885,107.191 136.89,106.374 134.873,105.541C134.307,105.308 133.869,105.062 133.3,105.062C132.961,105.062 132.574,105.15 132.086,105.381C131.376,105.718 130.647,107.368 131.084,108.086C130.75,108.94 129.813,109.163 129.057,109.622C126.903,110.93 124.619,111.63 122.363,111.63C121.911,111.63 121.46,111.602 121.01,111.545C120.596,111.105 120.195,110.679 119.801,110.261C120.626,109.743 121.339,109.085 121.972,108.328C123.044,107.044 123.711,105.554 124.237,103.979C124.781,102.347 125.586,100.904 127.419,100.252C127.021,100.073 126.637,100.007 126.261,100.007C125.791,100.007 125.332,100.11 124.871,100.224C124.884,100.173 124.883,100.152 124.893,100.141C124.969,100.065 125.044,99.988 125.125,99.917C126.515,98.687 127.586,97.222 128.289,95.504C129.44,92.696 129.574,89.888 128.2,87.104C127.72,86.133 127.213,85.174 126.718,84.21C126.255,83.31 125.774,82.42 125.335,81.509C125.036,80.889 124.802,80.239 124.791,79.536C124.782,78.985 125.07,78.693 125.609,78.683C126.05,78.675 126.155,78.613 126.084,78.193C125.994,77.664 125.856,77.132 125.653,76.637C125.476,76.206 125.061,76.013 124.594,75.996C124.562,75.995 124.53,75.994 124.498,75.994C123.097,75.994 121.855,77.059 121.666,78.454C121.617,78.81 121.609,79.177 121.628,79.535C121.702,80.877 122.211,82.094 122.698,83.324C123.195,84.583 123.66,85.857 124.077,87.145C124.428,88.231 124.621,89.358 124.576,90.509C124.499,92.456 123.453,93.675 121.546,94.06C121.494,94.071 121.439,94.078 121.385,94.084C120.128,94.224 118.869,94.349 117.614,94.506C115.327,94.793 113.177,95.499 111.195,96.689C111.082,96.757 110.982,96.848 110.828,96.966C112.247,97.04 113.574,97.175 114.788,97.821C114.731,97.842 114.677,97.85 114.625,97.85C114.588,97.85 114.553,97.846 114.519,97.839C113.594,97.637 112.661,97.542 111.72,97.542C111.486,97.542 111.251,97.548 111.014,97.559C109.35,97.642 107.812,98.102 106.478,99.136C104.982,100.295 104.156,101.819 104.192,103.715C104.236,105.971 105.029,107.915 106.557,109.485C104.61,113.602 105.517,117.849 105.532,122.22C105.534,122.971 105.384,123.635 105.04,124.315C103.914,126.537 102.938,128.818 102.366,131.237C102.356,131.244 102.346,131.253 102.337,131.263C100.201,133.94 99.228,136.926 99.959,140.351C100.044,140.75 100.047,141.091 99.848,141.471C99.511,142.111 99.528,142.766 99.961,143.386C100.29,143.854 100.224,144.325 99.935,144.794C99.845,144.941 99.792,145.111 99.726,145.273C100.318,144.948 100.855,144.57 101.14,143.919C101.493,143.114 101.363,142.323 101.016,141.577C100.704,140.906 100.571,140.216 100.547,139.493C100.492,137.762 100.783,136.136 101.926,134.758C103.821,137.096 103.647,139.693 103.067,142.341C102.745,143.81 102.4,145.276 102.021,146.732C101.709,147.931 100.973,153.068 101.864,153.949C102.659,154.734 107.094,154.345 108.764,154.645C108.799,154.651 108.833,154.654 108.865,154.654C110.113,154.654 109.571,150.117 108.933,149.428C111.088,148.035 112.927,143.017 114,140.731Z" style="fill:rgb(255,255,255);fill-rule:nonzero;"/>
                <path d="M124.077,87.145C124.382,88.09 124.557,89.067 124.571,90.063C126.019,89.734 127.48,89.448 128.957,89.209C128.795,88.506 128.545,87.804 128.2,87.104C127.944,86.586 127.674,86.074 127.409,85.559C126.183,85.772 124.973,86.01 123.78,86.28C123.878,86.568 123.983,86.855 124.077,87.145Z" style="fill:rgb(255,255,255);fill-rule:nonzero;"/>
                <path d="M132.684,105.156C132.502,105.206 132.305,105.278 132.086,105.381C131.376,105.718 130.647,107.368 131.084,108.086C130.75,108.94 129.813,109.163 129.057,109.622C128.534,109.94 128.003,110.221 127.466,110.465C129.767,111.199 132.147,111.753 134.585,112.126C135.06,111.578 135.482,111.008 135.821,110.409C136.114,109.89 136.341,109.315 136.49,108.738C136.588,108.349 136.664,108.007 136.688,107.699C135.294,107.095 133.972,106.256 132.684,105.156Z" style="fill:rgb(255,255,255);fill-rule:nonzero;"/>
                <path d="M121.385,94.084C121.156,94.109 120.926,94.134 120.697,94.158C121.818,96.764 123.217,99.518 125.061,102.163C125.587,101.328 126.314,100.645 127.419,100.252C127.021,100.073 126.637,100.007 126.261,100.007C125.791,100.007 125.332,100.11 124.871,100.224C124.884,100.173 124.883,100.152 124.893,100.141C124.969,100.065 125.044,99.988 125.125,99.917C125.777,99.34 126.352,98.707 126.858,98.024C125.856,96.343 124.93,94.495 124.064,92.418C123.568,93.265 122.722,93.823 121.546,94.06C121.494,94.071 121.439,94.078 121.385,94.084Z" style="fill:rgb(255,255,255);fill-rule:nonzero;"/>
                <path d="M121.982,108.314C122.826,107.3 123.415,106.155 123.884,104.944C119.818,103.106 116.124,100.662 112.738,97.595C112.399,97.569 112.061,97.542 111.72,97.542C111.486,97.542 111.251,97.548 111.014,97.559C109.912,97.614 108.866,97.84 107.895,98.283C111.91,102.436 116.68,105.851 121.982,108.314Z" style="fill:rgb(255,255,255);fill-rule:nonzero;"/>
                <path d="M110.828,96.966C111.285,96.99 111.732,97.022 112.169,97.074C111.965,96.883 111.766,96.677 111.564,96.48C111.441,96.55 111.317,96.616 111.195,96.689C111.082,96.757 110.982,96.848 110.828,96.966Z" style="fill:rgb(255,255,255);fill-rule:nonzero;"/>
                <path d="M162.528,104.643C163.223,105.009 164.006,105.229 164.771,105.437C165.241,105.565 165.715,105.674 166.185,105.777C169.222,103.912 172.077,101.697 174.685,99.133C175.714,98.12 176.685,97.065 177.608,95.98C177.277,95.676 176.969,95.515 176.608,95.515C176.126,95.515 175.544,95.777 174.665,96.281C173.886,96.068 173.204,95.913 172.581,95.798C169.272,99.149 165.643,101.849 161.635,103.927C161.864,104.203 162.156,104.447 162.528,104.643Z" style="fill:rgb(255,255,255);fill-rule:nonzero;"/>
                <path d="M154.434,109.311C153.652,108.836 153.041,108.252 152.696,107.371C152.374,106.547 151.943,105.766 151.592,105.033C151.454,104.936 151.313,104.861 151.172,104.785C149.798,106.018 148.396,106.965 146.944,107.628C147.083,108.029 147.244,108.423 147.45,108.788C148.037,109.826 148.848,110.905 149.803,111.966C152.046,111.576 154.249,111.025 156.398,110.317C155.735,110.034 155.079,109.702 154.434,109.311Z" style="fill:rgb(255,255,255);fill-rule:nonzero;"/>
                <path d="M139.752,42.96C133.961,42.836 128.539,42.137 123.228,40.827C123.345,40.551 123.461,40.274 123.575,39.999C124.077,38.796 124.551,37.659 125.083,36.531C126.988,32.481 129.205,29.294 131.862,26.788C134.361,24.43 136.942,23.048 139.752,22.562L139.752,42.96ZM139.735,63.617L119.166,63.617C119.341,56.758 120.285,50.493 122.04,44.517C127.684,45.941 133.488,46.717 139.735,46.882L139.735,63.617ZM110.379,35.896C113.189,32.93 116.394,30.383 119.919,28.315C122.827,26.61 125.835,25.284 129.044,24.302C124.176,29.081 121.445,34.921 119.584,39.806C116.158,38.716 113.131,37.431 110.379,35.896ZM117.175,88.123C115.796,88.629 114.371,89.154 113.003,89.747C111.648,90.334 110.359,90.982 108.995,91.669C108.586,91.874 108.175,92.081 107.759,92.287C102.15,85.09 99.059,76.785 98.565,67.583L115.297,67.583C115.496,74.845 116.5,81.437 118.359,87.685C117.962,87.833 117.568,87.978 117.175,88.123ZM107.758,38.915C108.165,39.117 108.568,39.32 108.97,39.522C110.279,40.181 111.633,40.863 113.001,41.456C114.37,42.05 115.796,42.574 117.175,43.081C117.567,43.225 117.961,43.37 118.356,43.517C116.495,49.788 115.492,56.379 115.3,63.614L98.565,63.614C99.057,54.434 102.147,46.132 107.758,38.915ZM143.7,22.561C144.59,22.696 145.511,22.966 146.491,23.379C149.103,24.476 151.46,26.329 153.698,29.044C156.342,32.253 158.415,36.015 160.19,40.839C154.904,42.141 149.493,42.837 143.7,42.96L143.7,22.561ZM173.107,35.876C170.379,37.408 167.342,38.7 163.868,39.806C161.983,34.859 159.212,28.937 154.274,24.162C160.607,26.056 169.466,31.472 173.107,35.876ZM175.651,38.868C181.277,46.096 184.382,54.412 184.886,63.604L168.153,63.604C167.951,56.35 166.943,49.748 165.078,43.475C169.045,42.199 172.518,40.685 175.651,38.868ZM175.653,92.337C172.524,90.521 169.052,89.008 165.081,87.729C166.95,81.422 167.958,74.817 168.151,67.589L184.885,67.589C184.392,76.757 181.289,85.076 175.653,92.337ZM143.71,63.618L143.71,46.884C149.979,46.715 155.785,45.937 161.408,44.516C163.164,50.469 164.107,56.734 164.286,63.618L143.71,63.618ZM161.409,86.688C155.825,85.288 150.019,84.53 143.706,84.375L143.706,67.587L164.285,67.587C164.107,74.459 163.165,80.723 161.409,86.688ZM143.698,108.641L143.698,88.244C149.484,88.366 154.905,89.066 160.218,90.375C160.111,90.633 160.004,90.89 159.899,91.147C159.414,92.319 158.956,93.427 158.441,94.525C156.913,97.787 155.19,100.483 153.217,102.717C153.217,102.717 154.177,103.986 154.454,104.438C154.689,104.822 154.963,105.431 155.219,106.067C156.581,104.627 157.76,103.107 158.795,101.557L161.909,96.025C162.664,94.432 163.306,92.871 163.867,91.398C165.444,91.899 166.926,92.447 168.344,93.035C169.006,92.861 169.731,92.752 170.555,92.752C171.631,92.752 172.818,92.914 174.307,93.268C175.017,92.934 175.776,92.686 176.608,92.686C177.837,92.686 178.75,93.216 179.389,93.765C185.419,85.762 188.718,76.119 188.796,65.987C188.997,40.05 168.078,18.761 142.165,18.53C142.022,18.529 141.879,18.528 141.736,18.528C129.256,18.528 117.498,23.387 108.583,32.238C99.588,41.166 94.646,52.996 94.666,65.546C94.626,77.184 98.885,87.871 105.934,96.121C106.785,95.638 107.702,95.268 108.691,95.035L109.116,94.713L109.204,94.643C109.322,94.549 109.502,94.406 109.738,94.263C112.003,92.904 114.535,92.041 117.262,91.699C117.987,91.608 118.707,91.531 119.419,91.454C119.474,91.436 119.525,91.416 119.582,91.398C119.586,91.41 119.59,91.422 119.595,91.434C119.693,91.424 119.794,91.411 119.891,91.4C120.273,91.359 120.654,91.318 121.044,91.275C121.623,91.151 121.724,91.015 121.749,90.397C121.778,89.654 121.656,88.853 121.385,88.016C121.008,86.853 120.564,85.624 120.066,84.365L119.987,84.163C119.476,82.876 118.898,81.417 118.803,79.689C118.773,79.126 118.793,78.582 118.862,78.072C118.981,77.195 119.301,76.386 119.772,75.688C119.444,73.075 119.238,70.388 119.165,67.594L139.736,67.594L139.736,84.371C136.469,84.457 133.356,84.7 130.354,85.102C130.483,85.354 130.61,85.597 130.737,85.852C131.213,86.818 131.543,87.807 131.753,88.812C134.347,88.494 136.999,88.303 139.741,88.243L139.741,108.628C139.741,108.628 138.593,111.598 137.842,112.502C138.981,112.595 140.127,112.662 141.286,112.673C141.429,112.674 141.57,112.674 141.713,112.674C143.012,112.674 144.302,112.619 145.584,112.513C144.843,111.394 143.698,108.641 143.698,108.641Z" style="fill:rgb(255,255,255);fill-rule:nonzero;"/>
            </g>
        </g>
    </g>
</svg>
