<?xml version="1.0" standalone="no"?>
<!DOCTYPE svg PUBLIC "-//W3C//DTD SVG 1.1//EN" "http://www.w3.org/Graphics/SVG/1.1/DTD/svg11.dtd">
<svg width="100%" height="100%" viewBox="0 0 3200 3200" version="1.1" xmlns="http://www.w3.org/2000/svg" xmlns:xlink="http://www.w3.org/1999/xlink" xml:space="preserve" style="fill-rule:evenodd;clip-rule:evenodd;">
    <g id="white bground" transform="matrix(1.28242,0,0,1.28242,-450.891,-459.461)">
        <g transform="matrix(0.987399,0,0,0.999488,17.8197,0.305444)">
            <rect x="1414.16" y="597.071" width="365.884" height="197.619" style="fill:white;"/>
        </g>
        <g transform="matrix(0.999866,0,0,0.996028,0.198589,3.1561)">
            <rect x="1485.85" y="794.588" width="217.533" height="65.971" style="fill:white;"/>
        </g>
        <g transform="matrix(1.00404,0,0,0.936934,-6.58875,54.2559)">
            <rect x="1558.98" y="860.297" width="71.999" height="85.262" style="fill:white;"/>
        </g>
        <rect x="1341.83" y="1375.01" width="521.961" height="251.746" style="fill:white;"/>
        <g transform="matrix(1.12274,-0.085218,0.0752568,0.991504,690.02,103.87)">
            <rect x="974.578" y="1057.32" width="245.126" height="1001.56" style="fill:white;"/>
        </g>
        <g transform="matrix(0.447748,0.000204539,-0.000394629,0.863866,1054.21,216.742)">
            <rect x="1832.22" y="1478.59" width="84.708" height="216.577" style="fill:white;"/>
        </g>
        <g transform="matrix(1.12481,0.0510533,-0.0450856,0.993334,-66.1814,-48.9212)">
            <rect x="974.578" y="1057.32" width="245.126" height="1001.56" style="fill:white;"/>
        </g>
    </g>
    <g id="World&apos;s most annoying curve" transform="matrix(33.5485,0,0,34.8889,-2661.98,-13517.7)">
        <path d="M127.884,428.357L127.925,428.365L127.966,428.374L128.007,428.383L128.048,428.392L128.088,428.402L128.129,428.411L128.169,428.421L128.21,428.431L128.25,428.44L128.291,428.45L128.331,428.46L128.371,428.471L128.411,428.481L128.451,428.492L128.491,428.502L128.531,428.513L128.571,428.524L128.611,428.535L128.651,428.546L128.69,428.557L128.73,428.569L128.79,428.586L128.829,428.598L128.869,428.61L128.928,428.628L128.967,428.64L129.006,428.652L129.045,428.664L129.084,428.677L129.143,428.696L129.182,428.709L129.24,428.728L129.298,428.748L129.356,428.768L129.414,428.788L129.472,428.808L129.53,428.829L129.587,428.85L129.645,428.871L129.702,428.893L129.759,428.915L129.816,428.937L129.872,428.959L129.929,428.981L129.985,429.004L130.042,429.027L130.098,429.05L130.154,429.073L130.21,429.097L130.266,429.121L130.321,429.145L130.377,429.169L130.432,429.194L130.487,429.218L130.542,429.243L130.597,429.269L130.652,429.294L130.706,429.32L130.761,429.345L130.815,429.371L130.869,429.398L130.923,429.424L130.977,429.451L131.031,429.478L131.084,429.505L131.138,429.532L131.191,429.559L131.244,429.587L131.297,429.615L131.35,429.642L131.402,429.671L131.455,429.699L131.507,429.727L131.559,429.756L131.611,429.785L131.663,429.814L131.715,429.843L131.766,429.873L131.818,429.902L131.869,429.932L131.92,429.962L131.971,429.992L132.022,430.022L132.072,430.052L132.123,430.083L132.173,430.113L132.223,430.144L132.274,430.175L132.323,430.206L132.373,430.238L132.423,430.269L132.472,430.301L132.521,430.332L132.554,430.353L132.587,430.375L132.619,430.396L132.652,430.417L132.684,430.439L132.717,430.46L132.749,430.482L132.781,430.503L132.814,430.525L132.846,430.547L132.878,430.568L132.91,430.59L132.942,430.612L132.973,430.634L133.005,430.656L133.037,430.678L133.069,430.7L133.1,430.722L133.132,430.744L133.163,430.767L133.194,430.789L133.226,430.811L133.257,430.834L133.288,430.856L133.319,430.879L133.35,430.901L133.381,430.924L133.412,430.946L133.442,430.969L133.473,430.991L133.504,431.014L133.534,431.037L133.565,431.06L133.595,431.083L133.626,431.106L133.656,431.128L133.686,431.151L133.716,431.174L133.746,431.197L133.776,431.221L133.806,431.244L133.836,431.267L133.866,431.29L133.895,431.313L133.925,431.336L133.954,431.36L133.984,431.383L134.013,431.406L134.043,431.43L134.072,431.453L134.101,431.477L134.13,431.5L134.159,431.524L134.188,431.547L134.217,431.571L134.246,431.594L134.275,431.618L134.303,431.642L134.332,431.665L134.36,431.689L134.389,431.713L134.417,431.736L134.445,431.76L134.474,431.784L134.502,431.808L134.53,431.832L134.558,431.855L134.586,431.879L134.614,431.903L134.641,431.927L134.669,431.951L134.697,431.975L134.724,431.999L134.752,432.023L134.779,432.047L134.806,432.071L134.834,432.095L134.861,432.119L134.888,432.143L134.915,432.167L134.942,432.191L134.969,432.215L134.996,432.239L135.022,432.264L135.076,432.312L135.102,432.336L135.128,432.36L135.181,432.408L135.207,432.433L135.259,432.481L135.311,432.529L135.363,432.578L135.414,432.626L135.465,432.675L135.516,432.723L135.566,432.771L135.616,432.82L135.665,432.868L135.715,432.917L135.764,432.965L135.813,433.013L135.861,433.062L135.909,433.11L135.957,433.158L136.005,433.206L136.052,433.254L136.099,433.302L136.145,433.35L136.191,433.398L136.237,433.446L136.283,433.494L136.328,433.542L136.373,433.589L136.418,433.637L136.462,433.684L136.506,433.731L136.55,433.779L136.593,433.826L136.636,433.873L136.679,433.92L136.721,433.966L136.763,434.013L136.805,434.059L136.846,434.106L136.888,434.152L136.928,434.198L136.969,434.244L137.009,434.29L137.049,434.335L137.088,434.381L137.127,434.426L137.166,434.471L137.204,434.516L137.242,434.561L137.28,434.605L137.318,434.65L137.355,434.694L137.391,434.738L137.428,434.781L137.464,434.825L137.5,434.868L137.535,434.911L137.57,434.954L137.605,434.997L137.639,435.039L137.673,435.081L137.707,435.123L137.741,435.165L137.79,435.227L137.823,435.268L137.855,435.309L137.887,435.349L137.934,435.409L137.98,435.469L138.025,435.527L138.07,435.586L138.114,435.643L138.157,435.7L138.186,435.737L138.214,435.775L138.241,435.811L138.269,435.848L138.295,435.884L138.322,435.92L138.348,435.955L138.374,435.99L138.4,436.025L138.425,436.059L138.45,436.093L138.474,436.127L138.498,436.16L138.522,436.193L138.545,436.226L138.568,436.258L138.591,436.289L138.613,436.321L138.635,436.352L138.656,436.382L138.677,436.412L138.698,436.442L138.739,436.5L138.778,436.556L138.815,436.611L138.851,436.663L138.886,436.714L138.919,436.763L138.95,436.81L138.98,436.855L139.009,436.898L139.036,436.939L139.061,436.978L139.097,437.033L139.129,437.082L139.157,437.127L139.174,437.154L139.204,437.201L139.227,437.238L139.254,437.282L139.274,437.315L139.294,437.376L140.78,450.529L140.148,450.595L138.673,437.539L138.67,437.534L138.658,437.515L138.645,437.494L138.631,437.471L138.614,437.445L138.606,437.432L138.597,437.418L138.587,437.403L138.577,437.388L138.567,437.372L138.557,437.356L138.546,437.339L138.534,437.321L138.523,437.303L138.511,437.285L138.498,437.266L138.485,437.246L138.472,437.226L138.458,437.205L138.445,437.184L138.43,437.163L138.415,437.141L138.4,437.118L138.385,437.095L138.369,437.072L138.353,437.048L138.336,437.023L138.319,436.998L138.302,436.973L138.284,436.947L138.266,436.921L138.248,436.894L138.229,436.867L138.21,436.84L138.191,436.812L138.171,436.783L138.15,436.754L138.13,436.725L138.109,436.695L138.088,436.665L138.066,436.635L138.044,436.604L138.021,436.573L137.999,436.541L137.976,436.509L137.952,436.477L137.928,436.444L137.904,436.411L137.88,436.377L137.855,436.343L137.83,436.309L137.804,436.274L137.778,436.24L137.752,436.204L137.725,436.169L137.698,436.133L137.671,436.097L137.643,436.06L137.615,436.023L137.601,436.005L137.587,435.986L137.573,435.967L137.558,435.948L137.544,435.93L137.529,435.911L137.515,435.892L137.5,435.873L137.485,435.853L137.47,435.834L137.455,435.815L137.44,435.796L137.425,435.776L137.41,435.757L137.394,435.737L137.379,435.717L137.364,435.698L137.348,435.678L137.332,435.658L137.316,435.638L137.301,435.618L137.285,435.598L137.269,435.578L137.253,435.558L137.236,435.538L137.22,435.517L137.204,435.497L137.187,435.477L137.171,435.456L137.154,435.435L137.138,435.415L137.121,435.394L137.104,435.374L137.087,435.353L137.07,435.332L137.053,435.311L137.036,435.29L137.019,435.269L137.001,435.248L136.984,435.227L136.966,435.206L136.949,435.184L136.931,435.163L136.913,435.142L136.896,435.121L136.878,435.099L136.86,435.078L136.842,435.056L136.823,435.035L136.805,435.013L136.787,434.991L136.769,434.97L136.75,434.948L136.731,434.926L136.713,434.904L136.694,434.882L136.675,434.86L136.656,434.838L136.637,434.816L136.618,434.794L136.599,434.772L136.58,434.75L136.561,434.728L136.541,434.705L136.522,434.683L136.502,434.661L136.483,434.639L136.463,434.616L136.443,434.594L136.424,434.571L136.404,434.549L136.384,434.526L136.364,434.504L136.343,434.481L136.323,434.458L136.303,434.436L136.282,434.413L136.262,434.39L136.241,434.368L136.221,434.345L136.2,434.322L136.179,434.299L136.158,434.276L136.137,434.253L136.116,434.23L136.095,434.207L136.074,434.184L136.053,434.161L136.031,434.138L136.01,434.115L135.989,434.092L135.967,434.069L135.945,434.046L135.924,434.023L135.902,434L135.88,433.976L135.858,433.953L135.836,433.93L135.814,433.907L135.792,433.883L135.769,433.86L135.747,433.837L135.725,433.813L135.702,433.79L135.679,433.767L135.657,433.743L135.634,433.72L135.611,433.697L135.588,433.673L135.565,433.65L135.542,433.626L135.519,433.603L135.496,433.579L135.473,433.556L135.45,433.532L135.426,433.509L135.403,433.485L135.379,433.462L135.356,433.438L135.332,433.415L135.308,433.391L135.284,433.368L135.26,433.344L135.236,433.321L135.212,433.297L135.188,433.274L135.164,433.25L135.14,433.226L135.115,433.203L135.091,433.179L135.066,433.156L135.042,433.132L135.017,433.109L134.992,433.085L134.967,433.062L134.943,433.038L134.918,433.014L134.893,432.991L134.868,432.967L134.842,432.944L134.817,432.92L134.792,432.897L134.766,432.873L134.741,432.85L134.715,432.826L134.69,432.803L134.664,432.779L134.638,432.756L134.613,432.732L134.587,432.709L134.561,432.686L134.535,432.662L134.509,432.639L134.482,432.615L134.456,432.592L134.43,432.569L134.403,432.545L134.377,432.522L134.35,432.499L134.324,432.475L134.297,432.452L134.27,432.429L134.244,432.405L134.217,432.382L134.19,432.359L134.163,432.336L134.136,432.313L134.108,432.29L134.081,432.266L134.054,432.243L134.027,432.22L133.999,432.197L133.972,432.174L133.944,432.151L133.916,432.128L133.889,432.105L133.861,432.082L133.833,432.059L133.805,432.037L133.777,432.014L133.749,431.991L133.721,431.968L133.693,431.945L133.664,431.923L133.636,431.9L133.608,431.877L133.579,431.855L133.551,431.832L133.522,431.81L133.493,431.787L133.465,431.765L133.436,431.742L133.407,431.72L133.378,431.697L133.349,431.675L133.32,431.653L133.291,431.631L133.262,431.608L133.232,431.586L133.203,431.564L133.174,431.542L133.144,431.52L133.115,431.498L133.085,431.476L133.055,431.454L133.026,431.432L132.996,431.41L132.966,431.388L132.936,431.367L132.906,431.345L132.876,431.323L132.846,431.302L132.816,431.28L132.785,431.259L132.755,431.237L132.725,431.216L132.694,431.194L132.664,431.173L132.633,431.152L132.603,431.131L132.572,431.11L132.541,431.089L132.51,431.067L132.479,431.046L132.448,431.026L132.417,431.005L132.386,430.984L132.355,430.963L132.324,430.942L132.293,430.922L132.261,430.901L132.23,430.881L132.198,430.86L132.167,430.84L132.151,430.83L132.135,430.819L132.119,430.809L132.104,430.799L132.088,430.789L132.072,430.779L132.056,430.769L132.04,430.759L132.024,430.749L132.008,430.739L131.992,430.729L131.976,430.719L131.96,430.709L131.944,430.699L131.928,430.689L131.912,430.679L131.896,430.669L131.88,430.659L131.864,430.649L131.848,430.639L131.832,430.629L131.816,430.62L131.8,430.61L131.784,430.6L131.767,430.59L131.751,430.58L131.735,430.571L131.719,430.561L131.703,430.551L131.686,430.541L131.67,430.532L131.654,430.522L131.638,430.512L131.621,430.503L131.605,430.493L131.589,430.484L131.572,430.474L131.556,430.464L131.54,430.455L131.523,430.445L131.507,430.436L131.49,430.426L131.474,430.417L131.458,430.407L131.441,430.398L131.425,430.389L131.408,430.379L131.392,430.37L131.375,430.36L131.359,430.351L131.342,430.342L131.325,430.333L131.309,430.323L131.292,430.314L131.276,430.305L131.259,430.296L131.242,430.286L131.226,430.277L131.209,430.268L131.192,430.259L131.176,430.25L131.159,430.241L131.142,430.231L131.125,430.222L131.109,430.213L131.092,430.204L131.075,430.195L131.058,430.186L131.041,430.177L131.025,430.168L131.008,430.159L130.991,430.151L130.974,430.142L130.957,430.133L130.94,430.124L130.923,430.115L130.906,430.106L130.889,430.098L130.872,430.089L130.855,430.08L130.838,430.071L130.821,430.063L130.804,430.054L130.787,430.045L130.77,430.037L130.753,430.028L130.736,430.019L130.719,430.011L130.702,430.002L130.685,429.994L130.668,429.985L130.651,429.977L130.633,429.968L130.616,429.96L130.599,429.952L130.582,429.943L130.564,429.935L130.547,429.926L130.53,429.918L130.513,429.91L130.495,429.901L130.478,429.893L130.461,429.885L130.444,429.877L130.426,429.869L130.409,429.86L130.391,429.852L130.374,429.844L130.357,429.836L130.339,429.828L130.322,429.82L130.304,429.812L130.287,429.804L130.269,429.796L130.252,429.788L130.234,429.78L130.217,429.772L130.199,429.764L130.182,429.756L130.164,429.748L130.147,429.741L130.129,429.733L130.112,429.725L130.094,429.717L130.076,429.71L130.059,429.702L130.041,429.694L130.023,429.687L130.006,429.679L129.988,429.671L129.97,429.664L129.953,429.656L129.935,429.649L129.917,429.641L129.899,429.634L129.882,429.626L129.864,429.619L129.846,429.611L129.828,429.604L129.81,429.597L129.792,429.589L129.775,429.582L129.757,429.575L129.739,429.567L129.721,429.56L129.703,429.553L129.685,429.546L129.667,429.539L129.649,429.532L129.631,429.525L129.613,429.517L129.595,429.51L129.577,429.503L129.559,429.496L129.541,429.489L129.523,429.482L129.505,429.476L129.487,429.469L129.469,429.462L129.451,429.455L129.433,429.448L129.414,429.441L129.396,429.435L129.378,429.428L129.36,429.421L129.342,429.415L129.324,429.408L129.305,429.401L129.287,429.395L129.269,429.388L129.251,429.382L129.232,429.375L129.214,429.369L129.196,429.362L129.177,429.356L129.159,429.349L129.141,429.343L129.122,429.337L129.104,429.33L129.086,429.324L129.067,429.318L129.049,429.312L129.03,429.305L129.012,429.299L128.994,429.293L128.975,429.287L128.957,429.281L128.938,429.275L128.92,429.269L128.901,429.263L128.883,429.257L128.864,429.251L128.846,429.245L128.827,429.239L128.808,429.233L128.79,429.227L128.771,429.221L128.753,429.216L128.734,429.21L128.715,429.204L128.697,429.199L128.678,429.193L128.659,429.187L128.641,429.182L128.622,429.176L128.603,429.171L128.584,429.165L128.566,429.16L128.547,429.154L128.528,429.149L128.509,429.143L128.491,429.138L128.472,429.133L128.453,429.127L128.434,429.122L128.415,429.117L128.396,429.112L128.377,429.107L128.359,429.101L128.34,429.096L128.321,429.091L128.302,429.086L128.283,429.081L128.264,429.076L128.245,429.071L128.226,429.066L128.207,429.061L128.188,429.057L128.169,429.052L128.15,429.047L128.131,429.042L128.112,429.037L128.093,429.033L128.074,429.028L128.054,429.023L128.035,429.019L128.016,429.014L127.997,429.01L127.978,429.005L127.959,429.001L127.94,428.996L127.92,428.992L127.901,428.988L127.882,428.983L127.863,428.979L127.844,428.975L127.824,428.97L127.805,428.966L127.786,428.962L127.767,428.958L127.747,428.954L127.728,428.949L127.864,428.352L127.884,428.357Z" style="fill:black;"/>
    </g>
    <g id="Laurels" transform="matrix(1,0,0,1,0.0333065,47.2496)">
        <g id="left" transform="matrix(-6.80555,0,0,6.80775,5690.14,-1164.73)">
            <path d="M538.309,587.031C541.003,590.109 544.489,592.986 547.776,595.638C569.008,573.695 593.935,549.376 617.629,549.376C632.319,549.376 642.899,560.558 655.242,568.448C672.372,579.397 695.868,585.563 716.004,577.527C726.834,573.415 737.327,567.358 745.168,557.518C729.32,568.448 705.587,569.917 687.696,562.495C667.921,554.29 647.793,543.396 625.255,543.396C592.033,543.396 560.459,565.869 538.309,587.031L538.309,587.031ZM783.851,518.016C761.855,543.055 725.98,534.999 696.618,541.253C692.531,542.123 688.691,543.48 684.304,542.807C687.795,540.593 692.422,540.344 696.455,538.825C719.238,530.242 722.79,505.858 735.258,489.077C719.333,499.664 706.139,514.159 691.247,527.78C680.882,537.261 667.969,541.317 654.577,544.042C657.795,545.218 662.005,544.941 665.47,545.8C689.526,551.768 716.198,561.188 741.795,552.741C758.314,547.29 775.504,534.38 783.851,518.016L783.851,518.016ZM819.109,460.066C805.389,491.129 770.918,493.562 747.998,512.618C743.64,516.242 739.32,519.577 734.532,521.809L734.285,521.559C739.574,516.774 745.298,511.071 749.394,505.118C762.494,486.084 758.135,460.067 768.235,439.887C759.059,450.875 750.451,462.189 745.167,474.77C736.664,495.016 733.775,518.112 714.704,533.496C735.345,526.686 759.156,528.042 777.743,515.868C797.281,503.071 815.388,482.872 819.109,460.066ZM833.806,397.22C831.823,424.588 802.686,439.207 788.792,461.704C785.825,466.509 782.772,471.469 778.462,475.349C779.134,472.436 781.532,469.854 782.851,466.995C787.307,457.342 789.324,446.172 788.212,434.685C786.859,420.71 781.033,407.732 783.269,393.03C771.294,418.878 775.156,451.192 768.235,479.141C766.704,485.323 762.939,490.734 760.619,496.59C772.385,487.639 787.804,479.694 800.719,469.514C813.209,459.669 824.051,448.13 829.686,433.115C833.747,422.296 834.803,409.391 833.806,397.22L833.806,397.22ZM832.992,346.794C831.587,340.686 830.511,334.365 827.854,328.761C832.886,354.578 815.71,373.227 809.847,395.563C807.637,403.98 806.881,412.924 803.477,420.778C803.159,420.948 802.884,420.618 802.688,420.364C811.162,396.593 798.74,374.624 786.639,355.887C783.459,350.962 781.928,345.227 780.442,339.429C779.134,350.19 781.424,362.647 783.415,373.751C785.978,388.047 790.864,401.446 794.748,415.239C797.305,423.856 796.631,433.581 795.319,442.609L796.552,441.625C805.561,424.993 823.336,412 828.704,393.847C832.994,379.339 835.962,362.578 832.992,346.794L832.992,346.794ZM823.49,319.023C823.49,299.486 815.883,283.549 804.472,268.999C804.141,268.834 803.906,268.502 803.478,268.58C816.04,287.688 804.606,311.808 806.221,333.481L807.877,355.725C807.631,355.887 807.631,356.554 807.048,356.299C806.306,353.819 806.08,351.181 805.649,348.62C802.625,330.688 786.878,318.206 773.523,305.546C770.364,302.551 768.052,299.01 766.562,295.204C767.673,304.137 770.165,313.294 774.174,321.412C784.453,342.222 804.306,359.02 807.877,382.669C809.609,360.004 823.49,343.155 823.49,319.023L823.49,319.023ZM790.379,253.12C784.062,246.116 776.982,240.661 768.554,238.503C784.92,249.756 784.032,269.869 789.043,286.686C790.875,292.835 793.567,298.596 794.999,304.951L794.585,305.282C791.862,298.097 787.19,291.191 781.103,285.448C769.592,274.588 752.285,268.014 746.589,252.127C746.85,274.204 765.668,290.986 782.856,303.969C790.564,309.792 797.116,317.61 801.113,325.806C800.445,319.706 800.142,314.631 800.687,308.677C802.451,289.392 803.595,267.773 790.378,253.12L790.379,253.12ZM723.95,216.003C736.097,226.661 744.201,240.38 753.532,252.712C761.293,262.969 771.941,269.324 781.099,277.931C776.156,267.675 775.243,255.923 768.965,246.001C758.23,229.034 740.488,222.449 723.95,216.003L723.95,216.003Z" style="fill:black;fill-rule:nonzero;"/>
        </g>
        <g id="right" transform="matrix(6.80555,0,0,6.80775,-2490.2,-1165.42)">
            <path d="M538.309,587.031C541.003,590.109 544.489,592.986 547.776,595.638C569.008,573.695 593.935,549.376 617.629,549.376C632.319,549.376 642.899,560.558 655.242,568.448C672.372,579.397 695.868,585.563 716.004,577.527C726.834,573.415 737.327,567.358 745.168,557.518C729.32,568.448 705.587,569.917 687.696,562.495C667.921,554.29 647.793,543.396 625.255,543.396C592.033,543.396 560.459,565.869 538.309,587.031L538.309,587.031ZM783.851,518.016C761.855,543.055 725.98,534.999 696.618,541.253C692.531,542.123 688.691,543.48 684.304,542.807C687.795,540.593 692.422,540.344 696.455,538.825C719.238,530.242 722.79,505.858 735.258,489.077C719.333,499.664 706.139,514.159 691.247,527.78C680.882,537.261 667.969,541.317 654.577,544.042C657.795,545.218 662.005,544.941 665.47,545.8C689.526,551.768 716.198,561.188 741.795,552.741C758.314,547.29 775.504,534.38 783.851,518.016L783.851,518.016ZM819.109,460.066C805.389,491.129 770.918,493.562 747.998,512.618C743.64,516.242 739.32,519.577 734.532,521.809L734.285,521.559C739.574,516.774 745.298,511.071 749.394,505.118C762.494,486.084 758.135,460.067 768.235,439.887C759.059,450.875 750.451,462.189 745.167,474.77C736.664,495.016 733.775,518.112 714.704,533.496C735.345,526.686 759.156,528.042 777.743,515.868C797.281,503.071 815.388,482.872 819.109,460.066ZM833.806,397.22C831.823,424.588 802.686,439.207 788.792,461.704C785.825,466.509 782.772,471.469 778.462,475.349C779.134,472.436 781.532,469.854 782.851,466.995C787.307,457.342 789.324,446.172 788.212,434.685C786.859,420.71 781.033,407.732 783.269,393.03C771.294,418.878 775.156,451.192 768.235,479.141C766.704,485.323 762.939,490.734 760.619,496.59C772.385,487.639 787.804,479.694 800.719,469.514C813.209,459.669 824.051,448.13 829.686,433.115C833.747,422.296 834.803,409.391 833.806,397.22L833.806,397.22ZM832.992,346.794C831.587,340.686 830.511,334.365 827.854,328.761C832.886,354.578 815.71,373.227 809.847,395.563C807.637,403.98 806.881,412.924 803.477,420.778C803.159,420.948 802.884,420.618 802.688,420.364C811.162,396.593 798.74,374.624 786.639,355.887C783.459,350.962 781.928,345.227 780.442,339.429C779.134,350.19 781.424,362.647 783.415,373.751C785.978,388.047 790.864,401.446 794.748,415.239C797.305,423.856 796.631,433.581 795.319,442.609L796.552,441.625C805.561,424.993 823.336,412 828.704,393.847C832.994,379.339 835.962,362.578 832.992,346.794L832.992,346.794ZM823.49,319.023C823.49,299.486 815.883,283.549 804.472,268.999C804.141,268.834 803.906,268.502 803.478,268.58C816.04,287.688 804.606,311.808 806.221,333.481L807.877,355.725C807.631,355.887 807.631,356.554 807.048,356.299C806.306,353.819 806.08,351.181 805.649,348.62C802.625,330.688 786.878,318.206 773.523,305.546C770.364,302.551 768.052,299.01 766.562,295.204C767.673,304.137 770.165,313.294 774.174,321.412C784.453,342.222 804.306,359.02 807.877,382.669C809.609,360.004 823.49,343.155 823.49,319.023L823.49,319.023ZM790.379,253.12C784.062,246.116 776.982,240.661 768.554,238.503C784.92,249.756 784.032,269.869 789.043,286.686C790.875,292.835 793.567,298.596 794.999,304.951L794.585,305.282C791.862,298.097 787.19,291.191 781.103,285.448C769.592,274.588 752.285,268.014 746.589,252.127C746.85,274.204 765.668,290.986 782.856,303.969C790.564,309.792 797.116,317.61 801.113,325.806C800.445,319.706 800.142,314.631 800.687,308.677C802.451,289.392 803.595,267.773 790.378,253.12L790.379,253.12ZM723.95,216.003C736.097,226.661 744.201,240.38 753.532,252.712C761.293,262.969 771.941,269.324 781.099,277.931C776.156,267.675 775.243,255.923 768.965,246.001C758.23,229.034 740.488,222.449 723.95,216.003L723.95,216.003Z" style="fill:black;fill-rule:nonzero;"/>
        </g>
    </g>
    <g id="castle" transform="matrix(1.28242,0,0,1.28242,-450.891,-459.461)">
        <g transform="matrix(27.0714,0,0,27.0714,-1850.55,-10123.3)">
            <path d="M133.944,398.427L131.269,398.427L131.269,396.001L133.944,396.001L133.944,398.427ZM133.932,402.039L133.425,403.291L131.258,403.291L131.258,400.866L133.932,400.866L133.932,402.039ZM131.276,405.723L128.601,405.723L128.601,403.296L131.276,403.296L131.276,405.723ZM128.609,408.169L127.359,408.673L125.934,408.169L125.934,405.725L128.609,405.725L128.609,408.169ZM123.266,403.295L125.941,403.295L125.941,405.722L123.266,405.722L123.266,403.295ZM121.107,403.291L120.598,402.039L120.598,400.866L123.275,400.866L123.275,403.291L121.107,403.291ZM120.596,396.002L123.271,396.002L123.271,398.428L120.596,398.428L120.596,396.002ZM128.602,398.431L131.277,398.431L131.277,400.857L128.602,400.857L128.602,398.431ZM123.266,398.431L125.941,398.431L125.941,400.857L123.266,400.857L123.266,398.431ZM125.934,400.866L128.609,400.866L128.609,403.293L125.934,403.293L125.934,400.866ZM125.934,396.002L128.609,396.002L128.609,398.428L125.934,398.428L125.934,396.002ZM119.493,394.743L119.493,402.048C120.458,407.548 127.427,409.856 127.427,409.856C134.271,407.296 135.362,402.467 135.362,402.467L135.362,394.743L119.493,394.743Z" style="fill:black;fill-rule:nonzero;"/>
        </g>
        <g transform="matrix(27.0714,0,0,27.0714,-1850.54,-10121.4)">
            <path d="M105.13,415.589L104.689,413.512L113.379,414.519L105.13,415.589ZM105.886,418.045L105.507,416.22L113.318,417.227L105.886,418.045ZM113.253,430.074L105.383,430.893L105.507,429.128L113.253,430.074ZM107.963,426.735L107.901,428.185L105.697,428.31L105.76,426.672L107.963,426.735ZM107.901,424.154L107.963,425.539L105.886,425.665L106.011,424.027L107.901,424.154ZM108.765,426.352L108.765,424.72L110.23,424.72L110.23,423.266L111.738,423.266L111.738,424.72L113.124,424.72L113.124,426.352L111.738,426.352L111.738,429.122L110.23,429.122L110.23,426.352L108.765,426.352ZM106.264,420.627L106.326,418.928L113.253,419.683L106.264,420.627ZM113.253,422.391L106.011,423.273L106.264,421.445L113.253,422.391ZM105.068,433.411L105.255,431.71L113.318,432.654L105.068,433.411ZM104.877,436.056L105.068,434.165L113.318,435.175L104.877,436.056ZM104.689,438.7L104.816,436.748L113.318,437.818L104.689,438.7ZM103.871,446.384L104.122,444.558L113.253,445.501L103.871,446.384ZM103.493,449.153L103.681,447.074L113.19,448.02L103.493,449.153ZM104.311,441.975L113.127,442.919L104.186,443.737L104.311,441.975ZM104.564,439.394L113.19,440.338L104.374,441.22L104.564,439.394ZM120.433,408.853L116.402,408.853L116.15,412.125L112.624,412.125L112.624,408.853L109.035,408.853L109.035,412.252L105.823,412.252L105.404,408.848L101.437,408.848L104.298,419.64L101.342,450.539L114.537,450.539L115.797,437.441L118.669,432.939L117.346,419.62L120.433,408.853Z" style="fill:black;fill-rule:nonzero;"/>
        </g>
        <g transform="matrix(27.0714,0,0,27.0714,-1852.72,-10122.2)">
            <path d="M137.812,415.589L137.372,413.512L146.062,414.519L137.812,415.589ZM138.569,418.045L138.19,416.22L145.999,417.227L138.569,418.045ZM145.935,430.074L138.065,430.893L138.19,429.128L145.935,430.074ZM140.646,426.735L140.583,428.185L138.379,428.31L138.442,426.672L140.646,426.735ZM140.583,424.154L140.646,425.539L138.569,425.665L138.694,424.027L140.583,424.154ZM141.448,426.352L141.448,424.72L142.913,424.72L142.913,423.266L144.422,423.266L144.422,424.72L145.807,424.72L145.807,426.352L144.422,426.352L144.422,429.122L142.913,429.122L142.913,426.352L141.448,426.352ZM138.947,420.627L139.008,418.928L145.935,419.683L138.947,420.627ZM145.935,422.391L138.694,423.273L138.947,421.445L145.935,422.391ZM137.751,433.411L137.938,431.71L145.999,432.654L137.751,433.411ZM153.267,408.848L149.3,408.848L148.833,412L145.432,412L145.434,408.836L141.846,408.836L141.843,412.125L138.442,412.125L137.907,408.852L134.192,408.852L137.436,419.872L136.238,433.097L138.029,435.801L137.751,434.165L145.999,435.175L138.162,436.002L139.072,437.377L139.151,438.134L139.197,437.064L145.999,437.818L139.191,438.505L139.456,441.024L139.513,439.645L145.873,440.338L139.469,441.153L139.66,442.964L139.765,442.227L145.81,442.919L139.72,443.534L139.856,444.831L145.935,445.501L139.993,446.12L140.134,447.464L145.873,448.02L140.268,448.742L140.458,450.539L153.604,450.539L150.52,419.557L153.267,408.848Z" style="fill:black;fill-rule:nonzero;"/>
        </g>
        <g transform="matrix(27.0714,0,0,27.0714,-1844.72,-10111.2)">
            <path d="M138.064,436.013L138.162,436.002L138.028,435.8L138.064,436.013Z" style="fill:black;fill-rule:nonzero;"/>
        </g>
        <g transform="matrix(27.0714,0,0,27.0714,-1842.71,-10104.7)">
            <path d="M130.067,427.618L136.404,426.928L136.506,426.063L128.619,425.099L137.273,424.397L138.026,419.288L133.565,419.288L133.531,422.832L130.269,422.832L130.269,419.281L124.992,419.281L124.992,422.769L121.44,422.769L121.427,419.288L116.438,419.24L118.101,432.695C118.101,432.695 121.365,428.531 127.201,428.056C127.201,428.056 131.337,428.771 136.626,433.354L137.101,428.655L130.067,427.618Z" style="fill:black;fill-rule:nonzero;"/>
        </g>
        <g transform="matrix(27.0714,0,0,27.0714,-1850.55,-10123.3)">
            <rect x="126.105" y="428.563" width="2.833" height="2.832" style="fill:black;fill-rule:nonzero;"/>
        </g>
        <g transform="matrix(27.0714,0,0,27.0714,-1850.55,-10123.3)">
            <rect x="123.267" y="431.397" width="2.834" height="2.646" style="fill:black;fill-rule:nonzero;"/>
        </g>
        <g transform="matrix(27.0714,0,0,27.0714,-1850.55,-10123.3)">
            <rect x="123.268" y="431.396" width="2.834" height="2.646" style="fill:black;fill-rule:nonzero;stroke-width:0.01px;stroke:rgb(0,68,124);"/>
        </g>
        <g transform="matrix(27.0714,0,0,27.0714,-1850.55,-10123.3)">
            <rect x="128.925" y="431.392" width="2.834" height="2.646" style="fill:black;fill-rule:nonzero;"/>
        </g>
        <g transform="matrix(27.0714,0,0,27.0714,-1850.55,-10123.3)">
            <rect x="128.925" y="431.393" width="2.834" height="2.645" style="fill:black;fill-rule:nonzero;stroke-width:0.01px;stroke:rgb(0,68,124);"/>
        </g>
        <g transform="matrix(27.0714,0,0,27.0714,-1850.55,-10123.3)">
            <path d="M137.418,434.038L134.585,434.038L134.585,431.392L134.98,431.392L137.418,434.038Z" style="fill:black;fill-rule:nonzero;"/>
        </g>
        <g transform="matrix(27.0714,0,0,27.0714,-1850.55,-10123.3)">
            <path d="M123.266,435.932L121.822,436.688L120.433,435.932L120.433,434.042L123.266,434.042L123.266,435.932Z" style="fill:black;fill-rule:nonzero;"/>
        </g>
        <g transform="matrix(27.0714,0,0,27.0714,-1850.55,-10123.3)">
            <path d="M123.266,435.932L121.822,436.688L120.433,435.932L120.433,434.042L123.266,434.042L123.266,435.932Z" style="fill:black;fill-rule:nonzero;stroke-width:0.01px;stroke:rgb(0,68,124);"/>
        </g>
        <g transform="matrix(27.0714,0,0,27.0714,-1850.55,-10123.3)">
            <path d="M128.937,435.932L127.545,436.688L126.104,435.932L126.104,434.042L128.937,434.042L128.937,435.932Z" style="fill:black;fill-rule:nonzero;"/>
        </g>
        <g transform="matrix(27.0714,0,0,27.0714,-1850.55,-10123.3)">
            <path d="M128.937,435.932L127.545,436.688L126.104,435.932L126.104,434.042L128.937,434.042L128.937,435.932Z" style="fill:black;fill-rule:nonzero;stroke-width:0.01px;stroke:rgb(0,68,124);"/>
        </g>
        <g transform="matrix(27.0714,0,0,27.0714,-1850.55,-10123.3)">
            <path d="M134.587,435.932L133.161,436.688L131.754,435.932L131.754,434.042L134.587,434.042L134.587,435.932Z" style="fill:black;fill-rule:nonzero;"/>
        </g>
        <g transform="matrix(27.0714,0,0,27.0714,-1850.55,-10123.3)">
            <path d="M134.587,435.932L133.161,436.688L131.754,435.932L131.754,434.042L134.587,434.042L134.587,435.932Z" style="fill:black;fill-rule:nonzero;stroke-width:0.01px;stroke:rgb(0,68,124);"/>
        </g>
        <g transform="matrix(27.0714,0,0,27.0714,-1850.55,-10123.3)">
            <path d="M120.446,434.033L117.613,434.033L119.954,431.388L120.446,431.388L120.446,434.033Z" style="fill:black;fill-rule:nonzero;"/>
        </g>
        <g transform="matrix(27.0714,0,0,27.0714,-1850.55,-10123.3)">
            <path d="M123.266,431.395L120.433,431.395L120.433,430.861L123.266,429.445L123.266,431.395Z" style="fill:black;fill-rule:nonzero;"/>
        </g>
        <g transform="matrix(27.0714,0,0,27.0714,-1850.55,-10123.3)">
            <path d="M134.587,431.395L131.754,431.395L131.754,429.445L133.201,430.136L134.587,431.395Z" style="fill:black;fill-rule:nonzero;"/>
        </g>
    </g>
</svg>
